<?xml version="1.0" encoding="UTF-8"?><svg id="Layer_1" xmlns="http://www.w3.org/2000/svg" viewBox="0 0 604.84 558.64"><ellipse cx="305.71" cy="269.11" rx="292" ry="71.5" style="fill:#b57944;"/><g><ellipse cx="162.86" cy="134.62" rx="36.29" ry="8.44" transform="translate(-45.79 101.28) rotate(-30.5)" style="fill:#c8ff8a;"/><path d="m140.65,182.18h0c-2.68.47-5.23-1.25-5.69-3.83l-8.17-45.71c-.46-2.58,1.34-5.05,4.02-5.52h0c2.68-.47,5.23,1.25,5.69,3.83l8.17,45.71c.46,2.58-1.34,5.05-4.02,5.52Z" style="fill:#8c6239;"/><path d="m262.3,253.97c.1,55.88-47.86,83.49-105.82,84.06s-103.97-26.11-104.07-81.99c-.1-55.88,46.8-101.64,104.76-102.21,57.96-.57,105.03,44.27,105.14,100.15Z" style="fill:#ffb56a;"/></g><g><path d="m341.78,99.43s104.02,50.51,111.63,103.39c8.18,56.81,4.15,122.86-85.9,132.67-90.06,9.81-102.7-56.96-106.11-113.47-3.05-50.5,80.39-122.58,80.39-122.58Z" style="fill:#f6d873;"/><line x1="315.97" y1="131.61" x2="455.61" y2="225.81" style="fill:none; stroke:#fcee7d; stroke-miterlimit:10;"/><path d="m434.56,30.62c-.77-3.64-55.09-12.22-79.81,9.57-7.15,6.31-12.08,15.37-13.94,18.8-2.21,4.06-7.17,14.06-8.74,26.59-3.02,24.24,7.53,51.33,14.64,51.57,3.37.12,3.84-5.87,16.89-38.7,5.95-14.98,8.36-20.03,10.31-23.89,7.81-15.41,11.72-23.12,19.46-29.43,17.65-14.39,41.69-12.08,41.18-14.52Z" style="fill:#c8ff8a;"/><path d="m367.52.34c-2.69-2.83-55.94,12.31-66.04,41.39-2.92,8.42-2.33,18.29-2.11,22.02.27,4.42,1.32,15.12,6.83,26.59,10.64,22.19,34.96,41.21,41.45,38.46,3.08-1.3.2-6.67-6.2-40.44-2.92-15.41-3.56-20.77-3.93-24.91-1.5-16.55-2.25-24.83,1.19-33.5,7.85-19.75,30.61-27.74,28.81-29.63Z" style="fill:#99ff8a;"/><path d="m428.27,87.12c-.54-2.82-44.16-14.35-64.58-.21-5.91,4.09-10.08,10.47-11.66,12.89-1.87,2.86-6.1,9.94-7.63,19.25-2.97,18,4.93,39.42,10.67,40.27,2.72.4,3.23-4.07,14.48-27.62,5.13-10.75,7.18-14.33,8.84-17.06,6.64-10.9,9.96-16.35,16.34-20.39,14.55-9.21,33.89-5.23,33.53-7.12Z" style="fill:#99ff8a;"/><path d="m325.69,161.38c5.46.1,17.79-28.12,6.44-48.25-3.8-6.73-10.02-12.16-10.8-12.84-6.4-5.51-12.8-8.3-19.07-11-3.55-1.53-10.83-4.66-19.6-6.44-21.72-4.4-44.38,1.19-44.39,3.96,0,1.81,9.69.98,26.12,5.97,8.97,2.73,20.96,6.37,31.19,15.12,8.59,7.35,12.35,15.22,19.14,29.46,8.31,17.42,8.04,23.97,10.99,24.02Z" style="fill:#c8ff8a;"/><path d="m329.64,159.6c8.01-.68,31.82-43.5,19.15-70.99-4.24-9.19-12.3-16.12-13.32-16.99-8.31-7.03-17.16-10.09-25.85-13.06-4.92-1.68-15-5.12-27.55-6.36-31.08-3.08-65.54,8.47-66.11,12.48-.37,2.63,14.06-.06,37.23,4.7,12.66,2.6,29.56,6.06,42.86,17.2,11.17,9.36,15.11,20.2,22.25,39.83,8.73,24.02,7.03,33.56,11.34,33.19Z" style="fill:#aef68a;"/><line x1="275.52" y1="176.22" x2="445.79" y2="289.92" style="fill:none; stroke:#fcee7d; stroke-miterlimit:10;"/><line x1="263.8" y1="204.31" x2="427.48" y2="313.52" style="fill:none; stroke:#fcee7d; stroke-miterlimit:10;"/><line x1="263.04" y1="244.07" x2="395.68" y2="330.21" style="fill:none; stroke:#fcee7d; stroke-miterlimit:10;"/><line x1="293.54" y1="150" x2="455.09" y2="258.49" style="fill:none; stroke:#fcee7d; stroke-miterlimit:10;"/><line x1="271.36" y1="282.92" x2="355.61" y2="336.34" style="fill:none; stroke:#fcee7d; stroke-miterlimit:10;"/><line x1="353.67" y1="336.75" x2="455.23" y2="263.12" style="fill:none; stroke:#fcee7d; stroke-miterlimit:10;"/><line x1="263.02" y1="237.37" x2="398.76" y2="134.13" style="fill:none; stroke:#fcee7d; stroke-miterlimit:10;"/><line x1="267.73" y1="268.33" x2="420.35" y2="150.7" style="fill:none; stroke:#fcee7d; stroke-miterlimit:10;"/><line x1="279.2" y1="298.82" x2="440.26" y2="174" style="fill:none; stroke:#fcee7d; stroke-miterlimit:10;"/><line x1="296.87" y1="320.7" x2="453.92" y2="203.34" style="fill:none; stroke:#fcee7d; stroke-miterlimit:10;"/><line x1="319.52" y1="332.34" x2="456.69" y2="232.12" style="fill:none; stroke:#fcee7d; stroke-miterlimit:10;"/><line x1="368.79" y1="134.83" x2="452.28" y2="195.31" style="fill:none; stroke:#fcee7d; stroke-miterlimit:10;"/></g><g><ellipse cx="450.89" cy="220.15" rx="22.21" ry="19.4" transform="translate(53.27 526.21) rotate(-63.61)" style="fill:#c190e3; stroke:#d47ff9; stroke-miterlimit:10; stroke-width:.25px;"/><ellipse cx="528.64" cy="217.69" rx="22.21" ry="19.4" transform="translate(98.67 594.49) rotate(-63.61)" style="fill:#c183e3; stroke:#d47ff9; stroke-miterlimit:10; stroke-width:.25px;"/><ellipse cx="562.41" cy="284.32" rx="22.21" ry="19.4" transform="translate(57.75 661.76) rotate(-63.61)" style="fill:#c183e3; stroke:#d47ff9; stroke-miterlimit:10; stroke-width:.25px;"/><path d="m519.98,221.16h0c-2.11-.29-3.56-2.13-3.25-4.09l15.7-97.32c.32-1.96,2.28-3.32,4.39-3.02h0c2.11.29,3.56,2.13,3.25,4.09l-15.7,97.32c-.32,1.96-2.28,3.32-4.39,3.02Z" style="fill:#8c6239;"/><ellipse cx="584.03" cy="227.75" rx="22.54" ry="19.12" transform="translate(27.59 516.43) rotate(-48.72)" style="fill:#c183e3; stroke:#d47ff9; stroke-miterlimit:10; stroke-width:.25px;"/><ellipse cx="508.37" cy="179.98" rx="22.21" ry="19.4" transform="translate(121.19 555.38) rotate(-63.61)" style="fill:#c183e3; stroke:#d47ff9; stroke-miterlimit:10; stroke-width:.25px;"/><ellipse cx="536.7" cy="239.03" rx="22.74" ry="18.96" transform="translate(-22.8 418.31) rotate(-41.77)" style="fill:#c183e3; stroke:#d47ff9; stroke-miterlimit:10; stroke-width:.25px;"/><ellipse cx="488.43" cy="292.66" rx="22.21" ry="19.4" transform="translate(9.18 600.11) rotate(-63.61)" style="fill:#c183e3; stroke:#d47ff9; stroke-miterlimit:10; stroke-width:.25px;"/><ellipse cx="457.17" cy="284.07" rx="22.21" ry="19.4" transform="translate(-.5 567.34) rotate(-63.61)" style="fill:#c183e3; stroke:#d47ff9; stroke-miterlimit:10; stroke-width:.25px;"/><ellipse cx="528.64" cy="270.49" rx="22.21" ry="19.4" transform="translate(51.37 623.82) rotate(-63.61)" style="fill:#c183e3; stroke:#d47ff9; stroke-miterlimit:10; stroke-width:.25px;"/><ellipse cx="454.33" cy="190.04" rx="22.21" ry="19.4" transform="translate(82.16 512.56) rotate(-63.61)" style="fill:#c183e3; stroke:#d47ff9; stroke-miterlimit:10; stroke-width:.25px;"/><ellipse cx="562.74" cy="211.37" rx="22.21" ry="19.4" transform="translate(123.27 621.52) rotate(-63.61)" style="fill:#c183e3; stroke:#d47ff9; stroke-miterlimit:10; stroke-width:.25px;"/><ellipse cx="539.77" cy="195.89" rx="22.21" ry="19.4" transform="translate(124.38 592.35) rotate(-63.61)" style="fill:#c190e3; stroke:#d47ff9; stroke-miterlimit:10; stroke-width:.25px;"/><ellipse cx="462.2" cy="311.26" rx="22.21" ry="19.4" transform="translate(-22.06 586.95) rotate(-63.61)" style="fill:#c190e3; stroke:#d47ff9; stroke-miterlimit:10; stroke-width:.25px;"/><ellipse cx="450.27" cy="250.38" rx="22.21" ry="19.4" transform="translate(25.86 542.45) rotate(-63.61)" style="fill:#c183e3; stroke:#d47ff9; stroke-miterlimit:10; stroke-width:.25px;"/><ellipse cx="512.8" cy="325.37" rx="22.21" ry="19.4" transform="translate(-6.59 640.12) rotate(-63.61)" style="fill:#c183e3; stroke:#d47ff9; stroke-miterlimit:10; stroke-width:.25px;"/><ellipse cx="506.74" cy="299.41" rx="22.21" ry="19.4" transform="translate(13.31 620.27) rotate(-63.61)" style="fill:#c190e3; stroke:#d47ff9; stroke-miterlimit:10; stroke-width:.25px;"/><ellipse cx="551.98" cy="250.63" rx="22.21" ry="19.4" transform="translate(82.13 633.69) rotate(-63.61)" style="fill:#c190e3; stroke:#d47ff9; stroke-miterlimit:10; stroke-width:.25px;"/><ellipse cx="511.07" cy="221" rx="22.21" ry="19.4" transform="translate(85.95 580.59) rotate(-63.61)" style="fill:#c190e3; stroke:#d47ff9; stroke-miterlimit:10; stroke-width:.25px;"/><ellipse cx="584.03" cy="197.11" rx="22.21" ry="19.4" transform="translate(147.87 632.68) rotate(-63.61)" style="fill:#c190e3; stroke:#d47ff9; stroke-miterlimit:10; stroke-width:.25px;"/><ellipse cx="582.68" cy="250.38" rx="22.21" ry="19.4" transform="translate(99.41 661.06) rotate(-63.61)" style="fill:#c190e3; stroke:#d47ff9; stroke-miterlimit:10; stroke-width:.25px;"/><ellipse cx="483.9" cy="328.95" rx="22.21" ry="19.4" transform="translate(-25.85 616.21) rotate(-63.61)" style="fill:#c183e3; stroke:#d47ff9; stroke-miterlimit:10; stroke-width:.25px;"/><ellipse cx="540.06" cy="159.81" rx="22.21" ry="19.4" transform="translate(156.86 572.56) rotate(-63.61)" style="fill:#c190e3; stroke:#d47ff9; stroke-miterlimit:10; stroke-width:.25px;"/><ellipse cx="540.06" cy="304.38" rx="22.21" ry="19.4" transform="translate(27.36 652.88) rotate(-63.61)" style="fill:#c190e3; stroke:#d47ff9; stroke-miterlimit:10; stroke-width:.25px;"/><ellipse cx="484.05" cy="225.24" rx="22.21" ry="19.4" transform="translate(67.14 558.74) rotate(-63.61)" style="fill:#c183e3; stroke:#d47ff9; stroke-miterlimit:10; stroke-width:.25px;"/><ellipse cx="510.85" cy="192.5" rx="22.21" ry="19.4" transform="translate(111.35 564.55) rotate(-63.61)" style="fill:#c183e3; stroke:#d47ff9; stroke-miterlimit:10; stroke-width:.25px;"/><ellipse cx="568.43" cy="173.64" rx="22.21" ry="19.4" transform="translate(160.23 605.66) rotate(-63.61)" style="fill:#c183e3; stroke:#d47ff9; stroke-miterlimit:10; stroke-width:.25px;"/><ellipse cx="477.91" cy="166.1" rx="22.21" ry="19.4" transform="translate(116.7 520.38) rotate(-63.61)" style="fill:#c183e3; stroke:#d47ff9; stroke-miterlimit:10; stroke-width:.25px;"/><ellipse cx="508.74" cy="258.07" rx="22.21" ry="19.4" transform="translate(51.45 599.1) rotate(-63.61)" style="fill:#c183e3; stroke:#d47ff9; stroke-miterlimit:10; stroke-width:.25px;"/><ellipse cx="477.67" cy="197.58" rx="19.54" ry="22.06" transform="translate(-33.27 119.19) rotate(-13.75)" style="fill:#c190e3; stroke:#d47ff9; stroke-miterlimit:10; stroke-width:.25px;"/><ellipse cx="484.42" cy="254.55" rx="22.21" ry="19.4" transform="translate(41.09 575.35) rotate(-63.61)" style="fill:#c190e3; stroke:#d47ff9; stroke-miterlimit:10; stroke-width:.25px;"/><ellipse cx="507.1" cy="156.35" rx="22.21" ry="19.4" transform="translate(141.66 541.12) rotate(-63.61)" style="fill:#c190e3; stroke:#d47ff9; stroke-miterlimit:10; stroke-width:.25px;"/><ellipse cx="557.38" cy="133.37" rx="33.67" ry="11.42" transform="translate(17.87 326.73) rotate(-33.17)" style="fill:#c8ff8a;"/><ellipse cx="560.67" cy="142.2" rx="34.28" ry="11.22" transform="translate(-17.72 148.44) rotate(-14.85)" style="fill:#c8ff8a;"/></g><g><path d="m385.03,265.23c-3.64,7.04,3.02,21.53,15.25,43.89,9.09,16.61,22.66,30,31.17,32.14,14.03,3.52,34.01-20.16,39.51-28.75,3.15-4.92,20.17-29.45,13-47.27-5.38-13.37-89.53-18.16-98.93,0Z" style="fill:#ff836a;"/><ellipse cx="403.88" cy="278.77" rx="1.69" ry="3.53" style="fill:#f6ff7f;"/><ellipse cx="412.69" cy="287.76" rx="1.69" ry="3.53" style="fill:#f6ff7f;"/><ellipse cx="423.54" cy="271.7" rx="1.69" ry="3.53" style="fill:#f6ff7f;"/><ellipse cx="431" cy="281.98" rx="1.69" ry="3.53" style="fill:#f6ff7f;"/><ellipse cx="400.49" cy="292.9" rx="1.69" ry="3.53" style="fill:#f6ff7f;"/><ellipse cx="419.47" cy="308.97" rx="1.69" ry="3.53" style="fill:#f6ff7f;"/><ellipse cx="409.3" cy="312.18" rx="1.69" ry="3.53" style="fill:#f6ff7f;"/><ellipse cx="454.73" cy="323.1" rx="1.69" ry="3.53" style="fill:#f6ff7f;"/><ellipse cx="418.12" cy="326.1" rx="1.69" ry="3.53" style="fill:#f6ff7f;"/><ellipse cx="430.32" cy="323.1" rx="1.69" ry="3.53" style="fill:#f6ff7f;"/><ellipse cx="424.9" cy="292.9" rx="1.69" ry="3.53" style="fill:#f6ff7f;"/><ellipse cx="451.34" cy="308.97" rx="1.69" ry="3.53" style="fill:#f6ff7f;"/><ellipse cx="460.15" cy="287.76" rx="1.69" ry="3.53" style="fill:#f6ff7f;"/><ellipse cx="447.27" cy="274.91" rx="1.69" ry="3.53" style="fill:#f6ff7f;"/><ellipse cx="471.67" cy="281.98" rx="1.69" ry="3.53" style="fill:#f6ff7f;"/><ellipse cx="390.6" cy="274.77" rx="1.69" ry="3.53" style="fill:#f6ff7f;"/><ellipse cx="436.42" cy="309.61" rx="1.69" ry="3.53" style="fill:#f6ff7f;"/><ellipse cx="454.39" cy="263.67" rx="5.18" ry="22.89" transform="translate(46.96 595.32) rotate(-69.27)" style="fill:#c8ff8a;"/><ellipse cx="456.42" cy="255.32" rx="23.05" ry="5.14" style="fill:#c8ff8a;"/><ellipse cx="416.42" cy="263.67" rx="22.89" ry="5.18" transform="translate(-66.05 162.91) rotate(-20.54)" style="fill:#c8ff8a;"/><ellipse cx="439.13" cy="292.9" rx="1.69" ry="3.53" style="fill:#f6ff7f;"/><ellipse cx="442.52" cy="326.31" rx="1.69" ry="3.53" style="fill:#f6ff7f;"/><ellipse cx="451.34" cy="296.12" rx="1.69" ry="3.53" style="fill:#f6ff7f;"/><ellipse cx="482.52" cy="274.27" rx="1.69" ry="3.53" style="fill:#f6ff7f;"/><ellipse cx="475.06" cy="294.83" rx="1.69" ry="3.53" style="fill:#f6ff7f;"/><ellipse cx="465.57" cy="308.97" rx="1.69" ry="3.53" style="fill:#f6ff7f;"/><ellipse cx="414.21" cy="255.49" rx="23.05" ry="5.14" transform="translate(-11.68 19.99) rotate(-2.73)" style="fill:#c8ff8a;"/><rect x="434.73" y="231.54" width="4.07" height="23.77" rx="2.03" ry="2.03" style="fill:#c8ff8a;"/><ellipse cx="434.14" cy="335.83" rx="1.69" ry="3.53" style="fill:#f6ff7f;"/></g><g><path d="m264.17,174.95h0c-4.12-.77-6.89-4.91-6.19-9.24l5.42-33.61c.7-4.33,4.6-7.21,8.72-6.43h0c4.12.77,6.89,4.91,6.19,9.24l-5.42,33.61c-.7,4.33-4.6,7.21-8.72,6.43Z" style="fill:#f0df7f;"/><path d="m418.08,373.79c2.16-3.31.49-5.54-3.46-8.6-3.04.16-5.84-.59-7.89-2.36-.33-.24-.64-.51-.93-.8-.22-.22-.44-.42-.65-.64-2.28-2.11-4.69-4.07-7.24-5.87-1.43-1.01-2.88-1.98-4.35-2.93-.85-.55-1.71-1.08-2.57-1.62.29.18,1.4.85-.04-.02-2.72-1.65-5.46-3.27-8.19-4.91-6.8-3.48-13.75-6.7-20.53-10.22-20.57-10.69-36.98-26.02-49.73-45.33-2.54-2.91-5.19-6.16-7.51-9.28-11.82-12.91-20.92-28.78-25.62-46.88-8.82-18.61-9.94-42.28-5.32-65.77-.04-2.67.99-4.38,1.02-7.07-.92-3.06-12.02-5.65-15.07-4.34-3.84,1.65-14.92,10.68-21.47,28.01,0,0-6.81,18.01-9.53,34.25-4.36,26.02,8.55,102.46,81.48,148.8,45.41,28.85,100.4,16.59,107.59,5.58Z" style="fill:#f6ff7f;"/><path d="m415.2,364.32h0c-3.95-1.48-8.38.63-9.88,4.72h0c-1.5,4.08.48,8.59,4.43,10.06h0c3.95,1.48,8.38-.63,9.88-4.72h0c1.5-4.08-.48-8.59-4.43-10.06Z" style="fill:#f0df7f;"/></g><g><path d="m23.94,176.95h0c-4.18.23-7.86-3.13-8.21-7.5l-2.72-33.93c-.35-4.37,2.76-8.1,6.94-8.32h0c4.18-.23,7.86,3.13,8.21,7.5l2.72,33.93c.35,4.37-2.76,8.1-6.94,8.32Z" style="fill:#f0df7f;"/><path d="m220.69,333.51c1.31-3.73-.84-5.5-5.4-7.53-2.91.88-5.82.81-8.23-.41-.38-.16-.74-.34-1.09-.56-.27-.16-.52-.3-.79-.46-2.72-1.51-5.53-2.83-8.42-3.98-1.62-.64-3.27-1.24-4.92-1.81-.96-.33-1.92-.65-2.88-.96.32.11,1.56.49-.04-.01-3.03-.96-6.08-1.87-9.12-2.82-7.43-1.77-14.95-3.24-22.37-5.05-22.52-5.5-42.1-16.49-59.08-32.21-3.16-2.22-6.51-4.75-9.5-7.23-14.55-9.73-27.16-22.98-36.03-39.44-12.99-15.98-19.71-38.7-20.8-62.63-.67-2.59-.08-4.49-.69-7.11-1.62-2.75-13.02-2.63-15.67-.63-3.34,2.51-11.95,13.92-14.2,32.31,0,0-2.33,19.11-1.12,35.53,1.95,26.31,32.66,97.5,114.51,125.17,50.97,17.23,101.47-7.75,105.83-20.15Z" style="fill:#f6ff7f;"/><path d="m215.65,324.99h0c-4.19-.5-7.99,2.61-8.48,6.93h0c-.49,4.32,2.51,8.23,6.7,8.72h0c4.19.5,7.99-2.61,8.48-6.93h0c.49-4.32-2.51-8.23-6.7-8.72Z" style="fill:#f0df7f;"/></g><g><path d="m164.98,289.36c-.84,10.16,12.42,25.95,34.94,49.62,16.74,17.59,36.83,29.51,46.74,29.12,16.36-.64,27.35-37.59,29.5-50.37,1.23-7.31,8.73-44.26-6.49-64.07-11.42-14.85-102.52,9.49-104.69,35.69Z" style="fill:#ff836a;"/><ellipse cx="190.72" cy="299.56" rx="1.89" ry="4.69" transform="translate(-86.46 77.57) rotate(-18.83)" style="fill:#f6ff7f;"/><ellipse cx="203.89" cy="307.68" rx="1.89" ry="4.69" transform="translate(-88.38 82.26) rotate(-18.83)" style="fill:#f6ff7f;"/><ellipse cx="208.49" cy="283.59" rx="1.89" ry="4.69" transform="translate(-80.36 82.45) rotate(-18.83)" style="fill:#f6ff7f;"/><ellipse cx="220.79" cy="293.81" rx="1.89" ry="4.69" transform="translate(-83 86.97) rotate(-18.83)" style="fill:#f6ff7f;"/><ellipse cx="193.18" cy="318.53" rx="1.89" ry="4.69" transform="translate(-92.46 79.38) rotate(-18.83)" style="fill:#f6ff7f;"/><ellipse cx="220.15" cy="331.86" rx="1.89" ry="4.69" transform="translate(-95.32 88.8) rotate(-18.83)" style="fill:#f6ff7f;"/><ellipse cx="210.76" cy="339.57" rx="1.89" ry="4.69" transform="translate(-98.3 86.18) rotate(-18.83)" style="fill:#f6ff7f;"/><ellipse cx="263.51" cy="336.9" rx="1.89" ry="4.69" transform="translate(-94.62 103.06) rotate(-18.83)" style="fill:#f6ff7f;"/><ellipse cx="226.05" cy="353.87" rx="1.89" ry="4.69" transform="translate(-102.1 91.88) rotate(-18.83)" style="fill:#f6ff7f;"/><ellipse cx="237.68" cy="345.7" rx="1.89" ry="4.69" transform="translate(-98.84 95.2) rotate(-18.83)" style="fill:#f6ff7f;"/><ellipse cx="219.01" cy="309.73" rx="1.89" ry="4.69" transform="translate(-88.23 87.25) rotate(-18.83)" style="fill:#f6ff7f;"/><ellipse cx="253.87" cy="320.37" rx="1.89" ry="4.69" transform="translate(-89.8 99.06) rotate(-18.83)" style="fill:#f6ff7f;"/><ellipse cx="254.11" cy="290.55" rx="1.89" ry="4.69" transform="translate(-80.17 97.55) rotate(-18.83)" style="fill:#f6ff7f;"/><ellipse cx="234.98" cy="279.06" rx="1.89" ry="4.69" transform="translate(-77.48 90.76) rotate(-18.83)" style="fill:#f6ff7f;"/><ellipse cx="263.83" cy="279.13" rx="1.89" ry="4.69" transform="translate(-75.96 100.07) rotate(-18.83)" style="fill:#f6ff7f;"/><ellipse cx="174.95" cy="299.33" rx="1.89" ry="4.69" transform="translate(-87.23 72.47) rotate(-18.83)" style="fill:#f6ff7f;"/><ellipse cx="238.36" cy="326.55" rx="1.89" ry="4.69" transform="translate(-92.63 94.39) rotate(-18.83)" style="fill:#f6ff7f;"/><ellipse cx="237.7" cy="262.37" rx="6.7" ry="26.25" transform="translate(-47.42 472.24) rotate(-84.18)" style="fill:#c8ff8a;"/><ellipse cx="236.27" cy="251.14" rx="25.77" ry="6.82" transform="translate(-68.4 89.68) rotate(-18.83)" style="fill:#c8ff8a;"/><ellipse cx="197.52" cy="276.07" rx="26.24" ry="6.7" transform="translate(-135.52 210.39) rotate(-43.26)" style="fill:#c8ff8a;"/><ellipse cx="234.07" cy="304.59" rx="1.89" ry="4.69" transform="translate(-85.77 91.83) rotate(-18.83)" style="fill:#f6ff7f;"/><ellipse cx="251.97" cy="345.34" rx="1.89" ry="4.69" transform="translate(-97.96 99.79) rotate(-18.83)" style="fill:#f6ff7f;"/><ellipse cx="248.36" cy="304.22" rx="1.89" ry="4.69" transform="translate(-84.89 96.42) rotate(-18.83)" style="fill:#f6ff7f;"/><ellipse cx="272.01" cy="265.53" rx="1.89" ry="4.69" transform="translate(-71.14 101.98) rotate(-18.83)" style="fill:#f6ff7f;"/><ellipse cx="272.92" cy="294.05" rx="1.89" ry="4.69" transform="translate(-80.29 103.8) rotate(-18.83)" style="fill:#f6ff7f;"/><ellipse cx="268.93" cy="315.23" rx="1.89" ry="4.69" transform="translate(-87.34 103.65) rotate(-18.83)" style="fill:#f6ff7f;"/><ellipse cx="191.68" cy="266.59" rx="25.78" ry="6.82" transform="translate(-86.31 91.86) rotate(-22.13)" style="fill:#c8ff8a;"/><rect x="208.1" y="227.53" width="4.55" height="31.55" rx="2.27" ry="2.27" transform="translate(-67.26 80.91) rotate(-18.83)" style="fill:#c8ff8a;"/><ellipse cx="247.17" cy="360.31" rx="1.89" ry="4.69" transform="translate(-103.05 99.04) rotate(-18.83)" style="fill:#f6ff7f;"/></g><path d="m599.13,260.55s-92.73,65.75-292.2,69.21c-199.47,3.46-294.72-59.04-294.72-59.04,2.8,161.8,136.46,290.68,298.53,287.87,162.07-2.81,291.18-136.25,288.38-298.04Z" style="fill:#b8925c;"/></svg>