<?xml version="1.0" encoding="UTF-8"?>
<svg id="Layer_2" data-name="Layer 2" xmlns="http://www.w3.org/2000/svg" viewBox="0 0 230 325">
  <defs>
    <style>
      .cls-1 {
        fill: #f6d873;
      }

      .cls-2 {
        fill: #aef68a;
      }

      .cls-3 {
        fill: #c8ff8a;
      }

      .cls-4 {
        fill: #99ff8a;
      }

      .cls-5 {
        fill: none;
        stroke: #fcee7d;
        stroke-miterlimit: 10;
      }
    </style>
  </defs>
  <path class="cls-1" d="M119.78,93.57s96.72,58.62,98.53,109.54c1.95,54.7-9.07,116.89-98.53,116.89S25.05,255.39,27.74,201.47c2.41-48.19,92.04-107.9,92.04-107.9Z"/>
  <line class="cls-5" x1="91" y1="121.41" x2="218.01" y2="225.13"/>
  <path class="cls-3" d="M218.23,37.93c-.36-3.53-52.77-17.28-79.37,.82-7.7,5.24-13.5,13.33-15.69,16.38-2.6,3.62-8.55,12.58-11.42,24.31-5.56,22.67,1.9,49.43,8.86,50.4,3.3,.46,4.4-5.17,20.72-34.94,7.45-13.59,10.35-18.13,12.68-21.58,9.32-13.8,13.97-20.7,22.25-25.89,18.87-11.82,42.22-7.14,41.98-9.51Z"/>
  <path class="cls-4" d="M155.65,2.3c-2.34-2.96-56.24,5.89-69.26,32.41-3.77,7.68-4.24,17.1-4.42,20.66-.21,4.22-.32,14.47,3.86,25.92,8.07,22.13,29.92,42.67,36.58,40.74,3.16-.91,.91-6.3-1.77-38.97-1.22-14.91-1.27-20.06-1.19-24.02,.3-15.85,.45-23.77,4.75-31.63,9.82-17.91,33.02-23.13,31.45-25.11Z"/>
  <path class="cls-4" d="M206.01,90.84c-.23-2.73-41.82-18.16-63.38-6.87-6.24,3.27-11.02,8.89-12.82,11.01-2.14,2.52-7.05,8.79-9.55,17.46-4.84,16.76,.63,37.88,6.16,39.27,2.63,.66,3.61-3.53,17.17-24.69,6.19-9.66,8.59-12.85,10.51-15.26,7.69-9.65,11.53-14.47,18.23-17.64,15.27-7.23,33.84-1.46,33.68-3.28Z"/>
  <path class="cls-3" d="M97.36,150.63c5.35,.66,20.47-24.82,11.48-45.07-3.01-6.77-8.53-12.56-9.23-13.29-5.69-5.89-11.68-9.19-17.54-12.39-3.32-1.82-10.13-5.54-18.56-8.13-20.86-6.41-43.69-3.46-44-.84-.2,1.72,9.4,1.93,25,8.36,8.52,3.51,19.89,8.21,29,17.55,7.65,7.85,10.49,15.7,15.64,29.9,6.29,17.37,5.33,23.55,8.21,23.91Z"/>
  <path class="cls-2" d="M101.42,149.36c7.94,.18,35.89-37.95,26.4-65.32-3.18-9.15-10.35-16.55-11.26-17.48-7.41-7.52-15.77-11.34-23.98-15.05-4.65-2.1-14.18-6.4-26.37-8.88C36.02,36.5,.96,43.89-.03,47.64c-.65,2.45,13.81,1.4,36.05,8.3,12.15,3.77,28.37,8.8,40.24,20.73,9.97,10.02,12.68,20.71,17.58,40.06,6,23.67,3.31,32.54,7.59,32.63Z"/>
  <line class="cls-5" x1="46.51" y1="159.52" x2="201.51" y2="284.89"/>
  <line class="cls-5" x1="32" y1="184.94" x2="181.01" y2="305.37"/>
  <line class="cls-5" x1="27" y1="222.55" x2="148.01" y2="317.91"/>
  <line class="cls-5" x1="67.01" y1="136.53" x2="214.01" y2="256.06"/>
  <line class="cls-5" x1="31.01" y1="260.24" x2="108.01" y2="319.58"/>
  <line class="cls-5" x1="106.06" y1="319.76" x2="213.65" y2="260.46"/>
  <line class="cls-5" x1="27.69" y1="216.19" x2="172.01" y2="132.35"/>
  <line class="cls-5" x1="29.01" y1="246.03" x2="191.43" y2="150.29"/>
  <line class="cls-5" x1="37.01" y1="276.12" x2="208.48" y2="174.43"/>
  <line class="cls-5" x1="52.01" y1="298.69" x2="218.76" y2="203.65"/>
  <line class="cls-5" x1="73.01" y1="312.06" x2="218.39" y2="231.22"/>
  <line class="cls-5" x1="142.51" y1="129.92" x2="218.01" y2="195.88"/>
</svg>