<?xml version="1.0" encoding="UTF-8"?>
<svg id="Layer_2" data-name="Layer 2" xmlns="http://www.w3.org/2000/svg" viewBox="0 0 229.21 226.53">
  <defs>
    <style>
      .cls-1 {
        fill: #f6d873;
      }

      .cls-2 {
        fill: #aef68a;
      }

      .cls-3 {
        fill: #c8ff8a;
      }

      .cls-4 {
        fill: #99ff8a;
      }

      .cls-5 {
        fill: none;
        stroke: #fcee7d;
        stroke-miterlimit: 10;
      }
    </style>
  </defs>
  <path class="cls-1" d="M111.21,65.28s67.19,41.68,68.45,77.87c1.35,38.89-6.3,83.1-68.45,83.1s-65.81-45.93-63.93-84.26c1.67-34.26,63.93-76.71,63.93-76.71Z"/>
  <line class="cls-5" x1="91.22" y1="85.07" x2="179.45" y2="158.81"/>
  <path class="cls-3" d="M179.6,25.72c-.25-2.51-36.66-12.28-55.14,.59-5.35,3.72-9.38,9.47-10.9,11.65-1.81,2.58-5.94,8.95-7.93,17.28-3.86,16.11,1.32,35.14,6.15,35.83,2.29,.33,3.06-3.68,14.39-24.84,5.17-9.66,7.19-12.89,8.81-15.34,6.47-9.81,9.71-14.72,15.46-18.41,13.11-8.4,29.33-5.08,29.16-6.76Z"/>
  <path class="cls-4" d="M136.13,.39c-1.62-2.1-39.07,4.19-48.11,23.04-2.62,5.46-2.95,12.16-3.07,14.69-.15,3-.22,10.29,2.68,18.42,5.61,15.73,20.78,30.34,25.41,28.97,2.2-.65,.63-4.48-1.23-27.71-.85-10.6-.88-14.26-.83-17.07,.21-11.27,.31-16.9,3.3-22.49C121.11,5.51,137.22,1.8,136.13,.39Z"/>
  <path class="cls-4" d="M171.12,63.33c-.16-1.94-29.05-12.91-44.03-4.88-4.33,2.32-7.65,6.32-8.91,7.83-1.49,1.79-4.9,6.25-6.64,12.41-3.36,11.91,.43,26.93,4.28,27.92,1.82,.47,2.51-2.51,11.93-17.55,4.3-6.87,5.96-9.13,7.3-10.85,5.34-6.86,8.01-10.29,12.66-12.54,10.61-5.14,23.5-1.04,23.4-2.33Z"/>
  <path class="cls-3" d="M95.64,105.84c3.72,.47,14.22-17.64,7.98-32.04-2.09-4.82-5.93-8.93-6.41-9.45-3.95-4.18-8.11-6.53-12.19-8.81-2.31-1.29-7.04-3.94-12.89-5.78-14.49-4.56-30.35-2.46-30.57-.59-.14,1.22,6.53,1.37,17.37,5.94,5.92,2.5,13.82,5.83,20.15,12.48,5.31,5.58,7.29,11.16,10.86,21.26,4.37,12.35,3.7,16.74,5.71,17Z"/>
  <path class="cls-2" d="M98.46,104.94c5.52,.13,24.93-26.98,18.34-46.43-2.21-6.5-7.19-11.77-7.82-12.43-5.15-5.35-10.96-8.06-16.66-10.7-3.23-1.49-9.85-4.55-18.32-6.31-20.97-4.36-45.33,.89-46.01,3.56-.45,1.74,9.59,.99,25.04,5.9,8.44,2.68,19.71,6.26,27.95,14.74,6.92,7.12,8.81,14.72,12.21,28.48,4.17,16.83,2.3,23.13,5.27,23.2Z"/>
  <line class="cls-5" x1="60.32" y1="112.16" x2="167.99" y2="201.29"/>
  <line class="cls-5" x1="50.24" y1="130.23" x2="153.75" y2="215.85"/>
  <line class="cls-5" x1="46.76" y1="156.97" x2="130.82" y2="224.76"/>
  <line class="cls-5" x1="74.56" y1="95.82" x2="176.67" y2="180.79"/>
  <line class="cls-5" x1="49.55" y1="183.76" x2="103.04" y2="225.95"/>
  <line class="cls-5" x1="101.68" y1="226.08" x2="176.42" y2="183.92"/>
  <line class="cls-5" x1="47.25" y1="152.45" x2="147.5" y2="92.85"/>
  <line class="cls-5" x1="48.16" y1="173.66" x2="160.99" y2="105.6"/>
  <line class="cls-5" x1="53.72" y1="195.05" x2="172.83" y2="122.76"/>
  <line class="cls-5" x1="64.14" y1="211.1" x2="179.97" y2="143.54"/>
  <line class="cls-5" x1="78.72" y1="220.6" x2="179.72" y2="163.14"/>
  <line class="cls-5" x1="127.01" y1="91.12" x2="179.45" y2="138.01"/>
</svg>