<?xml version="1.0" encoding="UTF-8"?>
<svg id="Layer_2" data-name="Layer 2" xmlns="http://www.w3.org/2000/svg" viewBox="0 0 230 230">
  <defs>
    <style>
      .cls-1 {
        fill: #ffb56a;
      }

      .cls-2 {
        fill: #8c6239;
      }

      .cls-3 {
        fill: #c8ff8a;
      }
    </style>
  </defs>
  <ellipse class="cls-3" cx="132.56" cy="18.67" rx="36.29" ry="8.44" transform="translate(3.88 55.57) rotate(-24.02)"/>
  <path class="cls-2" d="M105.13,63.41h0c-2.72,.16-5.06-1.83-5.22-4.45l-2.96-46.34c-.17-2.62,1.9-4.87,4.62-5.03h0c2.72-.16,5.06,1.83,5.22,4.45l2.96,46.34c.17,2.62-1.9,4.87-4.62,5.03Z"/>
  <path class="cls-1" d="M217.89,154.48c-6.21,55.54-56.98,77.55-114.64,71.57C45.6,220.07,2.89,188.37,9.1,132.83c6.21-55.54,57.97-95.71,115.63-89.74,57.66,5.98,99.36,55.84,93.16,111.38Z"/>
</svg>