<?xml version="1.0" encoding="UTF-8"?>
<svg id="Layer_2" data-name="Layer 2" xmlns="http://www.w3.org/2000/svg" viewBox="0 0 230 230">
  <defs>
    <style>
      .cls-1 {
        fill: #f6ff7f;
      }

      .cls-2 {
        fill: #f0df7f;
      }
    </style>
  </defs>
  <path class="cls-2" d="M23.92,52.59h0c-4.17,.39-7.98-2.81-8.5-7.17L11.33,11.63c-.53-4.35,2.43-8.2,6.6-8.59h0c4.17-.39,7.98,2.81,8.5,7.17l4.08,33.8c.53,4.35-2.43,8.2-6.6,8.59Z"/>
  <path class="cls-1" d="M226.82,201.1c1.16-3.78-1.07-5.46-5.7-7.31-2.87,1-5.78,1.05-8.24-.08-.38-.15-.76-.31-1.12-.51-.27-.15-.53-.28-.8-.43-2.78-1.4-5.64-2.61-8.58-3.64-1.65-.58-3.32-1.11-4.99-1.61-.97-.29-1.94-.57-2.91-.84,.33,.09,1.58,.43-.04-.01-3.07-.83-6.15-1.63-9.23-2.45-7.49-1.46-15.07-2.64-22.55-4.15-22.73-4.59-42.73-14.78-60.33-29.81-3.24-2.1-6.7-4.49-9.78-6.84-14.93-9.13-28.06-21.87-37.59-37.96-13.62-15.44-21.25-37.88-23.3-61.74-.78-2.56-.26-4.48-.98-7.08-1.73-2.68-13.11-2.1-15.69,0-3.23,2.64-11.38,14.39-12.88,32.85,0,0-1.56,19.19,.32,35.55,3,26.21,36.56,96.1,119.46,120.46,51.62,15.17,101.07-11.83,104.93-24.4Z"/>
  <path class="cls-2" d="M221.43,192.8h0c-4.21-.33-7.87,2.93-8.19,7.26h0c-.32,4.34,2.84,8.12,7.04,8.44h0c4.21,.33,7.87-2.93,8.19-7.26h0c.32-4.34-2.84-8.12-7.04-8.44Z"/>
</svg>