<?xml version="1.0" encoding="UTF-8"?>
<svg id="Layer_2" data-name="Layer 2" xmlns="http://www.w3.org/2000/svg" viewBox="0 0 230 230">
  <defs>
    <style>
      .cls-1 {
        fill: #fff4fd;
      }

      .cls-2 {
        fill: #ff8ad2;
      }

      .cls-3 {
        fill: #4d4d4d;
      }
    </style>
  </defs>
  <ellipse class="cls-3" cx="187.91" cy="127.18" rx="2.49" ry="3.01" transform="translate(-22.43 212.27) rotate(-56.11)"/>
  <ellipse class="cls-3" cx="187.91" cy="127.18" rx="2.49" ry="3.01" transform="translate(-22.43 212.27) rotate(-56.11)"/>
  <path class="cls-2" d="M207,120.2c0,55.77-38.73,109.8-86.5,109.8S34,175.97,34,120.2,72.73,6,120.5,6s86.5,58.44,86.5,114.2Z"/>
  <path class="cls-1" d="M197.86,119.8c0,52.12-34.68,102.62-77.45,102.62S42.95,171.92,42.95,119.8,77.63,13.06,120.4,13.06s77.45,54.62,77.45,106.74Z"/>
  <ellipse class="cls-3" cx="150.55" cy="82.45" rx="1.46" ry="2.1" transform="translate(-12.29 136.73) rotate(-47.14)"/>
  <ellipse class="cls-3" cx="131.57" cy="74.83" rx="1.46" ry="2.1" transform="translate(-12.78 120.38) rotate(-47.14)"/>
  <ellipse class="cls-3" cx="96.2" cy="87.48" rx="1.46" ry="2.1" transform="translate(-33.36 98.49) rotate(-47.14)"/>
  <ellipse class="cls-3" cx="144.9" cy="86.19" rx="1.46" ry="2.1" transform="translate(-16.84 133.78) rotate(-47.14)"/>
  <ellipse class="cls-3" cx="133.25" cy="94.47" rx="1.46" ry="2.1" transform="translate(-26.63 127.89) rotate(-47.14)"/>
  <ellipse class="cls-3" cx="136.87" cy="85.9" rx="1.46" ry="2.1" transform="translate(-19.19 127.81) rotate(-47.14)"/>
  <ellipse class="cls-3" cx="130.32" cy="82.76" rx="1.46" ry="2.1" transform="translate(-18.99 122) rotate(-47.14)"/>
  <ellipse class="cls-3" cx="143" cy="79.59" rx="1.46" ry="2.1" transform="translate(-12.61 130.28) rotate(-47.14)"/>
  <ellipse class="cls-3" cx="141.11" cy="91.13" rx="1.46" ry="2.1" transform="translate(-21.67 132.59) rotate(-47.14)"/>
  <ellipse class="cls-3" cx="124.38" cy="75.3" rx="1.46" ry="2.1" transform="translate(-15.42 115.26) rotate(-47.14)"/>
  <ellipse class="cls-3" cx="137.38" cy="79.39" rx="1.46" ry="2.1" transform="translate(-14.26 126.1) rotate(-47.14)"/>
  <ellipse class="cls-3" cx="124.7" cy="82.56" rx="1.46" ry="2.1" transform="translate(-20.64 117.82) rotate(-47.14)"/>
  <ellipse class="cls-3" cx="121.14" cy="92.59" rx="1.46" ry="2.1" transform="translate(-29.13 118.41) rotate(-47.14)"/>
  <ellipse class="cls-3" cx="138.7" cy="72.91" rx="1.46" ry="2.1" transform="translate(-9.09 124.99) rotate(-47.14)"/>
  <ellipse class="cls-3" cx="174.4" cy="98.61" rx="1.46" ry="2.1" transform="translate(-16.51 159.38) rotate(-47.14)"/>
  <ellipse class="cls-3" cx="155.41" cy="90.99" rx="1.46" ry="2.1" transform="translate(-16.99 143.03) rotate(-47.14)"/>
  <ellipse class="cls-3" cx="152.85" cy="105.4" rx="1.46" ry="2.1" transform="translate(-28.38 145.76) rotate(-47.14)"/>
  <ellipse class="cls-3" cx="168.74" cy="102.34" rx="1.46" ry="2.1" transform="translate(-21.05 156.43) rotate(-47.14)"/>
  <ellipse class="cls-3" cx="157.09" cy="110.62" rx="1.46" ry="2.1" transform="translate(-30.85 150.54) rotate(-47.14)"/>
  <ellipse class="cls-3" cx="160.72" cy="102.05" rx="1.46" ry="2.1" transform="translate(-23.41 150.45) rotate(-47.14)"/>
  <ellipse class="cls-3" cx="154.17" cy="98.92" rx="1.46" ry="2.1" transform="translate(-23.21 144.65) rotate(-47.14)"/>
  <ellipse class="cls-3" cx="166.85" cy="95.75" rx="1.46" ry="2.1" transform="translate(-16.83 152.93) rotate(-47.14)"/>
  <ellipse class="cls-3" cx="164.96" cy="107.28" rx="1.46" ry="2.1" transform="translate(-25.88 155.23) rotate(-47.14)"/>
  <ellipse class="cls-3" cx="148.22" cy="91.46" rx="1.46" ry="2.1" transform="translate(-19.64 137.9) rotate(-47.14)"/>
  <ellipse class="cls-3" cx="161.23" cy="95.55" rx="1.46" ry="2.1" transform="translate(-18.48 148.75) rotate(-47.14)"/>
  <ellipse class="cls-3" cx="148.55" cy="98.72" rx="1.46" ry="2.1" transform="translate(-24.86 140.46) rotate(-47.14)"/>
  <ellipse class="cls-3" cx="110.06" cy="134.58" rx="1.42" ry="2.16" transform="translate(-61.26 164.15) rotate(-60.52)"/>
  <ellipse class="cls-3" cx="162.54" cy="89.07" rx="1.46" ry="2.1" transform="translate(-13.31 147.64) rotate(-47.14)"/>
  <ellipse class="cls-3" cx="115.16" cy="115.26" rx="1.42" ry="2.16" transform="translate(-41.85 158.78) rotate(-60.52)"/>
  <ellipse class="cls-3" cx="135.7" cy="118.37" rx="1.42" ry="2.16" transform="translate(-34.12 178.24) rotate(-60.52)"/>
  <ellipse class="cls-3" cx="134.06" cy="103.85" rx="1.42" ry="2.16" transform="translate(-22.32 169.44) rotate(-60.52)"/>
  <ellipse class="cls-3" cx="118.56" cy="108.62" rx="1.42" ry="2.16" transform="translate(-34.34 158.37) rotate(-60.52)"/>
  <ellipse class="cls-3" cx="130.45" cy="98.87" rx="1.42" ry="2.16" transform="translate(-19.82 163.77) rotate(-60.52)"/>
  <ellipse class="cls-3" cx="124.42" cy="108.85" rx="1.42" ry="2.16" transform="translate(-31.57 163.59) rotate(-60.52)"/>
  <ellipse class="cls-3" cx="134.64" cy="110.41" rx="1.42" ry="2.16" transform="translate(-27.74 173.28) rotate(-60.52)"/>
  <ellipse class="cls-3" cx="121.81" cy="104.75" rx="1.42" ry="2.16" transform="translate(-29.33 159.23) rotate(-60.52)"/>
  <ellipse class="cls-3" cx="142.52" cy="116.3" rx="1.42" ry="2.16" transform="translate(-28.86 183.13) rotate(-60.52)"/>
  <ellipse class="cls-3" cx="128.77" cy="115.26" rx="1.42" ry="2.16" transform="translate(-34.94 170.63) rotate(-60.52)"/>
  <ellipse class="cls-3" cx="140.13" cy="109.34" rx="1.42" ry="2.16" transform="translate(-24.02 177.52) rotate(-60.52)"/>
  <ellipse class="cls-3" cx="140.71" cy="98.85" rx="1.42" ry="2.16" transform="translate(-14.59 172.69) rotate(-60.52)"/>
  <ellipse class="cls-3" cx="129.35" cy="121.83" rx="1.42" ry="2.16" transform="translate(-40.36 174.47) rotate(-60.52)"/>
  <ellipse class="cls-3" cx="143.69" cy="104.59" rx="1.42" ry="2.16" transform="translate(-18.08 178.2) rotate(-60.52)"/>
  <ellipse class="cls-3" cx="113.44" cy="109.35" rx="1.42" ry="2.16" transform="translate(-37.58 154.29) rotate(-60.52)"/>
  <ellipse class="cls-3" cx="146.25" cy="94.36" rx="1.42" ry="2.16" transform="translate(-7.86 175.23) rotate(-60.52)"/>
  <ellipse class="cls-3" cx="123.38" cy="85.54" rx="1.42" ry="2.16" transform="translate(-11.8 150.85) rotate(-60.52)"/>
  <ellipse class="cls-3" cx="115.43" cy="103.18" rx="1.42" ry="2.16" transform="translate(-31.19 152.88) rotate(-60.52)"/>
  <ellipse class="cls-3" cx="115.43" cy="82.01" rx="1.42" ry="2.16" transform="translate(-12.77 142.13) rotate(-60.52)"/>
  <ellipse class="cls-3" cx="149.23" cy="108.47" rx="1.42" ry="2.16" transform="translate(-18.63 185) rotate(-60.52)"/>
  <ellipse class="cls-3" cx="148.24" cy="111.99" rx="1.42" ry="2.16" transform="translate(-22.21 185.92) rotate(-60.52)"/>
  <ellipse class="cls-3" cx="113.44" cy="89.95" rx="1.42" ry="2.16" transform="translate(-20.69 144.43) rotate(-60.52)"/>
  <ellipse class="cls-3" cx="120.4" cy="97.88" rx="1.42" ry="2.16" transform="translate(-24.06 154.52) rotate(-60.52)"/>
  <ellipse class="cls-3" cx="126.37" cy="92.59" rx="1.42" ry="2.16" transform="translate(-16.43 157.03) rotate(-60.52)"/>
  <ellipse class="cls-3" cx="109.46" cy="96.12" rx="1.42" ry="2.16" transform="translate(-28.08 144.11) rotate(-60.52)"/>
  <ellipse class="cls-3" cx="134.32" cy="89.95" rx="1.42" ry="2.16" transform="translate(-10.08 162.61) rotate(-60.52)"/>
  <ellipse class="cls-3" cx="111.45" cy="105.82" rx="1.42" ry="2.16" transform="translate(-35.52 150.76) rotate(-60.52)"/>
  <ellipse class="cls-3" cx="115.43" cy="99.65" rx="1.42" ry="2.16" transform="translate(-28.12 151.09) rotate(-60.52)"/>
  <ellipse class="cls-3" cx="108.47" cy="91.71" rx="1.42" ry="2.16" transform="translate(-24.75 141) rotate(-60.52)"/>
  <ellipse class="cls-3" cx="126.37" cy="100.53" rx="1.42" ry="2.16" transform="translate(-23.34 161.06) rotate(-60.52)"/>
  <ellipse class="cls-3" cx="126.37" cy="100.53" rx="1.42" ry="2.16" transform="translate(-23.34 161.06) rotate(-60.52)"/>
  <ellipse class="cls-3" cx="126.37" cy="100.53" rx="1.42" ry="2.16" transform="translate(-23.34 161.06) rotate(-60.52)"/>
  <ellipse class="cls-3" cx="126.37" cy="100.53" rx="1.42" ry="2.16" transform="translate(-23.34 161.06) rotate(-60.52)"/>
  <ellipse class="cls-3" cx="126.37" cy="100.53" rx="1.42" ry="2.16" transform="translate(-23.34 161.06) rotate(-60.52)"/>
  <ellipse class="cls-3" cx="126.37" cy="100.53" rx="1.42" ry="2.16" transform="translate(-23.34 161.06) rotate(-60.52)"/>
  <ellipse class="cls-3" cx="126.37" cy="100.53" rx="1.42" ry="2.16" transform="translate(-23.34 161.06) rotate(-60.52)"/>
  <ellipse class="cls-3" cx="116.42" cy="86.42" rx="1.42" ry="2.16" transform="translate(-16.1 145.24) rotate(-60.52)"/>
  <ellipse class="cls-3" cx="95" cy="90.72" rx="1.5" ry="2.15" transform="translate(-36.35 89.35) rotate(-43.08)"/>
  <ellipse class="cls-3" cx="107.33" cy="100" rx="1.5" ry="2.15" transform="translate(-39.37 100.28) rotate(-43.08)"/>
  <ellipse class="cls-3" cx="99.31" cy="100.58" rx="1.5" ry="2.15" transform="translate(-41.93 94.95) rotate(-43.08)"/>
  <ellipse class="cls-3" cx="93.75" cy="99.05" rx="1.5" ry="2.15" transform="translate(-42.38 90.74) rotate(-43.08)"/>
  <ellipse class="cls-3" cx="104.54" cy="107.84" rx="1.5" ry="2.15" transform="translate(-45.47 100.48) rotate(-43.08)"/>
  <ellipse class="cls-3" cx="87.81" cy="91.21" rx="1.5" ry="2.15" transform="translate(-38.63 84.57) rotate(-43.08)"/>
  <ellipse class="cls-3" cx="100.81" cy="95.51" rx="1.5" ry="2.15" transform="translate(-38.06 94.61) rotate(-43.08)"/>
  <ellipse class="cls-3" cx="88.13" cy="98.84" rx="1.5" ry="2.15" transform="translate(-43.75 86.85) rotate(-43.08)"/>
  <ellipse class="cls-3" cx="102.13" cy="88.7" rx="1.5" ry="2.15" transform="translate(-33.05 93.67) rotate(-43.08)"/>
  <ellipse class="cls-3" cx="137.82" cy="115.7" rx="1.5" ry="2.15" transform="translate(-41.87 125.33) rotate(-43.08)"/>
  <ellipse class="cls-3" cx="116.28" cy="122.84" rx="1.5" ry="2.15" transform="translate(-52.55 112.54) rotate(-43.08)"/>
  <ellipse class="cls-3" cx="110.3" cy="117.86" rx="1.5" ry="2.15" transform="translate(-50.76 107.11) rotate(-43.08)"/>
  <ellipse class="cls-3" cx="121.51" cy="124.8" rx="1.5" ry="2.15" transform="translate(-52.48 116.65) rotate(-43.08)"/>
  <ellipse class="cls-3" cx="124.14" cy="119.32" rx="1.5" ry="2.15" transform="translate(-48.03 116.97) rotate(-43.08)"/>
  <ellipse class="cls-3" cx="130.27" cy="110.93" rx="1.5" ry="2.15" transform="translate(-40.65 118.89) rotate(-43.08)"/>
  <ellipse class="cls-3" cx="101.54" cy="138.93" rx="1.5" ry="2.15" transform="translate(-67.51 106.81) rotate(-43.08)"/>
  <ellipse class="cls-3" cx="120.68" cy="114.25" rx="1.5" ry="2.15" transform="translate(-45.5 113.23) rotate(-43.08)"/>
  <ellipse class="cls-3" cx="127.96" cy="105.68" rx="1.5" ry="2.15" transform="translate(-37.68 115.89) rotate(-43.08)"/>
  <ellipse class="cls-3" cx="103.96" cy="131.64" rx="1.47" ry="2.19" transform="translate(-62.98 148) rotate(-57.3)"/>
  <ellipse class="cls-3" cx="103.56" cy="126.98" rx="1.47" ry="2.19" transform="translate(-59.25 145.52) rotate(-57.3)"/>
  <ellipse class="cls-3" cx="104.14" cy="115.96" rx="1.47" ry="2.19" transform="translate(-49.7 140.94) rotate(-57.3)"/>
  <ellipse class="cls-3" cx="107.12" cy="121.99" rx="1.47" ry="2.19" transform="translate(-53.41 146.22) rotate(-57.3)"/>
  <ellipse class="cls-3" cx="109.68" cy="111.23" rx="1.47" ry="2.19" transform="translate(-43.18 143.43) rotate(-57.3)"/>
  <ellipse class="cls-3" cx="91.78" cy="94.91" rx="1.47" ry="2.19" transform="translate(-37.67 120.87) rotate(-57.3)"/>
  <ellipse class="cls-3" cx="78.86" cy="98.26" rx="1.47" ry="2.19" transform="translate(-46.43 111.53) rotate(-57.3)"/>
  <ellipse class="cls-3" cx="115.64" cy="126.94" rx="1.47" ry="2.19" transform="translate(-53.66 155.67) rotate(-57.3)"/>
  <ellipse class="cls-3" cx="111.67" cy="129.77" rx="1.47" ry="2.19" transform="translate(-57.86 153.63) rotate(-57.3)"/>
  <ellipse class="cls-3" cx="79.85" cy="102.9" rx="1.47" ry="2.19" transform="translate(-49.88 114.5) rotate(-57.3)"/>
  <ellipse class="cls-3" cx="82.72" cy="89.74" rx="1.46" ry="2.1" transform="translate(-39.33 89.34) rotate(-47.14)"/>
  <ellipse class="cls-3" cx="69.71" cy="95.35" rx="1.46" ry="2.1" transform="translate(-47.6 81.59) rotate(-47.14)"/>
  <ellipse class="cls-3" cx="83.05" cy="43.61" rx="1.46" ry="2.1" transform="translate(-5.41 74.83) rotate(-47.14)"/>
  <ellipse class="cls-3" cx="82.13" cy="95.7" rx="1.46" ry="2.1" transform="translate(-43.88 90.81) rotate(-47.14)"/>
  <ellipse class="cls-3" cx="56.55" cy="74.65" rx="1.46" ry="2.1" transform="translate(-36.63 65.33) rotate(-47.14)"/>
  <ellipse class="cls-3" cx="75.52" cy="99.9" rx="1.46" ry="2.1" transform="translate(-49.08 87.31) rotate(-47.14)"/>
  <ellipse class="cls-3" cx="111.56" cy="38.7" rx="1.46" ry="2.1" transform="translate(7.31 94.15) rotate(-47.14)"/>
  <ellipse class="cls-3" cx="108" cy="48.72" rx="1.46" ry="2.1" transform="translate(-1.17 94.75) rotate(-47.14)"/>
  <ellipse class="cls-3" cx="76.83" cy="93.43" rx="1.46" ry="2.1" transform="translate(-43.91 86.2) rotate(-47.14)"/>
  <ellipse class="cls-3" cx="97.62" cy="175.56" rx="1.46" ry="2.1" transform="translate(-97.47 127.71) rotate(-47.14)"/>
  <ellipse class="cls-3" cx="76.06" cy="138.73" rx="1.46" ry="2.1" transform="translate(-77.37 100.12) rotate(-47.14)"/>
  <ellipse class="cls-3" cx="104.98" cy="116.26" rx="1.46" ry="2.1" transform="translate(-51.65 114.14) rotate(-47.14)"/>
  <ellipse class="cls-3" cx="71.28" cy="141.9" rx="1.46" ry="2.1" transform="translate(-81.22 97.63) rotate(-47.14)"/>
  <ellipse class="cls-3" cx="70.07" cy="89.84" rx="1.42" ry="2.16" transform="translate(-42.62 106.62) rotate(-60.52)"/>
  <ellipse class="cls-3" cx="102.01" cy="71.4" rx="1.42" ry="2.16" transform="translate(-10.34 125.06) rotate(-60.52)"/>
  <ellipse class="cls-3" cx="106.41" cy="66.52" rx="1.42" ry="2.16" transform="translate(-3.86 126.41) rotate(-60.52)"/>
  <ellipse class="cls-3" cx="111.28" cy="64.99" rx="1.42" ry="2.16" transform="translate(-.06 129.87) rotate(-60.52)"/>
  <ellipse class="cls-3" cx="108.66" cy="60.89" rx="1.42" ry="2.16" transform="translate(2.18 125.51) rotate(-60.52)"/>
  <ellipse class="cls-3" cx="100.3" cy="65.48" rx="1.42" ry="2.16" transform="translate(-6.07 120.57) rotate(-60.52)"/>
  <ellipse class="cls-3" cx="110.24" cy="41.67" rx="1.42" ry="2.16" transform="translate(19.71 117.13) rotate(-60.52)"/>
  <ellipse class="cls-3" cx="102.29" cy="59.31" rx="1.42" ry="2.16" transform="translate(.32 119.16) rotate(-60.52)"/>
  <ellipse class="cls-3" cx="85.38" cy="64.6" rx="1.42" ry="2.16" transform="translate(-12.87 107.14) rotate(-60.52)"/>
  <ellipse class="cls-3" cx="102.29" cy="38.14" rx="1.42" ry="2.16" transform="translate(18.74 108.41) rotate(-60.52)"/>
  <ellipse class="cls-3" cx="100.3" cy="46.08" rx="1.42" ry="2.16" transform="translate(10.82 110.71) rotate(-60.52)"/>
  <ellipse class="cls-3" cx="107.26" cy="54.02" rx="1.42" ry="2.16" transform="translate(7.45 120.8) rotate(-60.52)"/>
  <ellipse class="cls-3" cx="113.22" cy="48.73" rx="1.42" ry="2.16" transform="translate(15.08 123.31) rotate(-60.52)"/>
  <ellipse class="cls-3" cx="96.32" cy="52.25" rx="1.42" ry="2.16" transform="translate(3.43 110.39) rotate(-60.52)"/>
  <ellipse class="cls-3" cx="98.31" cy="61.96" rx="1.42" ry="2.16" transform="translate(-4.01 117.04) rotate(-60.52)"/>
  <ellipse class="cls-3" cx="102.29" cy="55.78" rx="1.42" ry="2.16" transform="translate(3.39 117.37) rotate(-60.52)"/>
  <ellipse class="cls-3" cx="95.33" cy="47.84" rx="1.42" ry="2.16" transform="translate(6.76 107.28) rotate(-60.52)"/>
  <ellipse class="cls-3" cx="113.22" cy="56.66" rx="1.42" ry="2.16" transform="translate(8.17 127.34) rotate(-60.52)"/>
  <ellipse class="cls-3" cx="113.22" cy="56.66" rx="1.42" ry="2.16" transform="translate(8.17 127.34) rotate(-60.52)"/>
  <ellipse class="cls-3" cx="113.22" cy="56.66" rx="1.42" ry="2.16" transform="translate(8.17 127.34) rotate(-60.52)"/>
  <ellipse class="cls-3" cx="113.22" cy="56.66" rx="1.42" ry="2.16" transform="translate(8.17 127.34) rotate(-60.52)"/>
  <ellipse class="cls-3" cx="113.22" cy="56.66" rx="1.42" ry="2.16" transform="translate(8.17 127.34) rotate(-60.52)"/>
  <ellipse class="cls-3" cx="113.22" cy="56.66" rx="1.42" ry="2.16" transform="translate(8.17 127.34) rotate(-60.52)"/>
  <ellipse class="cls-3" cx="113.22" cy="56.66" rx="1.42" ry="2.16" transform="translate(8.17 127.34) rotate(-60.52)"/>
  <ellipse class="cls-3" cx="103.28" cy="42.55" rx="1.42" ry="2.16" transform="translate(15.41 111.52) rotate(-60.52)"/>
  <ellipse class="cls-3" cx="80.86" cy="53.03" rx="1.5" ry="2.15" transform="translate(-14.42 69.53) rotate(-43.08)"/>
  <ellipse class="cls-3" cx="94.19" cy="56.14" rx="1.5" ry="2.15" transform="translate(-12.95 79.47) rotate(-43.08)"/>
  <ellipse class="cls-3" cx="83.53" cy="67.49" rx="1.5" ry="2.15" transform="translate(-23.57 75.25) rotate(-43.08)"/>
  <ellipse class="cls-3" cx="87.16" cy="58.48" rx="1.5" ry="2.15" transform="translate(-16.45 75.3) rotate(-43.08)"/>
  <ellipse class="cls-3" cx="79.61" cy="60.48" rx="1.5" ry="2.15" transform="translate(-19.84 70.68) rotate(-43.08)"/>
  <ellipse class="cls-3" cx="91.4" cy="63.97" rx="1.5" ry="2.15" transform="translate(-19.05 79.68) rotate(-43.08)"/>
  <ellipse class="cls-3" cx="65.83" cy="154.68" rx="1.41" ry="2.29" transform="translate(-101.37 172.09) rotate(-72.89)"/>
  <ellipse class="cls-3" cx="116.5" cy="78.1" rx="1.5" ry="2.15" transform="translate(-21.94 100.63) rotate(-43.08)"/>
  <ellipse class="cls-3" cx="70.88" cy="160.86" rx="1.41" ry="2.29" transform="translate(-103.71 181.28) rotate(-72.89)"/>
  <ellipse class="cls-3" cx="74.53" cy="171.37" rx="1.41" ry="2.29" transform="translate(-111.18 192.18) rotate(-72.89)"/>
  <ellipse class="cls-3" cx="88.98" cy="44.84" rx="1.5" ry="2.15" transform="translate(-6.63 72.87) rotate(-43.08)"/>
  <ellipse class="cls-3" cx="103.14" cy="78.97" rx="1.5" ry="2.15" transform="translate(-26.13 91.74) rotate(-43.08)"/>
  <ellipse class="cls-3" cx="97.15" cy="73.99" rx="1.5" ry="2.15" transform="translate(-24.35 86.31) rotate(-43.08)"/>
  <ellipse class="cls-3" cx="108.37" cy="80.93" rx="1.5" ry="2.15" transform="translate(-26.06 95.84) rotate(-43.08)"/>
  <ellipse class="cls-3" cx="111" cy="75.46" rx="1.5" ry="2.15" transform="translate(-21.61 96.16) rotate(-43.08)"/>
  <ellipse class="cls-3" cx="107.53" cy="70.38" rx="1.5" ry="2.15" transform="translate(-19.08 92.43) rotate(-43.08)"/>
  <ellipse class="cls-3" cx="91.46" cy="195" rx="1.41" ry="2.29" transform="translate(-111.95 265.84) rotate(-84.07)"/>
  <ellipse class="cls-3" cx="59.14" cy="91.71" rx="1.47" ry="2.19" transform="translate(-49.99 91.93) rotate(-57.3)"/>
  <ellipse class="cls-3" cx="84.34" cy="77.35" rx="1.47" ry="2.19" transform="translate(-26.31 106.53) rotate(-57.3)"/>
  <ellipse class="cls-3" cx="84.94" cy="187.69" rx="1.41" ry="2.29" transform="translate(-110.52 252.79) rotate(-84.07)"/>
  <ellipse class="cls-3" cx="80.73" cy="72.11" rx="1.47" ry="2.19" transform="translate(-23.56 101.09) rotate(-57.3)"/>
  <ellipse class="cls-3" cx="87.97" cy="183.96" rx="1.41" ry="2.29" transform="translate(-104.08 252.47) rotate(-84.07)"/>
  <ellipse class="cls-3" cx="84.92" cy="84.24" rx="1.47" ry="2.19" transform="translate(-31.85 110.19) rotate(-57.3)"/>
  <ellipse class="cls-3" cx="91.95" cy="191.05" rx="1.41" ry="2.29" transform="translate(-107.57 262.78) rotate(-84.07)"/>
  <ellipse class="cls-3" cx="83.1" cy="181.66" rx="1.41" ry="2.29" transform="translate(-106.17 245.56) rotate(-84.07)"/>
  <ellipse class="cls-3" cx="63.97" cy="86.89" rx="1.47" ry="2.19" transform="translate(-43.71 93.78) rotate(-57.3)"/>
  <ellipse class="cls-3" cx="52.21" cy="88.46" rx="1.47" ry="2.19" transform="translate(-50.43 84.6) rotate(-57.3)"/>
  <ellipse class="cls-3" cx="90.41" cy="83.12" rx="1.47" ry="2.19" transform="translate(-28.38 114.3) rotate(-57.3)"/>
  <ellipse class="cls-3" cx="90.99" cy="72.09" rx="1.47" ry="2.19" transform="translate(-18.83 109.71) rotate(-57.3)"/>
  <ellipse class="cls-3" cx="52.79" cy="95.35" rx="1.47" ry="2.19" transform="translate(-55.97 88.26) rotate(-57.3)"/>
  <ellipse class="cls-3" cx="93.97" cy="78.12" rx="1.47" ry="2.19" transform="translate(-22.54 114.99) rotate(-57.3)"/>
  <ellipse class="cls-3" cx="79.18" cy="189.8" rx="1.41" ry="2.29" transform="translate(-117.79 248.96) rotate(-84.07)"/>
  <ellipse class="cls-3" cx="96.54" cy="67.37" rx="1.47" ry="2.19" transform="translate(-12.31 112.21) rotate(-57.3)"/>
  <ellipse class="cls-3" cx="71.75" cy="164.11" rx="1.41" ry="2.29" transform="translate(-98.89 218.53) rotate(-84.07)"/>
  <ellipse class="cls-3" cx="76.76" cy="183.43" rx="1.41" ry="2.29" transform="translate(-113.62 240.84) rotate(-84.07)"/>
  <ellipse class="cls-3" cx="62.81" cy="164.95" rx="1.41" ry="2.29" transform="translate(-107.74 210.4) rotate(-84.07)"/>
  <ellipse class="cls-3" cx="99.52" cy="82.2" rx="1.47" ry="2.19" transform="translate(-23.41 121.53) rotate(-57.3)"/>
  <ellipse class="cls-3" cx="71.68" cy="85.02" rx="1.47" ry="2.19" transform="translate(-38.59 99.4) rotate(-57.3)"/>
  <ellipse class="cls-3" cx="66.39" cy="172.86" rx="1.41" ry="2.29" transform="translate(-112.4 221.05) rotate(-84.07)"/>
  <ellipse class="cls-3" cx="77.4" cy="176.36" rx="1.41" ry="2.29" transform="translate(-106 235.14) rotate(-84.07)"/>
  <ellipse class="cls-3" cx="76.65" cy="65.52" rx="1.47" ry="2.19" transform="translate(-19.89 94.62) rotate(-57.3)"/>
  <ellipse class="cls-3" cx="67.15" cy="180.22" rx="1.41" ry="2.29" transform="translate(-119.03 228.4) rotate(-84.07)"/>
  <ellipse class="cls-3" cx="73.21" cy="187.71" rx="1.41" ry="2.29" transform="translate(-121.05 241.14) rotate(-84.07)"/>
  <ellipse class="cls-3" cx="74.44" cy="180.35" rx="1.41" ry="2.29" transform="translate(-112.64 235.77) rotate(-84.07)"/>
  <ellipse class="cls-3" cx="63.42" cy="176.86" rx="1.41" ry="2.29" transform="translate(-119.04 221.68) rotate(-84.07)"/>
  <ellipse class="cls-3" cx="76.65" cy="73.86" rx="1.47" ry="2.19" transform="translate(-26.91 98.45) rotate(-57.3)"/>
  <ellipse class="cls-3" cx="76.65" cy="73.86" rx="1.47" ry="2.19" transform="translate(-26.91 98.45) rotate(-57.3)"/>
  <ellipse class="cls-3" cx="76.65" cy="73.86" rx="1.47" ry="2.19" transform="translate(-26.91 98.45) rotate(-57.3)"/>
  <ellipse class="cls-3" cx="76.65" cy="73.86" rx="1.47" ry="2.19" transform="translate(-26.91 98.45) rotate(-57.3)"/>
  <ellipse class="cls-3" cx="76.65" cy="73.86" rx="1.47" ry="2.19" transform="translate(-26.91 98.45) rotate(-57.3)"/>
  <ellipse class="cls-3" cx="76.65" cy="73.86" rx="1.47" ry="2.19" transform="translate(-26.91 98.45) rotate(-57.3)"/>
  <ellipse class="cls-3" cx="76.65" cy="73.86" rx="1.47" ry="2.19" transform="translate(-26.91 98.45) rotate(-57.3)"/>
  <ellipse class="cls-3" cx="66.55" cy="168.31" rx="1.41" ry="2.29" transform="translate(-107.74 217.12) rotate(-84.07)"/>
  <ellipse class="cls-3" cx="66.73" cy="114.95" rx="1.52" ry="2.11" transform="translate(-51.79 54.79) rotate(-32.95)"/>
  <ellipse class="cls-3" cx="65.67" cy="122.52" rx="1.52" ry="2.11" transform="translate(-56.08 55.43) rotate(-32.95)"/>
  <ellipse class="cls-3" cx="60.24" cy="132.41" rx="1.52" ry="2.11" transform="translate(-62.33 54.07) rotate(-32.95)"/>
  <ellipse class="cls-3" cx="54.42" cy="159.93" rx="1.5" ry="2.15" transform="translate(-101.78 95.58) rotate(-48.82)"/>
  <ellipse class="cls-3" cx="55.29" cy="150.64" rx="1.5" ry="2.15" transform="translate(-94.49 93.06) rotate(-48.82)"/>
  <ellipse class="cls-3" cx="60.38" cy="149.75" rx="1.5" ry="2.15" transform="translate(-92.08 96.58) rotate(-48.82)"/>
  <ellipse class="cls-3" cx="57.82" cy="157.34" rx="1.5" ry="2.15" transform="translate(-98.67 97.25) rotate(-48.82)"/>
  <ellipse class="cls-3" cx="58.58" cy="145.12" rx="1.5" ry="2.15" transform="translate(-89.21 93.65) rotate(-48.82)"/>
  <ellipse class="cls-3" cx="49.45" cy="148.69" rx="1.5" ry="2.15" transform="translate(-95.02 88) rotate(-48.82)"/>
  <ellipse class="cls-3" cx="63.8" cy="125.42" rx="1.5" ry="2.15" transform="translate(-72.6 90.85) rotate(-48.82)"/>
  <ellipse class="cls-3" cx="52.59" cy="142.58" rx="1.5" ry="2.15" transform="translate(-89.34 88.27) rotate(-48.82)"/>
  <ellipse class="cls-3" cx="56.62" cy="120.63" rx="1.5" ry="2.15" transform="translate(-71.45 83.81) rotate(-48.82)"/>
  <ellipse class="cls-3" cx="53.15" cy="128.57" rx="1.5" ry="2.15" transform="translate(-78.61 83.91) rotate(-48.82)"/>
  <ellipse class="cls-3" cx="58.5" cy="137.8" rx="1.5" ry="2.15" transform="translate(-83.73 91.09) rotate(-48.82)"/>
  <ellipse class="cls-3" cx="48.04" cy="134.41" rx="1.5" ry="2.15" transform="translate(-84.75 82.06) rotate(-48.82)"/>
  <ellipse class="cls-3" cx="48.16" cy="144.75" rx="1.5" ry="2.15" transform="translate(-92.49 85.68) rotate(-48.82)"/>
  <ellipse class="cls-3" cx="53.26" cy="138.92" rx="1.5" ry="2.15" transform="translate(-86.36 87.53) rotate(-48.82)"/>
  <ellipse class="cls-3" cx="47.9" cy="129.69" rx="1.5" ry="2.15" transform="translate(-81.25 80.35) rotate(-48.82)"/>
  <ellipse class="cls-3" cx="56.76" cy="125.34" rx="1.5" ry="2.15" transform="translate(-74.95 85.53) rotate(-48.82)"/>
  <ellipse class="cls-3" cx="147.37" cy="28.59" rx="1.46" ry="2.1" transform="translate(26.17 117.17) rotate(-47.14)"/>
  <ellipse class="cls-3" cx="128.39" cy="20.97" rx="1.46" ry="2.1" transform="translate(25.69 100.82) rotate(-47.14)"/>
  <ellipse class="cls-3" cx="141.72" cy="32.32" rx="1.46" ry="2.1" transform="translate(21.63 114.22) rotate(-47.14)"/>
  <ellipse class="cls-3" cx="130.07" cy="40.61" rx="1.46" ry="2.1" transform="translate(11.83 108.33) rotate(-47.14)"/>
  <ellipse class="cls-3" cx="133.69" cy="32.04" rx="1.46" ry="2.1" transform="translate(19.27 108.25) rotate(-47.14)"/>
  <ellipse class="cls-3" cx="127.14" cy="28.9" rx="1.46" ry="2.1" transform="translate(19.48 102.44) rotate(-47.14)"/>
  <ellipse class="cls-3" cx="139.82" cy="25.73" rx="1.46" ry="2.1" transform="translate(25.86 110.72) rotate(-47.14)"/>
  <ellipse class="cls-3" cx="137.93" cy="37.26" rx="1.46" ry="2.1" transform="translate(16.8 113.03) rotate(-47.14)"/>
  <ellipse class="cls-3" cx="121.2" cy="21.44" rx="1.46" ry="2.1" transform="translate(23.05 95.7) rotate(-47.14)"/>
  <ellipse class="cls-3" cx="134.2" cy="25.53" rx="1.46" ry="2.1" transform="translate(24.21 106.54) rotate(-47.14)"/>
  <ellipse class="cls-3" cx="121.52" cy="28.7" rx="1.46" ry="2.1" transform="translate(17.83 98.26) rotate(-47.14)"/>
  <ellipse class="cls-3" cx="117.96" cy="38.72" rx="1.46" ry="2.1" transform="translate(9.34 98.86) rotate(-47.14)"/>
  <ellipse class="cls-3" cx="135.52" cy="19.05" rx="1.46" ry="2.1" transform="translate(29.38 105.43) rotate(-47.14)"/>
  <ellipse class="cls-3" cx="171.21" cy="44.75" rx="1.46" ry="2.1" transform="translate(21.96 139.82) rotate(-47.14)"/>
  <ellipse class="cls-3" cx="152.23" cy="37.13" rx="1.46" ry="2.1" transform="translate(21.47 123.47) rotate(-47.14)"/>
  <ellipse class="cls-3" cx="149.67" cy="51.53" rx="1.46" ry="2.1" transform="translate(10.09 126.2) rotate(-47.14)"/>
  <ellipse class="cls-3" cx="165.56" cy="48.48" rx="1.46" ry="2.1" transform="translate(17.41 136.87) rotate(-47.14)"/>
  <ellipse class="cls-3" cx="153.91" cy="56.76" rx="1.46" ry="2.1" transform="translate(7.61 130.98) rotate(-47.14)"/>
  <ellipse class="cls-3" cx="157.53" cy="48.19" rx="1.46" ry="2.1" transform="translate(15.06 130.89) rotate(-47.14)"/>
  <ellipse class="cls-3" cx="150.98" cy="45.06" rx="1.46" ry="2.1" transform="translate(15.26 125.09) rotate(-47.14)"/>
  <ellipse class="cls-3" cx="163.66" cy="41.89" rx="1.46" ry="2.1" transform="translate(21.64 133.37) rotate(-47.14)"/>
  <ellipse class="cls-3" cx="161.78" cy="53.42" rx="1.46" ry="2.1" transform="translate(12.58 135.67) rotate(-47.14)"/>
  <ellipse class="cls-3" cx="145.04" cy="37.59" rx="1.46" ry="2.1" transform="translate(18.83 118.34) rotate(-47.14)"/>
  <ellipse class="cls-3" cx="158.05" cy="41.68" rx="1.46" ry="2.1" transform="translate(19.99 129.19) rotate(-47.14)"/>
  <ellipse class="cls-3" cx="145.36" cy="44.86" rx="1.46" ry="2.1" transform="translate(13.61 120.9) rotate(-47.14)"/>
  <ellipse class="cls-3" cx="159.36" cy="35.21" rx="1.46" ry="2.1" transform="translate(25.16 128.08) rotate(-47.14)"/>
  <ellipse class="cls-3" cx="132.51" cy="64.5" rx="1.42" ry="2.16" transform="translate(11.15 148.11) rotate(-60.52)"/>
  <ellipse class="cls-3" cx="130.87" cy="49.99" rx="1.42" ry="2.16" transform="translate(22.95 139.32) rotate(-60.52)"/>
  <ellipse class="cls-3" cx="127.27" cy="45.01" rx="1.42" ry="2.16" transform="translate(25.46 133.64) rotate(-60.52)"/>
  <ellipse class="cls-3" cx="121.24" cy="54.99" rx="1.42" ry="2.16" transform="translate(13.7 133.47) rotate(-60.52)"/>
  <ellipse class="cls-3" cx="131.46" cy="56.55" rx="1.42" ry="2.16" transform="translate(17.53 143.15) rotate(-60.52)"/>
  <ellipse class="cls-3" cx="118.63" cy="50.89" rx="1.42" ry="2.16" transform="translate(15.94 129.11) rotate(-60.52)"/>
  <ellipse class="cls-3" cx="139.34" cy="62.43" rx="1.42" ry="2.16" transform="translate(16.41 153) rotate(-60.52)"/>
  <ellipse class="cls-3" cx="125.59" cy="61.4" rx="1.42" ry="2.16" transform="translate(10.33 140.51) rotate(-60.52)"/>
  <ellipse class="cls-3" cx="136.95" cy="55.48" rx="1.42" ry="2.16" transform="translate(21.25 147.39) rotate(-60.52)"/>
  <ellipse class="cls-3" cx="137.53" cy="44.99" rx="1.42" ry="2.16" transform="translate(30.68 142.57) rotate(-60.52)"/>
  <ellipse class="cls-3" cx="132.13" cy="59.14" rx="1.42" ry="2.16" transform="translate(15.62 145.06) rotate(-60.52)"/>
  <ellipse class="cls-3" cx="140.51" cy="50.73" rx="1.42" ry="2.16" transform="translate(27.2 148.07) rotate(-60.52)"/>
  <ellipse class="cls-3" cx="143.07" cy="40.49" rx="1.42" ry="2.16" transform="translate(37.41 145.11) rotate(-60.52)"/>
  <ellipse class="cls-3" cx="120.2" cy="31.68" rx="1.42" ry="2.16" transform="translate(33.47 120.72) rotate(-60.52)"/>
  <ellipse class="cls-3" cx="146.05" cy="54.61" rx="1.42" ry="2.16" transform="translate(26.64 154.87) rotate(-60.52)"/>
  <ellipse class="cls-3" cx="145.06" cy="58.13" rx="1.42" ry="2.16" transform="translate(23.06 155.8) rotate(-60.52)"/>
  <ellipse class="cls-3" cx="117.22" cy="44.02" rx="1.42" ry="2.16" transform="translate(21.21 124.4) rotate(-60.52)"/>
  <ellipse class="cls-3" cx="123.18" cy="38.73" rx="1.42" ry="2.16" transform="translate(28.84 126.9) rotate(-60.52)"/>
  <ellipse class="cls-3" cx="131.14" cy="36.09" rx="1.42" ry="2.16" transform="translate(35.19 132.48) rotate(-60.52)"/>
  <ellipse class="cls-3" cx="123.18" cy="46.67" rx="1.42" ry="2.16" transform="translate(21.93 130.93) rotate(-60.52)"/>
  <ellipse class="cls-3" cx="123.18" cy="46.67" rx="1.42" ry="2.16" transform="translate(21.93 130.93) rotate(-60.52)"/>
  <ellipse class="cls-3" cx="123.18" cy="46.67" rx="1.42" ry="2.16" transform="translate(21.93 130.93) rotate(-60.52)"/>
  <ellipse class="cls-3" cx="123.18" cy="46.67" rx="1.42" ry="2.16" transform="translate(21.93 130.93) rotate(-60.52)"/>
  <ellipse class="cls-3" cx="123.18" cy="46.67" rx="1.42" ry="2.16" transform="translate(21.93 130.93) rotate(-60.52)"/>
  <ellipse class="cls-3" cx="123.18" cy="46.67" rx="1.42" ry="2.16" transform="translate(21.93 130.93) rotate(-60.52)"/>
  <ellipse class="cls-3" cx="123.18" cy="46.67" rx="1.42" ry="2.16" transform="translate(21.93 130.93) rotate(-60.52)"/>
  <ellipse class="cls-3" cx="132.65" cy="70.66" rx="1.5" ry="2.15" transform="translate(-12.5 109.66) rotate(-43.08)"/>
  <ellipse class="cls-3" cx="118.33" cy="70.94" rx="1.5" ry="2.15" transform="translate(-16.55 99.95) rotate(-43.08)"/>
  <ellipse class="cls-3" cx="120.96" cy="65.46" rx="1.5" ry="2.15" transform="translate(-12.1 100.27) rotate(-43.08)"/>
  <ellipse class="cls-3" cx="127.09" cy="57.07" rx="1.5" ry="2.15" transform="translate(-4.72 102.2) rotate(-43.08)"/>
  <ellipse class="cls-3" cx="125.2" cy="70.95" rx="1.5" ry="2.15" transform="translate(-14.71 104.65) rotate(-43.08)"/>
  <ellipse class="cls-3" cx="117.5" cy="60.39" rx="1.5" ry="2.15" transform="translate(-9.57 96.54) rotate(-43.08)"/>
  <ellipse class="cls-3" cx="124.78" cy="51.82" rx="1.5" ry="2.15" transform="translate(-1.75 99.2) rotate(-43.08)"/>
  <ellipse class="cls-3" cx="115.86" cy="201.91" rx="1.46" ry="2.1" transform="translate(-110.95 149.5) rotate(-47.14)"/>
  <ellipse class="cls-3" cx="144.04" cy="189.73" rx="1.46" ry="2.1" transform="translate(-93.01 166.27) rotate(-47.14)"/>
  <ellipse class="cls-3" cx="144.36" cy="196.99" rx="1.46" ry="2.1" transform="translate(-98.23 168.83) rotate(-47.14)"/>
  <ellipse class="cls-3" cx="140.8" cy="207.01" rx="1.46" ry="2.1" transform="translate(-106.72 169.42) rotate(-47.14)"/>
  <ellipse class="cls-3" cx="143.04" cy="199.97" rx="1.42" ry="2.16" transform="translate(-101.43 226.08) rotate(-60.52)"/>
  <ellipse class="cls-3" cx="135.09" cy="196.44" rx="1.42" ry="2.16" transform="translate(-102.4 217.36) rotate(-60.52)"/>
  <ellipse class="cls-3" cx="133.1" cy="204.37" rx="1.42" ry="2.16" transform="translate(-110.31 219.66) rotate(-60.52)"/>
  <ellipse class="cls-3" cx="148.02" cy="208.78" rx="1.42" ry="2.16" transform="translate(-106.58 234.88) rotate(-60.52)"/>
  <ellipse class="cls-3" cx="129.13" cy="210.55" rx="1.42" ry="2.16" transform="translate(-117.71 219.33) rotate(-60.52)"/>
  <ellipse class="cls-3" cx="128.13" cy="206.14" rx="1.42" ry="2.16" transform="translate(-114.37 216.23) rotate(-60.52)"/>
  <ellipse class="cls-3" cx="136.08" cy="200.85" rx="1.42" ry="2.16" transform="translate(-105.73 220.47) rotate(-60.52)"/>
  <ellipse class="cls-3" cx="114.66" cy="205.15" rx="1.5" ry="2.15" transform="translate(-109.21 133.63) rotate(-43.08)"/>
  <ellipse class="cls-3" cx="107.47" cy="205.64" rx="1.5" ry="2.15" transform="translate(-111.48 128.85) rotate(-43.08)"/>
  <ellipse class="cls-3" cx="120.47" cy="209.94" rx="1.5" ry="2.15" transform="translate(-110.91 138.89) rotate(-43.08)"/>
  <ellipse class="cls-3" cx="121.79" cy="203.13" rx="1.5" ry="2.15" transform="translate(-105.91 137.95) rotate(-43.08)"/>
  <ellipse class="cls-3" cx="111.44" cy="209.34" rx="1.47" ry="2.19" transform="translate(-124.92 190.02) rotate(-57.3)"/>
  <ellipse class="cls-3" cx="102.39" cy="204.17" rx="1.46" ry="2.1" transform="translate(-116.92 140.35) rotate(-47.14)"/>
  <ellipse class="cls-3" cx="87.8" cy="138.64" rx="1.46" ry="2.1" transform="translate(-73.55 108.7) rotate(-47.14)"/>
  <ellipse class="cls-3" cx="101.8" cy="210.12" rx="1.46" ry="2.1" transform="translate(-121.47 141.82) rotate(-47.14)"/>
  <ellipse class="cls-3" cx="127.66" cy="163.15" rx="1.46" ry="2.1" transform="translate(-78.77 145.76) rotate(-47.14)"/>
  <ellipse class="cls-3" cx="96.5" cy="207.85" rx="1.46" ry="2.1" transform="translate(-121.5 137.21) rotate(-47.14)"/>
  <ellipse class="cls-3" cx="121.67" cy="185.82" rx="1.42" ry="2.16" transform="translate(-99.97 200.29) rotate(-60.52)"/>
  <ellipse class="cls-3" cx="126.07" cy="180.94" rx="1.42" ry="2.16" transform="translate(-93.49 201.64) rotate(-60.52)"/>
  <ellipse class="cls-3" cx="130.94" cy="179.42" rx="1.42" ry="2.16" transform="translate(-89.69 205.1) rotate(-60.52)"/>
  <ellipse class="cls-3" cx="128.33" cy="175.31" rx="1.42" ry="2.16" transform="translate(-87.44 200.74) rotate(-60.52)"/>
  <ellipse class="cls-3" cx="119.96" cy="179.91" rx="1.42" ry="2.16" transform="translate(-95.69 195.79) rotate(-60.52)"/>
  <ellipse class="cls-3" cx="121.95" cy="173.74" rx="1.42" ry="2.16" transform="translate(-89.31 194.39) rotate(-60.52)"/>
  <ellipse class="cls-3" cx="105.04" cy="179.03" rx="1.42" ry="2.16" transform="translate(-102.5 182.36) rotate(-60.52)"/>
  <ellipse class="cls-3" cx="119.96" cy="160.51" rx="1.42" ry="2.16" transform="translate(-78.8 185.94) rotate(-60.52)"/>
  <ellipse class="cls-3" cx="126.92" cy="168.45" rx="1.42" ry="2.16" transform="translate(-82.18 196.03) rotate(-60.52)"/>
  <ellipse class="cls-3" cx="132.88" cy="163.15" rx="1.42" ry="2.16" transform="translate(-74.54 198.54) rotate(-60.52)"/>
  <ellipse class="cls-3" cx="115.98" cy="166.68" rx="1.42" ry="2.16" transform="translate(-86.2 185.61) rotate(-60.52)"/>
  <ellipse class="cls-3" cx="117.97" cy="176.38" rx="1.42" ry="2.16" transform="translate(-93.63 192.27) rotate(-60.52)"/>
  <ellipse class="cls-3" cx="121.95" cy="170.21" rx="1.42" ry="2.16" transform="translate(-86.24 192.6) rotate(-60.52)"/>
  <ellipse class="cls-3" cx="114.99" cy="162.27" rx="1.42" ry="2.16" transform="translate(-82.86 182.51) rotate(-60.52)"/>
  <ellipse class="cls-3" cx="132.88" cy="171.09" rx="1.42" ry="2.16" transform="translate(-81.45 202.57) rotate(-60.52)"/>
  <ellipse class="cls-3" cx="132.88" cy="171.09" rx="1.42" ry="2.16" transform="translate(-81.45 202.57) rotate(-60.52)"/>
  <ellipse class="cls-3" cx="132.88" cy="171.09" rx="1.42" ry="2.16" transform="translate(-81.45 202.57) rotate(-60.52)"/>
  <ellipse class="cls-3" cx="132.88" cy="171.09" rx="1.42" ry="2.16" transform="translate(-81.45 202.57) rotate(-60.52)"/>
  <ellipse class="cls-3" cx="132.88" cy="171.09" rx="1.42" ry="2.16" transform="translate(-81.45 202.57) rotate(-60.52)"/>
  <ellipse class="cls-3" cx="132.88" cy="171.09" rx="1.42" ry="2.16" transform="translate(-81.45 202.57) rotate(-60.52)"/>
  <ellipse class="cls-3" cx="132.88" cy="171.09" rx="1.42" ry="2.16" transform="translate(-81.45 202.57) rotate(-60.52)"/>
  <ellipse class="cls-3" cx="122.94" cy="156.98" rx="1.42" ry="2.16" transform="translate(-74.22 186.75) rotate(-60.52)"/>
  <ellipse class="cls-3" cx="101.52" cy="161.28" rx="1.5" ry="2.15" transform="translate(-82.79 112.82) rotate(-43.08)"/>
  <ellipse class="cls-3" cx="113.85" cy="170.57" rx="1.5" ry="2.15" transform="translate(-85.81 123.75) rotate(-43.08)"/>
  <ellipse class="cls-3" cx="103.19" cy="181.91" rx="1.5" ry="2.15" transform="translate(-96.43 119.53) rotate(-43.08)"/>
  <ellipse class="cls-3" cx="106.82" cy="172.91" rx="1.5" ry="2.15" transform="translate(-89.3 119.58) rotate(-43.08)"/>
  <ellipse class="cls-3" cx="100.27" cy="169.61" rx="1.5" ry="2.15" transform="translate(-88.82 114.22) rotate(-43.08)"/>
  <ellipse class="cls-3" cx="111.06" cy="178.4" rx="1.5" ry="2.15" transform="translate(-91.91 123.96) rotate(-43.08)"/>
  <ellipse class="cls-3" cx="136.16" cy="192.53" rx="1.5" ry="2.15" transform="translate(-94.79 144.91) rotate(-43.08)"/>
  <ellipse class="cls-3" cx="108.64" cy="159.26" rx="1.5" ry="2.15" transform="translate(-79.49 117.15) rotate(-43.08)"/>
  <ellipse class="cls-3" cx="122.8" cy="193.4" rx="1.5" ry="2.15" transform="translate(-98.99 136.02) rotate(-43.08)"/>
  <ellipse class="cls-3" cx="116.82" cy="188.42" rx="1.5" ry="2.15" transform="translate(-97.2 130.59) rotate(-43.08)"/>
  <ellipse class="cls-3" cx="128.03" cy="195.36" rx="1.5" ry="2.15" transform="translate(-98.92 140.12) rotate(-43.08)"/>
  <ellipse class="cls-3" cx="130.66" cy="189.88" rx="1.5" ry="2.15" transform="translate(-94.47 140.44) rotate(-43.08)"/>
  <ellipse class="cls-3" cx="127.2" cy="184.81" rx="1.5" ry="2.15" transform="translate(-91.94 136.71) rotate(-43.08)"/>
  <ellipse class="cls-3" cx="104" cy="191.77" rx="1.47" ry="2.19" transform="translate(-113.56 175.68) rotate(-57.3)"/>
  <ellipse class="cls-3" cx="100.39" cy="186.54" rx="1.47" ry="2.19" transform="translate(-110.81 170.24) rotate(-57.3)"/>
  <ellipse class="cls-3" cx="104.58" cy="198.67" rx="1.47" ry="2.19" transform="translate(-119.1 179.34) rotate(-57.3)"/>
  <ellipse class="cls-3" cx="110.08" cy="197.55" rx="1.47" ry="2.19" transform="translate(-115.63 183.45) rotate(-57.3)"/>
  <ellipse class="cls-3" cx="110.65" cy="186.52" rx="1.47" ry="2.19" transform="translate(-106.08 178.86) rotate(-57.3)"/>
  <ellipse class="cls-3" cx="113.63" cy="192.55" rx="1.47" ry="2.19" transform="translate(-109.79 184.14) rotate(-57.3)"/>
  <ellipse class="cls-3" cx="116.2" cy="181.8" rx="1.47" ry="2.19" transform="translate(-99.56 181.36) rotate(-57.3)"/>
  <ellipse class="cls-3" cx="119.18" cy="196.62" rx="1.47" ry="2.19" transform="translate(-110.67 190.68) rotate(-57.3)"/>
  <ellipse class="cls-3" cx="96.31" cy="179.94" rx="1.47" ry="2.19" transform="translate(-107.14 163.77) rotate(-57.3)"/>
  <ellipse class="cls-3" cx="96.31" cy="188.28" rx="1.47" ry="2.19" transform="translate(-114.16 167.61) rotate(-57.3)"/>
  <ellipse class="cls-3" cx="96.31" cy="188.28" rx="1.47" ry="2.19" transform="translate(-114.16 167.61) rotate(-57.3)"/>
  <ellipse class="cls-3" cx="96.31" cy="188.28" rx="1.47" ry="2.19" transform="translate(-114.16 167.61) rotate(-57.3)"/>
  <ellipse class="cls-3" cx="96.31" cy="188.28" rx="1.47" ry="2.19" transform="translate(-114.16 167.61) rotate(-57.3)"/>
  <ellipse class="cls-3" cx="96.31" cy="188.28" rx="1.47" ry="2.19" transform="translate(-114.16 167.61) rotate(-57.3)"/>
  <ellipse class="cls-3" cx="96.31" cy="188.28" rx="1.47" ry="2.19" transform="translate(-114.16 167.61) rotate(-57.3)"/>
  <ellipse class="cls-3" cx="96.31" cy="188.28" rx="1.47" ry="2.19" transform="translate(-114.16 167.61) rotate(-57.3)"/>
  <ellipse class="cls-3" cx="146.93" cy="159.43" rx="1.42" ry="2.16" transform="translate(-64.17 208.87) rotate(-60.52)"/>
  <ellipse class="cls-3" cx="140.9" cy="169.42" rx="1.42" ry="2.16" transform="translate(-75.93 208.7) rotate(-60.52)"/>
  <ellipse class="cls-3" cx="138.29" cy="165.32" rx="1.42" ry="2.16" transform="translate(-73.68 204.34) rotate(-60.52)"/>
  <ellipse class="cls-3" cx="145.25" cy="175.83" rx="1.42" ry="2.16" transform="translate(-79.3 215.74) rotate(-60.52)"/>
  <ellipse class="cls-3" cx="155.77" cy="189.45" rx="1.42" ry="2.16" transform="translate(-85.81 231.81) rotate(-60.52)"/>
  <ellipse class="cls-3" cx="136.88" cy="158.45" rx="1.42" ry="2.16" transform="translate(-68.42 199.63) rotate(-60.52)"/>
  <ellipse class="cls-3" cx="142.85" cy="161.1" rx="1.42" ry="2.16" transform="translate(-67.69 206.16) rotate(-60.52)"/>
  <ellipse class="cls-3" cx="142.85" cy="161.1" rx="1.42" ry="2.16" transform="translate(-67.69 206.16) rotate(-60.52)"/>
  <ellipse class="cls-3" cx="142.85" cy="161.1" rx="1.42" ry="2.16" transform="translate(-67.69 206.16) rotate(-60.52)"/>
  <ellipse class="cls-3" cx="142.85" cy="161.1" rx="1.42" ry="2.16" transform="translate(-67.69 206.16) rotate(-60.52)"/>
  <ellipse class="cls-3" cx="142.85" cy="161.1" rx="1.42" ry="2.16" transform="translate(-67.69 206.16) rotate(-60.52)"/>
  <ellipse class="cls-3" cx="142.85" cy="161.1" rx="1.42" ry="2.16" transform="translate(-67.69 206.16) rotate(-60.52)"/>
  <ellipse class="cls-3" cx="142.85" cy="161.1" rx="1.42" ry="2.16" transform="translate(-67.69 206.16) rotate(-60.52)"/>
  <ellipse class="cls-3" cx="137.99" cy="185.37" rx="1.5" ry="2.15" transform="translate(-89.41 144.23) rotate(-43.08)"/>
  <ellipse class="cls-3" cx="140.62" cy="179.89" rx="1.5" ry="2.15" transform="translate(-84.96 144.55) rotate(-43.08)"/>
  <ellipse class="cls-3" cx="146.75" cy="171.5" rx="1.5" ry="2.15" transform="translate(-77.57 146.48) rotate(-43.08)"/>
  <ellipse class="cls-3" cx="144.87" cy="185.38" rx="1.5" ry="2.15" transform="translate(-87.56 148.93) rotate(-43.08)"/>
  <ellipse class="cls-3" cx="137.16" cy="174.81" rx="1.5" ry="2.15" transform="translate(-82.42 140.82) rotate(-43.08)"/>
  <ellipse class="cls-3" cx="144.44" cy="166.24" rx="1.5" ry="2.15" transform="translate(-74.61 143.48) rotate(-43.08)"/>
  <ellipse class="cls-3" cx="155.63" cy="147.23" rx="1.46" ry="2.1" transform="translate(-58.15 161.17) rotate(-47.14)"/>
  <ellipse class="cls-3" cx="183.81" cy="135.05" rx="1.46" ry="2.1" transform="translate(-40.21 177.93) rotate(-47.14)"/>
  <ellipse class="cls-3" cx="184.13" cy="142.31" rx="1.46" ry="2.1" transform="translate(-45.43 180.49) rotate(-47.14)"/>
  <ellipse class="cls-3" cx="180.57" cy="152.34" rx="1.46" ry="2.1" transform="translate(-53.92 181.09) rotate(-47.14)"/>
  <ellipse class="cls-3" cx="182.81" cy="145.29" rx="1.42" ry="2.16" transform="translate(-33.63 232.93) rotate(-60.52)"/>
  <ellipse class="cls-3" cx="174.86" cy="141.76" rx="1.42" ry="2.16" transform="translate(-34.6 224.21) rotate(-60.52)"/>
  <ellipse class="cls-3" cx="172.87" cy="149.7" rx="1.42" ry="2.16" transform="translate(-42.52 226.51) rotate(-60.52)"/>
  <ellipse class="cls-3" cx="185.8" cy="152.34" rx="1.42" ry="2.16" transform="translate(-38.26 239.11) rotate(-60.52)"/>
  <ellipse class="cls-3" cx="168.9" cy="155.87" rx="1.42" ry="2.16" transform="translate(-49.91 226.19) rotate(-60.52)"/>
  <ellipse class="cls-3" cx="167.9" cy="151.46" rx="1.42" ry="2.16" transform="translate(-46.58 223.08) rotate(-60.52)"/>
  <ellipse class="cls-3" cx="175.86" cy="146.17" rx="1.42" ry="2.16" transform="translate(-37.93 227.32) rotate(-60.52)"/>
  <ellipse class="cls-3" cx="154.43" cy="150.47" rx="1.5" ry="2.15" transform="translate(-61.14 146.05) rotate(-43.08)"/>
  <ellipse class="cls-3" cx="147.24" cy="150.96" rx="1.5" ry="2.15" transform="translate(-63.41 141.27) rotate(-43.08)"/>
  <ellipse class="cls-3" cx="160.24" cy="155.26" rx="1.5" ry="2.15" transform="translate(-62.84 151.31) rotate(-43.08)"/>
  <ellipse class="cls-3" cx="161.56" cy="148.45" rx="1.5" ry="2.15" transform="translate(-57.84 150.37) rotate(-43.08)"/>
  <ellipse class="cls-3" cx="151.21" cy="154.66" rx="1.47" ry="2.19" transform="translate(-60.63 198.35) rotate(-57.3)"/>
  <ellipse class="cls-3" cx="142.16" cy="149.49" rx="1.46" ry="2.1" transform="translate(-64.12 152.02) rotate(-47.14)"/>
  <ellipse class="cls-3" cx="137.51" cy="140.4" rx="1.46" ry="2.1" transform="translate(-58.94 145.71) rotate(-47.14)"/>
  <ellipse class="cls-3" cx="141.57" cy="155.45" rx="1.46" ry="2.1" transform="translate(-68.67 153.49) rotate(-47.14)"/>
  <ellipse class="cls-3" cx="154.5" cy="29.98" rx="1.46" ry="2.1" transform="translate(27.44 122.85) rotate(-47.14)"/>
  <ellipse class="cls-3" cx="136.27" cy="153.18" rx="1.46" ry="2.1" transform="translate(-68.7 148.88) rotate(-47.14)"/>
  <ellipse class="cls-3" cx="161.44" cy="131.15" rx="1.42" ry="2.16" transform="translate(-32.17 207.14) rotate(-60.52)"/>
  <ellipse class="cls-3" cx="165.84" cy="126.27" rx="1.42" ry="2.16" transform="translate(-25.69 208.5) rotate(-60.52)"/>
  <ellipse class="cls-3" cx="170.71" cy="124.74" rx="1.42" ry="2.16" transform="translate(-21.89 211.95) rotate(-60.52)"/>
  <ellipse class="cls-3" cx="168.1" cy="120.64" rx="1.42" ry="2.16" transform="translate(-19.65 207.6) rotate(-60.52)"/>
  <ellipse class="cls-3" cx="159.73" cy="125.23" rx="1.42" ry="2.16" transform="translate(-27.9 202.65) rotate(-60.52)"/>
  <ellipse class="cls-3" cx="161.72" cy="119.06" rx="1.42" ry="2.16" transform="translate(-21.51 201.24) rotate(-60.52)"/>
  <ellipse class="cls-3" cx="144.81" cy="124.35" rx="1.42" ry="2.16" transform="translate(-34.7 189.22) rotate(-60.52)"/>
  <ellipse class="cls-3" cx="159.73" cy="105.83" rx="1.42" ry="2.16" transform="translate(-11.01 192.79) rotate(-60.52)"/>
  <ellipse class="cls-3" cx="166.69" cy="113.77" rx="1.42" ry="2.16" transform="translate(-14.38 202.88) rotate(-60.52)"/>
  <ellipse class="cls-3" cx="172.65" cy="108.48" rx="1.42" ry="2.16" transform="translate(-6.75 205.39) rotate(-60.52)"/>
  <ellipse class="cls-3" cx="149.79" cy="61.74" rx="1.42" ry="2.16" transform="translate(22.33 161.74) rotate(-60.52)"/>
  <ellipse class="cls-3" cx="157.74" cy="121.71" rx="1.42" ry="2.16" transform="translate(-25.84 199.12) rotate(-60.52)"/>
  <ellipse class="cls-3" cx="161.72" cy="115.53" rx="1.42" ry="2.16" transform="translate(-18.44 199.45) rotate(-60.52)"/>
  <ellipse class="cls-3" cx="144.81" cy="67.91" rx="1.42" ry="2.16" transform="translate(14.43 160.55) rotate(-60.52)"/>
  <ellipse class="cls-3" cx="172.65" cy="116.41" rx="1.42" ry="2.16" transform="translate(-13.66 209.42) rotate(-60.52)"/>
  <ellipse class="cls-3" cx="172.65" cy="116.41" rx="1.42" ry="2.16" transform="translate(-13.66 209.42) rotate(-60.52)"/>
  <ellipse class="cls-3" cx="172.65" cy="116.41" rx="1.42" ry="2.16" transform="translate(-13.66 209.42) rotate(-60.52)"/>
  <ellipse class="cls-3" cx="172.65" cy="116.41" rx="1.42" ry="2.16" transform="translate(-13.66 209.42) rotate(-60.52)"/>
  <ellipse class="cls-3" cx="172.65" cy="116.41" rx="1.42" ry="2.16" transform="translate(-13.66 209.42) rotate(-60.52)"/>
  <ellipse class="cls-3" cx="172.65" cy="116.41" rx="1.42" ry="2.16" transform="translate(-13.66 209.42) rotate(-60.52)"/>
  <ellipse class="cls-3" cx="172.65" cy="116.41" rx="1.42" ry="2.16" transform="translate(-13.66 209.42) rotate(-60.52)"/>
  <ellipse class="cls-3" cx="144.81" cy="22.93" rx="1.42" ry="2.16" transform="translate(53.58 137.71) rotate(-60.52)"/>
  <ellipse class="cls-3" cx="87.6" cy="51.05" rx="1.5" ry="2.15" transform="translate(-11.25 73.59) rotate(-43.08)"/>
  <ellipse class="cls-3" cx="153.62" cy="115.89" rx="1.5" ry="2.15" transform="translate(-37.74 136.17) rotate(-43.08)"/>
  <ellipse class="cls-3" cx="142.96" cy="127.24" rx="1.5" ry="2.15" transform="translate(-48.36 131.95) rotate(-43.08)"/>
  <ellipse class="cls-3" cx="146.59" cy="118.23" rx="1.5" ry="2.15" transform="translate(-41.23 132) rotate(-43.08)"/>
  <ellipse class="cls-3" cx="137.05" cy="67.32" rx="1.5" ry="2.15" transform="translate(-9.03 111.76) rotate(-43.08)"/>
  <ellipse class="cls-3" cx="150.83" cy="123.72" rx="1.5" ry="2.15" transform="translate(-43.84 136.38) rotate(-43.08)"/>
  <ellipse class="cls-3" cx="175.93" cy="137.85" rx="1.5" ry="2.15" transform="translate(-46.72 157.33) rotate(-43.08)"/>
  <ellipse class="cls-3" cx="137.48" cy="145.15" rx="1.5" ry="2.15" transform="translate(-62.08 133.04) rotate(-43.08)"/>
  <ellipse class="cls-3" cx="162.57" cy="138.72" rx="1.5" ry="2.15" transform="translate(-50.92 148.44) rotate(-43.08)"/>
  <ellipse class="cls-3" cx="156.59" cy="133.74" rx="1.5" ry="2.15" transform="translate(-49.13 143.01) rotate(-43.08)"/>
  <ellipse class="cls-3" cx="167.8" cy="140.68" rx="1.5" ry="2.15" transform="translate(-50.85 152.55) rotate(-43.08)"/>
  <ellipse class="cls-3" cx="170.43" cy="135.21" rx="1.5" ry="2.15" transform="translate(-46.4 152.87) rotate(-43.08)"/>
  <ellipse class="cls-3" cx="166.97" cy="130.13" rx="1.5" ry="2.15" transform="translate(-43.87 149.13) rotate(-43.08)"/>
  <ellipse class="cls-3" cx="143.77" cy="137.1" rx="1.47" ry="2.19" transform="translate(-49.27 184.01) rotate(-57.3)"/>
  <ellipse class="cls-3" cx="140.16" cy="131.86" rx="1.47" ry="2.19" transform="translate(-46.52 178.57) rotate(-57.3)"/>
  <ellipse class="cls-3" cx="144.35" cy="143.99" rx="1.47" ry="2.19" transform="translate(-54.8 187.67) rotate(-57.3)"/>
  <ellipse class="cls-3" cx="149.85" cy="142.87" rx="1.47" ry="2.19" transform="translate(-51.33 191.78) rotate(-57.3)"/>
  <ellipse class="cls-3" cx="150.42" cy="131.84" rx="1.47" ry="2.19" transform="translate(-41.79 187.19) rotate(-57.3)"/>
  <ellipse class="cls-3" cx="153.4" cy="137.87" rx="1.47" ry="2.19" transform="translate(-45.49 192.47) rotate(-57.3)"/>
  <ellipse class="cls-3" cx="155.97" cy="127.12" rx="1.47" ry="2.19" transform="translate(-35.27 189.69) rotate(-57.3)"/>
  <ellipse class="cls-3" cx="158.95" cy="141.95" rx="1.47" ry="2.19" transform="translate(-46.37 199.01) rotate(-57.3)"/>
  <ellipse class="cls-3" cx="136.08" cy="125.27" rx="1.47" ry="2.19" transform="translate(-42.85 172.1) rotate(-57.3)"/>
  <ellipse class="cls-3" cx="136.08" cy="133.61" rx="1.47" ry="2.19" transform="translate(-49.87 175.94) rotate(-57.3)"/>
  <ellipse class="cls-3" cx="136.08" cy="133.61" rx="1.47" ry="2.19" transform="translate(-49.87 175.94) rotate(-57.3)"/>
  <ellipse class="cls-3" cx="136.08" cy="133.61" rx="1.47" ry="2.19" transform="translate(-49.87 175.94) rotate(-57.3)"/>
  <ellipse class="cls-3" cx="136.08" cy="133.61" rx="1.47" ry="2.19" transform="translate(-49.87 175.94) rotate(-57.3)"/>
  <ellipse class="cls-3" cx="136.08" cy="133.61" rx="1.47" ry="2.19" transform="translate(-49.87 175.94) rotate(-57.3)"/>
  <ellipse class="cls-3" cx="136.08" cy="133.61" rx="1.47" ry="2.19" transform="translate(-49.87 175.94) rotate(-57.3)"/>
  <ellipse class="cls-3" cx="136.08" cy="133.61" rx="1.47" ry="2.19" transform="translate(-49.87 175.94) rotate(-57.3)"/>
  <ellipse class="cls-3" cx="186.7" cy="104.76" rx="1.42" ry="2.16" transform="translate(3.62 215.72) rotate(-60.52)"/>
  <ellipse class="cls-3" cx="180.67" cy="114.74" rx="1.42" ry="2.16" transform="translate(-8.13 215.55) rotate(-60.52)"/>
  <ellipse class="cls-3" cx="178.06" cy="110.64" rx="1.42" ry="2.16" transform="translate(-5.89 211.19) rotate(-60.52)"/>
  <ellipse class="cls-3" cx="185.02" cy="121.15" rx="1.42" ry="2.16" transform="translate(-11.5 222.59) rotate(-60.52)"/>
  <ellipse class="cls-3" cx="185.6" cy="127.71" rx="1.42" ry="2.16" transform="translate(-16.92 226.43) rotate(-60.52)"/>
  <ellipse class="cls-3" cx="176.65" cy="103.77" rx="1.42" ry="2.16" transform="translate(-.62 206.48) rotate(-60.52)"/>
  <ellipse class="cls-3" cx="182.62" cy="106.42" rx="1.42" ry="2.16" transform="translate(.1 213.02) rotate(-60.52)"/>
  <ellipse class="cls-3" cx="182.62" cy="106.42" rx="1.42" ry="2.16" transform="translate(.1 213.02) rotate(-60.52)"/>
  <ellipse class="cls-3" cx="182.62" cy="106.42" rx="1.42" ry="2.16" transform="translate(.1 213.02) rotate(-60.52)"/>
  <ellipse class="cls-3" cx="182.62" cy="106.42" rx="1.42" ry="2.16" transform="translate(.1 213.02) rotate(-60.52)"/>
  <ellipse class="cls-3" cx="182.62" cy="106.42" rx="1.42" ry="2.16" transform="translate(.1 213.02) rotate(-60.52)"/>
  <ellipse class="cls-3" cx="182.62" cy="106.42" rx="1.42" ry="2.16" transform="translate(.1 213.02) rotate(-60.52)"/>
  <ellipse class="cls-3" cx="182.62" cy="106.42" rx="1.42" ry="2.16" transform="translate(.1 213.02) rotate(-60.52)"/>
  <ellipse class="cls-3" cx="177.76" cy="130.69" rx="1.5" ry="2.15" transform="translate(-41.34 156.65) rotate(-43.08)"/>
  <ellipse class="cls-3" cx="180.39" cy="125.21" rx="1.5" ry="2.15" transform="translate(-36.89 156.97) rotate(-43.08)"/>
  <ellipse class="cls-3" cx="186.52" cy="116.82" rx="1.5" ry="2.15" transform="translate(-29.5 158.9) rotate(-43.08)"/>
  <ellipse class="cls-3" cx="190.6" cy="133.35" rx="1.5" ry="2.15" transform="translate(-39.69 166.14) rotate(-43.08)"/>
  <ellipse class="cls-3" cx="176.93" cy="120.14" rx="1.5" ry="2.15" transform="translate(-34.36 153.24) rotate(-43.08)"/>
  <ellipse class="cls-3" cx="184.21" cy="111.57" rx="1.5" ry="2.15" transform="translate(-26.54 155.9) rotate(-43.08)"/>
  <ellipse class="cls-3" cx="69.94" cy="132.24" rx="1.46" ry="2.1" transform="translate(-74.57 93.56) rotate(-47.14)"/>
  <ellipse class="cls-3" cx="66.28" cy="147.81" rx="1.46" ry="2.1" transform="translate(-87.15 95.86) rotate(-47.14)"/>
  <ellipse class="cls-3" cx="98.12" cy="120.06" rx="1.46" ry="2.1" transform="translate(-56.63 110.32) rotate(-47.14)"/>
  <ellipse class="cls-3" cx="98.44" cy="127.32" rx="1.46" ry="2.1" transform="translate(-61.85 112.88) rotate(-47.14)"/>
  <ellipse class="cls-3" cx="97.12" cy="130.3" rx="1.42" ry="2.16" transform="translate(-64.1 150.72) rotate(-60.52)"/>
  <ellipse class="cls-3" cx="89.17" cy="126.77" rx="1.42" ry="2.16" transform="translate(-65.07 142) rotate(-60.52)"/>
  <ellipse class="cls-3" cx="87.18" cy="134.71" rx="1.42" ry="2.16" transform="translate(-72.99 144.3) rotate(-60.52)"/>
  <ellipse class="cls-3" cx="90.16" cy="131.18" rx="1.42" ry="2.16" transform="translate(-68.4 145.11) rotate(-60.52)"/>
  <ellipse class="cls-3" cx="68.74" cy="135.48" rx="1.5" ry="2.15" transform="translate(-74 83.48) rotate(-43.08)"/>
  <ellipse class="cls-3" cx="75.86" cy="133.46" rx="1.5" ry="2.15" transform="translate(-70.71 87.8) rotate(-43.08)"/>
  <ellipse class="cls-3" cx="75.75" cy="116.16" rx="1.42" ry="2.16" transform="translate(-62.64 124.93) rotate(-60.52)"/>
  <ellipse class="cls-3" cx="80.15" cy="111.27" rx="1.42" ry="2.16" transform="translate(-56.16 126.29) rotate(-60.52)"/>
  <ellipse class="cls-3" cx="85.02" cy="109.75" rx="1.42" ry="2.16" transform="translate(-52.36 129.74) rotate(-60.52)"/>
  <ellipse class="cls-3" cx="85.39" cy="106.53" rx="1.42" ry="2.16" transform="translate(-49.37 128.43) rotate(-60.52)"/>
  <ellipse class="cls-3" cx="74.04" cy="110.24" rx="1.42" ry="2.16" transform="translate(-58.37 120.44) rotate(-60.52)"/>
  <ellipse class="cls-3" cx="76.02" cy="104.07" rx="1.42" ry="2.16" transform="translate(-51.98 119.03) rotate(-60.52)"/>
  <ellipse class="cls-3" cx="72.05" cy="106.71" rx="1.42" ry="2.16" transform="translate(-56.31 116.91) rotate(-60.52)"/>
  <ellipse class="cls-3" cx="90.24" cy="122.86" rx="1.5" ry="2.15" transform="translate(-59.59 94.76) rotate(-43.08)"/>
  <ellipse class="cls-3" cx="76.88" cy="123.73" rx="1.5" ry="2.15" transform="translate(-63.78 85.87) rotate(-43.08)"/>
  <ellipse class="cls-3" cx="70.89" cy="118.75" rx="1.5" ry="2.15" transform="translate(-62 80.44) rotate(-43.08)"/>
  <ellipse class="cls-3" cx="82.11" cy="125.69" rx="1.5" ry="2.15" transform="translate(-63.71 89.97) rotate(-43.08)"/>
  <ellipse class="cls-3" cx="84.74" cy="120.22" rx="1.5" ry="2.15" transform="translate(-59.26 90.29) rotate(-43.08)"/>
  <ellipse class="cls-3" cx="81.27" cy="115.14" rx="1.5" ry="2.15" transform="translate(-56.73 86.56) rotate(-43.08)"/>
  <ellipse class="cls-3" cx="66.72" cy="130.82" rx="1.47" ry="2.19" transform="translate(-79.41 116.28) rotate(-57.3)"/>
  <ellipse class="cls-3" cx="70.27" cy="112.13" rx="1.47" ry="2.19" transform="translate(-62.05 110.69) rotate(-57.3)"/>
  <ellipse class="cls-3" cx="73.26" cy="126.95" rx="1.47" ry="2.19" transform="translate(-73.15 120.01) rotate(-57.3)"/>
  <ellipse class="cls-3" cx="99.33" cy="106.16" rx="1.42" ry="2.16" transform="translate(-41.97 140.38) rotate(-60.52)"/>
  <ellipse class="cls-3" cx="99.91" cy="112.72" rx="1.42" ry="2.16" transform="translate(-47.39 144.22) rotate(-60.52)"/>
  <ellipse class="cls-3" cx="92.07" cy="115.7" rx="1.5" ry="2.15" transform="translate(-54.2 94.08) rotate(-43.08)"/>
  <ellipse class="cls-3" cx="94.7" cy="110.22" rx="1.5" ry="2.15" transform="translate(-49.75 94.4) rotate(-43.08)"/>
  <ellipse class="cls-3" cx="98.94" cy="115.71" rx="1.5" ry="2.15" transform="translate(-52.36 98.78) rotate(-43.08)"/>
  <ellipse class="cls-3" cx="91.24" cy="105.15" rx="1.5" ry="2.15" transform="translate(-47.22 90.67) rotate(-43.08)"/>
  <ellipse class="cls-3" cx="116.05" cy="142" rx="1.42" ry="2.16" transform="translate(-64.68 173.14) rotate(-60.52)"/>
  <ellipse class="cls-3" cx="120.45" cy="137.12" rx="1.42" ry="2.16" transform="translate(-58.19 174.49) rotate(-60.52)"/>
  <ellipse class="cls-3" cx="125.31" cy="135.59" rx="1.42" ry="2.16" transform="translate(-54.39 177.95) rotate(-60.52)"/>
  <ellipse class="cls-3" cx="122.7" cy="131.49" rx="1.42" ry="2.16" transform="translate(-52.15 173.59) rotate(-60.52)"/>
  <ellipse class="cls-3" cx="129.66" cy="142" rx="1.42" ry="2.16" transform="translate(-57.76 184.99) rotate(-60.52)"/>
  <ellipse class="cls-3" cx="130.24" cy="148.56" rx="1.42" ry="2.16" transform="translate(-63.18 188.83) rotate(-60.52)"/>
  <ellipse class="cls-3" cx="114.33" cy="136.08" rx="1.42" ry="2.16" transform="translate(-60.4 168.64) rotate(-60.52)"/>
  <ellipse class="cls-3" cx="111.35" cy="125.5" rx="1.42" ry="2.16" transform="translate(-52.7 160.67) rotate(-60.52)"/>
  <ellipse class="cls-3" cx="64.62" cy="141.38" rx="1.42" ry="2.16" transform="translate(-90.25 128.05) rotate(-60.52)"/>
  <ellipse class="cls-3" cx="94.45" cy="136.08" rx="1.42" ry="2.16" transform="translate(-70.5 151.33) rotate(-60.52)"/>
  <ellipse class="cls-3" cx="127.26" cy="127.27" rx="1.42" ry="2.16" transform="translate(-46.16 175.41) rotate(-60.52)"/>
  <ellipse class="cls-3" cx="127.26" cy="127.27" rx="1.42" ry="2.16" transform="translate(-46.16 175.41) rotate(-60.52)"/>
  <ellipse class="cls-3" cx="127.26" cy="127.27" rx="1.42" ry="2.16" transform="translate(-46.16 175.41) rotate(-60.52)"/>
  <ellipse class="cls-3" cx="127.26" cy="127.27" rx="1.42" ry="2.16" transform="translate(-46.16 175.41) rotate(-60.52)"/>
  <ellipse class="cls-3" cx="127.26" cy="127.27" rx="1.42" ry="2.16" transform="translate(-46.16 175.41) rotate(-60.52)"/>
  <ellipse class="cls-3" cx="127.26" cy="127.27" rx="1.42" ry="2.16" transform="translate(-46.16 175.41) rotate(-60.52)"/>
  <ellipse class="cls-3" cx="127.26" cy="127.27" rx="1.42" ry="2.16" transform="translate(-46.16 175.41) rotate(-60.52)"/>
  <ellipse class="cls-3" cx="102.26" cy="122.33" rx="1.5" ry="2.15" transform="translate(-55.99 102.83) rotate(-43.08)"/>
  <ellipse class="cls-3" cx="107.42" cy="166.32" rx="1.5" ry="2.15" transform="translate(-84.64 118.22) rotate(-43.08)"/>
  <ellipse class="cls-3" cx="117.17" cy="149.57" rx="1.5" ry="2.15" transform="translate(-70.57 120.36) rotate(-43.08)"/>
  <ellipse class="cls-3" cx="111.19" cy="144.6" rx="1.5" ry="2.15" transform="translate(-68.79 114.93) rotate(-43.08)"/>
  <ellipse class="cls-3" cx="122.41" cy="151.54" rx="1.5" ry="2.15" transform="translate(-70.5 124.46) rotate(-43.08)"/>
  <ellipse class="cls-3" cx="125.04" cy="146.06" rx="1.5" ry="2.15" transform="translate(-66.05 124.78) rotate(-43.08)"/>
  <ellipse class="cls-3" cx="131.17" cy="137.67" rx="1.5" ry="2.15" transform="translate(-58.67 126.71) rotate(-43.08)"/>
  <ellipse class="cls-3" cx="129.28" cy="151.55" rx="1.5" ry="2.15" transform="translate(-68.66 129.16) rotate(-43.08)"/>
  <ellipse class="cls-3" cx="121.57" cy="140.98" rx="1.5" ry="2.15" transform="translate(-63.52 121.05) rotate(-43.08)"/>
  <ellipse class="cls-3" cx="128.85" cy="132.41" rx="1.5" ry="2.15" transform="translate(-55.7 123.71) rotate(-43.08)"/>
  <ellipse class="cls-3" cx="104.45" cy="153.72" rx="1.47" ry="2.19" transform="translate(-81.33 158.57) rotate(-57.3)"/>
  <ellipse class="cls-3" cx="105.03" cy="142.69" rx="1.47" ry="2.19" transform="translate(-71.79 153.98) rotate(-57.3)"/>
  <ellipse class="cls-3" cx="108.01" cy="148.72" rx="1.47" ry="2.19" transform="translate(-75.5 159.26) rotate(-57.3)"/>
  <ellipse class="cls-3" cx="110.57" cy="137.97" rx="1.47" ry="2.19" transform="translate(-65.27 156.48) rotate(-57.3)"/>
  <ellipse class="cls-3" cx="116.54" cy="153.68" rx="1.47" ry="2.19" transform="translate(-75.74 168.72) rotate(-57.3)"/>
  <ellipse class="cls-3" cx="112.56" cy="156.5" rx="1.47" ry="2.19" transform="translate(-79.95 166.67) rotate(-57.3)"/>
  <ellipse class="cls-3" cx="72.66" cy="155.56" rx="1.46" ry="2.1" transform="translate(-90.79 103.02) rotate(-47.14)"/>
  <ellipse class="cls-3" cx="129.65" cy="157.53" rx="1.46" ry="2.1" transform="translate(-74.01 145.42) rotate(-47.14)"/>
  <ellipse class="cls-3" cx="91.96" cy="174.74" rx="1.46" ry="2.1" transform="translate(-98.69 123.3) rotate(-47.14)"/>
  <ellipse class="cls-3" cx="89.07" cy="179.22" rx="1.46" ry="2.1" transform="translate(-102.89 122.61) rotate(-47.14)"/>
  <ellipse class="cls-3" cx="82.09" cy="131.33" rx="1.46" ry="2.1" transform="translate(-70.02 102.17) rotate(-47.14)"/>
  <ellipse class="cls-3" cx="169.88" cy="82.91" rx="1.42" ry="2.16" transform="translate(14.1 189.99) rotate(-60.52)"/>
  <ellipse class="cls-3" cx="167.25" cy="65.75" rx="1.42" ry="2.16" transform="translate(27.7 178.98) rotate(-60.52)"/>
  <ellipse class="cls-3" cx="157.61" cy="70.76" rx="1.42" ry="2.16" transform="translate(18.45 173.14) rotate(-60.52)"/>
  <ellipse class="cls-3" cx="167.83" cy="72.32" rx="1.42" ry="2.16" transform="translate(22.28 182.82) rotate(-60.52)"/>
  <ellipse class="cls-3" cx="155" cy="66.65" rx="1.42" ry="2.16" transform="translate(20.69 168.78) rotate(-60.52)"/>
  <ellipse class="cls-3" cx="145.88" cy="72.91" rx="1.42" ry="2.16" transform="translate(10.62 164.02) rotate(-60.52)"/>
  <ellipse class="cls-3" cx="161.96" cy="77.17" rx="1.42" ry="2.16" transform="translate(15.08 180.18) rotate(-60.52)"/>
  <ellipse class="cls-3" cx="172.33" cy="67.72" rx="1.42" ry="2.16" transform="translate(28.57 184.4) rotate(-60.52)"/>
  <ellipse class="cls-3" cx="162.54" cy="83.73" rx="1.42" ry="2.16" transform="translate(9.66 184.02) rotate(-60.52)"/>
  <ellipse class="cls-3" cx="159.56" cy="62.43" rx="1.42" ry="2.16" transform="translate(26.68 170.6) rotate(-60.52)"/>
  <ellipse class="cls-3" cx="159.56" cy="62.43" rx="1.42" ry="2.16" transform="translate(26.68 170.6) rotate(-60.52)"/>
  <ellipse class="cls-3" cx="159.56" cy="62.43" rx="1.42" ry="2.16" transform="translate(26.68 170.6) rotate(-60.52)"/>
  <ellipse class="cls-3" cx="159.56" cy="62.43" rx="1.42" ry="2.16" transform="translate(26.68 170.6) rotate(-60.52)"/>
  <ellipse class="cls-3" cx="159.56" cy="62.43" rx="1.42" ry="2.16" transform="translate(26.68 170.6) rotate(-60.52)"/>
  <ellipse class="cls-3" cx="159.56" cy="62.43" rx="1.42" ry="2.16" transform="translate(26.68 170.6) rotate(-60.52)"/>
  <ellipse class="cls-3" cx="159.56" cy="62.43" rx="1.42" ry="2.16" transform="translate(26.68 170.6) rotate(-60.52)"/>
  <ellipse class="cls-3" cx="171.01" cy="77.61" rx="1.5" ry="2.15" transform="translate(-6.9 137.73) rotate(-43.08)"/>
  <ellipse class="cls-3" cx="157.33" cy="81.22" rx="1.5" ry="2.15" transform="translate(-13.06 129.36) rotate(-43.08)"/>
  <ellipse class="cls-3" cx="163.46" cy="72.83" rx="1.5" ry="2.15" transform="translate(-5.68 131.29) rotate(-43.08)"/>
  <ellipse class="cls-3" cx="153.87" cy="76.15" rx="1.5" ry="2.15" transform="translate(-10.53 125.63) rotate(-43.08)"/>
  <ellipse class="cls-3" cx="161.15" cy="67.58" rx="1.5" ry="2.15" transform="translate(-2.71 128.29) rotate(-43.08)"/>
  <ellipse class="cls-3" cx="77.89" cy="167.3" rx="1.42" ry="2.16" transform="translate(-106.08 152.77) rotate(-60.52)"/>
  <ellipse class="cls-3" cx="84.98" cy="167.1" rx="1.42" ry="2.16" transform="translate(-102.31 158.84) rotate(-60.52)"/>
  <ellipse class="cls-3" cx="91.83" cy="168.77" rx="1.42" ry="2.16" transform="translate(-100.28 165.65) rotate(-60.52)"/>
  <ellipse class="cls-3" cx="84.52" cy="173.13" rx="1.5" ry="2.15" transform="translate(-95.47 104.41) rotate(-43.08)"/>
  <ellipse class="cls-3" cx="102.19" cy="161.28" rx="1.5" ry="2.15" transform="translate(-82.61 113.28) rotate(-43.08)"/>
  <ellipse class="cls-3" cx="59.43" cy="169.39" rx="1.47" ry="2.19" transform="translate(-115.22 127.89) rotate(-57.3)"/>
  <ellipse class="cls-3" cx="97.11" cy="159.81" rx="1.46" ry="2.1" transform="translate(-86.09 122.29) rotate(-47.14)"/>
  <ellipse class="cls-3" cx="92.46" cy="150.72" rx="1.46" ry="2.1" transform="translate(-80.91 115.98) rotate(-47.14)"/>
  <ellipse class="cls-3" cx="96.52" cy="165.76" rx="1.46" ry="2.1" transform="translate(-90.64 123.77) rotate(-47.14)"/>
  <ellipse class="cls-3" cx="91.22" cy="163.49" rx="1.46" ry="2.1" transform="translate(-90.68 119.16) rotate(-47.14)"/>
  <ellipse class="cls-3" cx="92.43" cy="155.47" rx="1.5" ry="2.15" transform="translate(-81.27 105.05) rotate(-43.08)"/>
  <ellipse class="cls-3" cx="98.72" cy="147.41" rx="1.47" ry="2.19" transform="translate(-78.66 150.85) rotate(-57.3)"/>
  <ellipse class="cls-3" cx="95.11" cy="142.18" rx="1.47" ry="2.19" transform="translate(-75.91 145.4) rotate(-57.3)"/>
  <ellipse class="cls-3" cx="99.3" cy="154.31" rx="1.47" ry="2.19" transform="translate(-84.2 154.5) rotate(-57.3)"/>
  <ellipse class="cls-3" cx="104.8" cy="153.19" rx="1.47" ry="2.19" transform="translate(-80.73 158.61) rotate(-57.3)"/>
  <ellipse class="cls-3" cx="103.39" cy="147.45" rx="1.47" ry="2.19" transform="translate(-76.55 154.79) rotate(-57.3)"/>
  <ellipse class="cls-3" cx="48.7" cy="122.61" rx="1.47" ry="2.19" transform="translate(-80.79 97.35) rotate(-57.3)"/>
  <ellipse class="cls-3" cx="91.03" cy="143.92" rx="1.47" ry="2.19" transform="translate(-79.26 142.77) rotate(-57.3)"/>
  <ellipse class="cls-3" cx="91.03" cy="143.92" rx="1.47" ry="2.19" transform="translate(-79.26 142.77) rotate(-57.3)"/>
  <ellipse class="cls-3" cx="91.03" cy="143.92" rx="1.47" ry="2.19" transform="translate(-79.26 142.77) rotate(-57.3)"/>
  <ellipse class="cls-3" cx="91.03" cy="143.92" rx="1.47" ry="2.19" transform="translate(-79.26 142.77) rotate(-57.3)"/>
  <ellipse class="cls-3" cx="91.03" cy="143.92" rx="1.47" ry="2.19" transform="translate(-79.26 142.77) rotate(-57.3)"/>
  <ellipse class="cls-3" cx="91.03" cy="143.92" rx="1.47" ry="2.19" transform="translate(-79.26 142.77) rotate(-57.3)"/>
  <ellipse class="cls-3" cx="91.03" cy="143.92" rx="1.47" ry="2.19" transform="translate(-79.26 142.77) rotate(-57.3)"/>
  <ellipse class="cls-3" cx="75.4" cy="147.43" rx="1.42" ry="2.16" transform="translate(-90.05 140.51) rotate(-60.52)"/>
  <ellipse class="cls-3" cx="80.26" cy="145.91" rx="1.42" ry="2.16" transform="translate(-86.25 143.97) rotate(-60.52)"/>
  <ellipse class="cls-3" cx="77.65" cy="141.81" rx="1.42" ry="2.16" transform="translate(-84.01 139.61) rotate(-60.52)"/>
  <ellipse class="cls-3" cx="84.61" cy="152.32" rx="1.42" ry="2.16" transform="translate(-89.62 151.01) rotate(-60.52)"/>
  <ellipse class="cls-3" cx="85.19" cy="158.88" rx="1.42" ry="2.16" transform="translate(-95.04 154.85) rotate(-60.52)"/>
  <ellipse class="cls-3" cx="63.17" cy="159.01" rx="1.5" ry="2.15" transform="translate(-91.57 86.02) rotate(-43.08)"/>
  <ellipse class="cls-3" cx="77.36" cy="161.85" rx="1.5" ry="2.15" transform="translate(-89.69 96.48) rotate(-43.08)"/>
  <ellipse class="cls-3" cx="79.99" cy="156.38" rx="1.5" ry="2.15" transform="translate(-85.24 96.8) rotate(-43.08)"/>
  <ellipse class="cls-3" cx="86.12" cy="147.99" rx="1.5" ry="2.15" transform="translate(-77.86 98.72) rotate(-43.08)"/>
  <ellipse class="cls-3" cx="84.23" cy="161.87" rx="1.5" ry="2.15" transform="translate(-87.85 101.17) rotate(-43.08)"/>
  <ellipse class="cls-3" cx="76.52" cy="151.3" rx="1.5" ry="2.15" transform="translate(-82.71 93.06) rotate(-43.08)"/>
  <ellipse class="cls-3" cx="83.8" cy="142.73" rx="1.5" ry="2.15" transform="translate(-74.9 95.72) rotate(-43.08)"/>
  <ellipse class="cls-3" cx="57.17" cy="83.11" rx="1.42" ry="2.16" transform="translate(-43.32 91.98) rotate(-60.52)"/>
  <ellipse class="cls-3" cx="69.37" cy="98.36" rx="1.42" ry="2.16" transform="translate(-50.39 110.35) rotate(-60.52)"/>
  <ellipse class="cls-3" cx="60.48" cy="96.85" rx="1.5" ry="2.15" transform="translate(-49.85 67.42) rotate(-43.08)"/>
  <ellipse class="cls-3" cx="78.18" cy="84.51" rx="1.5" ry="2.15" transform="translate(-36.65 76.18) rotate(-43.08)"/>
  <ellipse class="cls-3" cx="66.23" cy="106.88" rx="1.5" ry="2.15" transform="translate(-55.14 74.05) rotate(-43.08)"/>
  <ellipse class="cls-3" cx="59.49" cy="116" rx="1.47" ry="2.19" transform="translate(-70.26 103.39) rotate(-57.3)"/>
  <ellipse class="cls-3" cx="60.07" cy="104.97" rx="1.47" ry="2.19" transform="translate(-60.72 98.81) rotate(-57.3)"/>
  <ellipse class="cls-3" cx="63.05" cy="111" rx="1.47" ry="2.19" transform="translate(-64.42 104.09) rotate(-57.3)"/>
  <ellipse class="cls-3" cx="67.6" cy="101.13" rx="1.47" ry="2.19" transform="translate(-54.02 103.38) rotate(-57.3)"/>
  <ellipse class="cls-3" cx="72.57" cy="79.8" rx="1.47" ry="2.19" transform="translate(-33.79 97.76) rotate(-57.3)"/>
  <ellipse class="cls-3" cx="63.9" cy="78.82" rx="1.46" ry="2.1" transform="translate(-37.34 72.05) rotate(-47.14)"/>
  <ellipse class="cls-3" cx="54.05" cy="109.07" rx="1.46" ry="2.1" transform="translate(-62.67 74.51) rotate(-47.14)"/>
  <ellipse class="cls-3" cx="54.38" cy="116.34" rx="1.46" ry="2.1" transform="translate(-67.89 77.07) rotate(-47.14)"/>
  <ellipse class="cls-3" cx="45.1" cy="115.78" rx="1.42" ry="2.16" transform="translate(-77.89 98.06) rotate(-60.52)"/>
  <ellipse class="cls-3" cx="46.17" cy="111.87" rx="1.5" ry="2.15" transform="translate(-63.97 61.7) rotate(-43.08)"/>
  <ellipse class="cls-3" cx="55.84" cy="101.74" rx="1.42" ry="2.16" transform="translate(-60.2 100.28) rotate(-60.52)"/>
  <ellipse class="cls-3" cx="48.01" cy="104.71" rx="1.5" ry="2.15" transform="translate(-58.58 61.02) rotate(-43.08)"/>
  <ellipse class="cls-3" cx="50.64" cy="99.23" rx="1.5" ry="2.15" transform="translate(-54.13 61.34) rotate(-43.08)"/>
  <ellipse class="cls-3" cx="113.54" cy="20.07" rx="1.5" ry="2.15" transform="translate(16.91 82.96) rotate(-43.08)"/>
  <ellipse class="cls-3" cx="58.19" cy="111.35" rx="1.5" ry="2.15" transform="translate(-60.36 69.77) rotate(-43.08)"/>
  <ellipse class="cls-3" cx="151.08" cy="161.36" rx="1.46" ry="2.1" transform="translate(-69.97 162.36) rotate(-47.14)"/>
  <ellipse class="cls-3" cx="158.56" cy="161.24" rx="1.46" ry="2.1" transform="translate(-67.48 167.8) rotate(-47.14)"/>
  <ellipse class="cls-3" cx="152.58" cy="183.92" rx="1.42" ry="2.16" transform="translate(-82.61 226.23) rotate(-60.52)"/>
  <ellipse class="cls-3" cx="156.98" cy="179.04" rx="1.42" ry="2.16" transform="translate(-76.13 227.58) rotate(-60.52)"/>
  <ellipse class="cls-3" cx="161.84" cy="177.51" rx="1.42" ry="2.16" transform="translate(-72.33 231.04) rotate(-60.52)"/>
  <ellipse class="cls-3" cx="159.23" cy="173.41" rx="1.42" ry="2.16" transform="translate(-70.09 226.68) rotate(-60.52)"/>
  <ellipse class="cls-3" cx="150.86" cy="178" rx="1.42" ry="2.16" transform="translate(-78.34 221.73) rotate(-60.52)"/>
  <ellipse class="cls-3" cx="152.85" cy="171.83" rx="1.42" ry="2.16" transform="translate(-71.95 220.33) rotate(-60.52)"/>
  <ellipse class="cls-3" cx="157.82" cy="166.54" rx="1.42" ry="2.16" transform="translate(-64.82 221.97) rotate(-60.52)"/>
  <ellipse class="cls-3" cx="163.79" cy="161.25" rx="1.42" ry="2.16" transform="translate(-57.19 224.47) rotate(-60.52)"/>
  <ellipse class="cls-3" cx="150.86" cy="191.23" rx="1.42" ry="2.16" transform="translate(-89.85 228.45) rotate(-60.52)"/>
  <ellipse class="cls-3" cx="152.85" cy="168.3" rx="1.42" ry="2.16" transform="translate(-68.88 218.53) rotate(-60.52)"/>
  <ellipse class="cls-3" cx="163.79" cy="169.18" rx="1.42" ry="2.16" transform="translate(-64.1 228.5) rotate(-60.52)"/>
  <ellipse class="cls-3" cx="163.79" cy="169.18" rx="1.42" ry="2.16" transform="translate(-64.1 228.5) rotate(-60.52)"/>
  <ellipse class="cls-3" cx="163.79" cy="169.18" rx="1.42" ry="2.16" transform="translate(-64.1 228.5) rotate(-60.52)"/>
  <ellipse class="cls-3" cx="163.79" cy="169.18" rx="1.42" ry="2.16" transform="translate(-64.1 228.5) rotate(-60.52)"/>
  <ellipse class="cls-3" cx="163.79" cy="169.18" rx="1.42" ry="2.16" transform="translate(-64.1 228.5) rotate(-60.52)"/>
  <ellipse class="cls-3" cx="163.79" cy="169.18" rx="1.42" ry="2.16" transform="translate(-64.1 228.5) rotate(-60.52)"/>
  <ellipse class="cls-3" cx="163.79" cy="169.18" rx="1.42" ry="2.16" transform="translate(-64.1 228.5) rotate(-60.52)"/>
  <ellipse class="cls-3" cx="161.57" cy="187.98" rx="1.5" ry="2.15" transform="translate(-84.83 161.04) rotate(-43.08)"/>
  <ellipse class="cls-3" cx="158.1" cy="182.9" rx="1.5" ry="2.15" transform="translate(-82.3 157.3) rotate(-43.08)"/>
  <ellipse class="cls-3" cx="171.81" cy="167.51" rx="1.42" ry="2.16" transform="translate(-58.57 234.63) rotate(-60.52)"/>
  <ellipse class="cls-3" cx="169.19" cy="163.41" rx="1.42" ry="2.16" transform="translate(-56.33 230.27) rotate(-60.52)"/>
  <ellipse class="cls-3" cx="176.15" cy="173.92" rx="1.42" ry="2.16" transform="translate(-61.94 241.67) rotate(-60.52)"/>
  <ellipse class="cls-3" cx="175.74" cy="157.56" rx="1.42" ry="2.16" transform="translate(-47.9 233) rotate(-60.52)"/>
  <ellipse class="cls-3" cx="168.9" cy="183.46" rx="1.5" ry="2.15" transform="translate(-79.77 164.83) rotate(-43.08)"/>
  <ellipse class="cls-3" cx="171.53" cy="177.98" rx="1.5" ry="2.15" transform="translate(-75.32 165.15) rotate(-43.08)"/>
  <ellipse class="cls-3" cx="177.66" cy="169.59" rx="1.5" ry="2.15" transform="translate(-67.94 167.07) rotate(-43.08)"/>
  <ellipse class="cls-3" cx="175.77" cy="183.47" rx="1.5" ry="2.15" transform="translate(-77.93 169.52) rotate(-43.08)"/>
  <ellipse class="cls-3" cx="168.06" cy="172.91" rx="1.5" ry="2.15" transform="translate(-72.79 161.41) rotate(-43.08)"/>
  <ellipse class="cls-3" cx="175.34" cy="164.34" rx="1.5" ry="2.15" transform="translate(-64.97 164.07) rotate(-43.08)"/>
  <ellipse class="cls-3" cx="181.84" cy="90.39" rx="1.42" ry="2.16" transform="translate(13.67 204.2) rotate(-60.52)"/>
  <ellipse class="cls-3" cx="186.24" cy="83.74" rx="1.42" ry="2.16" transform="translate(21.69 204.66) rotate(-60.52)"/>
  <ellipse class="cls-3" cx="188.49" cy="79.88" rx="1.42" ry="2.16" transform="translate(26.2 204.65) rotate(-60.52)"/>
  <ellipse class="cls-3" cx="180.13" cy="84.47" rx="1.42" ry="2.16" transform="translate(17.94 199.7) rotate(-60.52)"/>
  <ellipse class="cls-3" cx="182.12" cy="77.42" rx="1.42" ry="2.16" transform="translate(25.1 197.85) rotate(-60.52)"/>
  <ellipse class="cls-3" cx="175.16" cy="80.06" rx="1.42" ry="2.16" transform="translate(19.26 193.14) rotate(-60.52)"/>
  <ellipse class="cls-3" cx="194.1" cy="110.3" rx="1.5" ry="2.15" transform="translate(-23.01 162.31) rotate(-43.08)"/>
  <ellipse class="cls-3" cx="182.97" cy="97.96" rx="1.5" ry="2.15" transform="translate(-17.58 151.38) rotate(-43.08)"/>
  <ellipse class="cls-3" cx="176.99" cy="92.98" rx="1.5" ry="2.15" transform="translate(-15.79 145.96) rotate(-43.08)"/>
  <ellipse class="cls-3" cx="188.2" cy="99.92" rx="1.5" ry="2.15" transform="translate(-17.51 155.49) rotate(-43.08)"/>
  <ellipse class="cls-3" cx="190.83" cy="94.45" rx="1.5" ry="2.15" transform="translate(-13.06 155.81) rotate(-43.08)"/>
  <ellipse class="cls-3" cx="189.35" cy="89.37" rx="1.5" ry="2.15" transform="translate(-9.99 153.43) rotate(-43.08)"/>
  <ellipse class="cls-3" cx="170.82" cy="91.08" rx="1.47" ry="2.19" transform="translate(1.89 185.62) rotate(-57.3)"/>
  <ellipse class="cls-3" cx="194.68" cy="120.04" rx="1.47" ry="2.19" transform="translate(-11.51 219.01) rotate(-57.3)"/>
  <ellipse class="cls-3" cx="176.37" cy="86.36" rx="1.47" ry="2.19" transform="translate(8.41 188.11) rotate(-57.3)"/>
  <ellipse class="cls-3" cx="193.19" cy="142.17" rx="1.5" ry="2.15" transform="translate(-45.02 170.29) rotate(-43.08)"/>
  <ellipse class="cls-3" cx="190.21" cy="124.53" rx="1.5" ry="2.15" transform="translate(-33.78 163.5) rotate(-43.08)"/>
  <ellipse class="cls-3" cx="196.18" cy="129.82" rx="1.5" ry="2.15" transform="translate(-35.78 169) rotate(-43.08)"/>
  <ellipse class="cls-3" cx="193.19" cy="103.37" rx="1.5" ry="2.15" transform="translate(-18.52 159.83) rotate(-43.08)"/>
  <ellipse class="cls-3" cx="183.25" cy="164.22" rx="1.5" ry="2.15" transform="translate(-62.76 169.44) rotate(-43.08)"/>
  <ellipse class="cls-3" cx="184.25" cy="157.16" rx="1.5" ry="2.15" transform="translate(-57.67 168.22) rotate(-43.08)"/>
  <ellipse class="cls-3" cx="189.33" cy="109.54" rx="1.5" ry="2.15" transform="translate(-23.77 158.86) rotate(-43.08)"/>
  <ellipse class="cls-3" cx="192.13" cy="113.83" rx="1.5" ry="2.15" transform="translate(-25.95 161.92) rotate(-43.08)"/>
  <ellipse class="cls-3" cx="173.24" cy="129.7" rx="1.5" ry="2.15" transform="translate(-41.89 153.3) rotate(-43.08)"/>
  <ellipse class="cls-3" cx="186.16" cy="74.15" rx="1.5" ry="2.15" transform="translate(-.45 147.15) rotate(-43.08)"/>
  <ellipse class="cls-3" cx="173.95" cy="61.36" rx="1.42" ry="2.16" transform="translate(34.93 182.59) rotate(-60.52)"/>
  <ellipse class="cls-3" cx="171.32" cy="49.49" rx="1.42" ry="2.16" transform="translate(43.93 174.27) rotate(-60.52)"/>
  <ellipse class="cls-3" cx="171.9" cy="56.05" rx="1.42" ry="2.16" transform="translate(38.51 178.11) rotate(-60.52)"/>
  <ellipse class="cls-3" cx="177.39" cy="54.98" rx="1.42" ry="2.16" transform="translate(42.23 182.35) rotate(-60.52)"/>
  <ellipse class="cls-3" cx="168.13" cy="61.34" rx="1.5" ry="2.15" transform="translate(3.43 131.38) rotate(-43.08)"/>
  <ellipse class="cls-3" cx="167.54" cy="56.57" rx="1.5" ry="2.15" transform="translate(6.53 129.69) rotate(-43.08)"/>
  <ellipse class="cls-3" cx="175.57" cy="72.62" rx="1.42" ry="2.16" transform="translate(25.95 189.72) rotate(-60.52)"/>
  <ellipse class="cls-3" cx="178.56" cy="67.33" rx="1.42" ry="2.16" transform="translate(32.07 189.63) rotate(-60.52)"/>
  <ellipse class="cls-3" cx="184.52" cy="67.33" rx="1.42" ry="2.16" transform="translate(35.1 194.82) rotate(-60.52)"/>
  <ellipse class="cls-3" cx="180.54" cy="61.15" rx="1.42" ry="2.16" transform="translate(38.46 188.22) rotate(-60.52)"/>
  <ellipse class="cls-3" cx="166.44" cy="145.07" rx="1.42" ry="2.16" transform="translate(-41.76 218.56) rotate(-60.52)"/>
  <ellipse class="cls-3" cx="190.3" cy="147.72" rx="1.42" ry="2.16" transform="translate(-31.95 240.68) rotate(-60.52)"/>
  <ellipse class="cls-3" cx="153.02" cy="205.03" rx="1.38" ry="2.22" transform="translate(-83.13 303.44) rotate(-75.89)"/>
  <ellipse class="cls-3" cx="162.6" cy="199.01" rx="1.37" ry="2.24" transform="translate(-44.71 350.88) rotate(-86.98)"/>
  <ellipse class="cls-3" cx="150.98" cy="201.01" rx="1.41" ry="2.29" transform="translate(-85.55 286.18) rotate(-72.89)"/>
  <ellipse class="cls-3" cx="156.48" cy="195.99" rx="1.37" ry="2.24" transform="translate(-47.49 341.91) rotate(-86.98)"/>
  <ellipse class="cls-3" cx="159.64" cy="202.91" rx="1.37" ry="2.24" transform="translate(-51.41 351.63) rotate(-86.98)"/>
  <ellipse class="cls-3" cx="166.49" cy="194.93" rx="1.41" ry="2.29" transform="translate(-68.79 296.7) rotate(-72.89)"/>
  <ellipse class="cls-3" cx="160.43" cy="192.42" rx="1.41" ry="2.29" transform="translate(-70.68 289.14) rotate(-72.89)"/>
  <ellipse class="cls-3" cx="148.62" cy="194.83" rx="1.42" ry="2.16" transform="translate(-94.12 228.32) rotate(-60.52)"/>
  <ellipse class="cls-3" cx="169.23" cy="189.61" rx="1.5" ry="2.15" transform="translate(-83.88 166.71) rotate(-43.08)"/>
  <ellipse class="cls-3" cx="145.08" cy="213.35" rx="1.46" ry="2.1" transform="translate(-110 174.59) rotate(-47.14)"/>
  <ellipse class="cls-3" cx="135.48" cy="210.53" rx="1.42" ry="2.16" transform="translate(-114.46 224.86) rotate(-60.52)"/>
  <ellipse class="cls-3" cx="128.52" cy="219.35" rx="1.42" ry="2.16" transform="translate(-125.67 223.28) rotate(-60.52)"/>
  <ellipse class="cls-3" cx="127.53" cy="214.94" rx="1.42" ry="2.16" transform="translate(-122.34 220.17) rotate(-60.52)"/>
  <ellipse class="cls-3" cx="114.06" cy="213.95" rx="1.5" ry="2.15" transform="translate(-115.38 135.59) rotate(-43.08)"/>
  <ellipse class="cls-3" cx="119.87" cy="218.74" rx="1.5" ry="2.15" transform="translate(-117.09 140.85) rotate(-43.08)"/>
  <ellipse class="cls-3" cx="136.1" cy="217.22" rx="1.5" ry="2.15" transform="translate(-111.68 151.53) rotate(-43.08)"/>
  <ellipse class="cls-3" cx="110.84" cy="218.14" rx="1.47" ry="2.19" transform="translate(-132.61 193.56) rotate(-57.3)"/>
  <ellipse class="cls-3" cx="85.64" cy="192.54" rx="1.5" ry="2.15" transform="translate(-108.42 110.41) rotate(-43.08)"/>
  <ellipse class="cls-3" cx="80.22" cy="194.79" rx="1.5" ry="2.15" transform="translate(-111.42 107.31) rotate(-43.08)"/>
  <ellipse class="cls-3" cx="86.04" cy="199.58" rx="1.5" ry="2.15" transform="translate(-113.12 112.57) rotate(-43.08)"/>
  <ellipse class="cls-3" cx="77.01" cy="198.98" rx="1.47" ry="2.19" transform="translate(-132.04 156.28) rotate(-57.3)"/>
  <ellipse class="cls-3" cx="97.61" cy="195.18" rx="1.41" ry="2.29" transform="translate(-106.6 272.11) rotate(-84.07)"/>
  <ellipse class="cls-3" cx="95.62" cy="198.7" rx="1.41" ry="2.29" transform="translate(-111.9 273.29) rotate(-84.07)"/>
  <ellipse class="cls-3" cx="91.64" cy="203.99" rx="1.41" ry="2.29" transform="translate(-120.72 274.08) rotate(-84.07)"/>
  <ellipse class="cls-3" cx="84.68" cy="204.88" rx="1.41" ry="2.29" transform="translate(-127.84 267.95) rotate(-84.07)"/>
  <ellipse class="cls-3" cx="91.64" cy="210.17" rx="1.41" ry="2.29" transform="translate(-126.87 279.62) rotate(-84.07)"/>
  <ellipse class="cls-3" cx="103.57" cy="216.34" rx="1.41" ry="2.29" transform="translate(-122.31 297.02) rotate(-84.07)"/>
  <ellipse class="cls-3" cx="72.75" cy="193.41" rx="1.41" ry="2.29" transform="translate(-127.14 245.8) rotate(-84.07)"/>
  <ellipse class="cls-3" cx="66.78" cy="185.47" rx="1.41" ry="2.29" transform="translate(-124.59 232.75) rotate(-84.07)"/>
  <ellipse class="cls-3" cx="56.19" cy="164.29" rx="1.41" ry="2.29" transform="translate(-113.03 203.22) rotate(-84.07)"/>
  <ellipse class="cls-3" cx="61.61" cy="62.32" rx="1.46" ry="2.1" transform="translate(-25.98 65.09) rotate(-47.14)"/>
  <ellipse class="cls-3" cx="60.41" cy="69.09" rx="1.5" ry="2.15" transform="translate(-30.9 59.89) rotate(-43.08)"/>
  <ellipse class="cls-3" cx="67.54" cy="67.07" rx="1.5" ry="2.15" transform="translate(-27.6 64.21) rotate(-43.08)"/>
  <ellipse class="cls-3" cx="66.15" cy="73.28" rx="1.5" ry="2.15" transform="translate(-32.22 64.94) rotate(-43.08)"/>
  <ellipse class="cls-3" cx="67.57" cy="50.85" rx="1.46" ry="2.1" transform="translate(-15.67 65.8) rotate(-47.14)"/>
  <ellipse class="cls-3" cx="65.38" cy="57.62" rx="1.5" ry="2.15" transform="translate(-21.73 60.19) rotate(-43.08)"/>
  <ellipse class="cls-3" cx="72.51" cy="55.61" rx="1.5" ry="2.15" transform="translate(-18.43 64.52) rotate(-43.08)"/>
  <ellipse class="cls-3" cx="71.12" cy="61.81" rx="1.5" ry="2.15" transform="translate(-23.05 65.25) rotate(-43.08)"/>
  <ellipse class="cls-3" cx="73.91" cy="46.69" rx="1.5" ry="2.15" transform="translate(-11.96 63.07) rotate(-43.08)"/>
  <ellipse class="cls-3" cx="97.45" cy="29.74" rx="1.46" ry="2.1" transform="translate(9.37 80.94) rotate(-47.14)"/>
  <ellipse class="cls-3" cx="93.89" cy="39.76" rx="1.46" ry="2.1" transform="translate(.88 81.54) rotate(-47.14)"/>
  <ellipse class="cls-3" cx="96.13" cy="32.71" rx="1.42" ry="2.16" transform="translate(20.34 100.29) rotate(-60.52)"/>
  <ellipse class="cls-3" cx="88.17" cy="29.19" rx="1.42" ry="2.16" transform="translate(19.37 91.58) rotate(-60.52)"/>
  <ellipse class="cls-3" cx="86.19" cy="37.12" rx="1.42" ry="2.16" transform="translate(11.45 93.88) rotate(-60.52)"/>
  <ellipse class="cls-3" cx="81.21" cy="38.89" rx="1.42" ry="2.16" transform="translate(7.39 90.45) rotate(-60.52)"/>
  <ellipse class="cls-3" cx="89.17" cy="33.59" rx="1.42" ry="2.16" transform="translate(16.04 94.68) rotate(-60.52)"/>
  <ellipse class="cls-3" cx="103.85" cy="29.76" rx="1.46" ry="2.1" transform="translate(11.39 85.65) rotate(-47.14)"/>
  <ellipse class="cls-3" cx="103.11" cy="35.06" rx="1.42" ry="2.16" transform="translate(21.84 107.56) rotate(-60.52)"/>
  <ellipse class="cls-3" cx="111.3" cy="32.82" rx="1.42" ry="2.16" transform="translate(27.95 113.56) rotate(-60.52)"/>
  <ellipse class="cls-3" cx="114.28" cy="25.77" rx="1.42" ry="2.16" transform="translate(35.61 112.57) rotate(-60.52)"/>
  <ellipse class="cls-3" cx="98.37" cy="24" rx="1.42" ry="2.16" transform="translate(29.06 97.83) rotate(-60.52)"/>
  <ellipse class="cls-3" cx="108.32" cy="24.89" rx="1.42" ry="2.16" transform="translate(33.35 106.93) rotate(-60.52)"/>
</svg>