<?xml version="1.0" encoding="UTF-8"?><svg id="Layer_2" xmlns="http://www.w3.org/2000/svg" viewBox="0 0 227 238"><g><ellipse cx="47.52" cy="136.75" rx="22.06" ry="19.88" transform="translate(-84 76.25) rotate(-46.14)" style="fill:#ff8ad2;"/><ellipse cx="186.33" cy="127.5" rx="22.06" ry="19.88" transform="translate(-34.71 173.49) rotate(-46.14)" style="fill:#ff8ad2;"/><ellipse cx="182.17" cy="81.94" rx="22.98" ry="19.09" transform="translate(0 163.87) rotate(-48.43)" style="fill:#ff8ad2;"/><ellipse cx="82.9" cy="74.51" rx="22.06" ry="19.88" transform="translate(-28.27 82.65) rotate(-46.14)" style="fill:#ff8ad2;"/><ellipse cx="164.35" cy="102.87" rx="23.49" ry="18.67" transform="translate(-22.91 153.16) rotate(-47.08)" style="fill:#ff8ad2;"/><ellipse cx="100.32" cy="152.81" rx="22.06" ry="19.88" transform="translate(-79.37 119.25) rotate(-46.14)" style="fill:#ff8ad2;"/><ellipse cx="89.13" cy="185.42" rx="22.06" ry="19.88" transform="translate(-106.32 121.2) rotate(-46.14)" style="fill:#ff8ad2;"/><ellipse cx="149.07" cy="132.81" rx="22.06" ry="19.88" transform="translate(-49.98 148.26) rotate(-46.14)" style="fill:#ff8ad2;"/><ellipse cx="35.96" cy="111.28" rx="22.06" ry="19.88" transform="translate(-69.19 60.09) rotate(-46.14)" style="fill:#ff8ad2;"/><ellipse cx="112.41" cy="205.95" rx="22.06" ry="19.88" transform="translate(-113.98 144.29) rotate(-46.14)" style="fill:#ff8ad2;"/><ellipse cx="65.87" cy="162.67" rx="22.06" ry="19.88" transform="translate(-97.06 97.45) rotate(-46.14)" style="fill:#ff81c9;"/><ellipse cx="153.93" cy="180.56" rx="22.06" ry="19.88" transform="translate(-82.92 166.42) rotate(-46.14)" style="fill:#ff8ad2;"/><ellipse cx="140.31" cy="169.08" rx="22.06" ry="19.88" transform="translate(-78.82 153.08) rotate(-46.14)" style="fill:#ff8ad2;"/><ellipse cx="148.63" cy="83.05" rx="22.06" ry="19.88" transform="translate(-14.24 132.67) rotate(-46.14)" style="fill:#ff8ad2;"/><ellipse cx="127.83" cy="110.91" rx="22.06" ry="19.88" transform="translate(-40.72 126.22) rotate(-46.14)" style="fill:#ff8ad2;"/><ellipse cx="161.02" cy="61.68" rx="22.06" ry="19.88" transform="translate(4.97 135.04) rotate(-46.14)" style="fill:#ff8ad2;"/><ellipse cx="191.04" cy="102.3" rx="22.06" ry="19.88" transform="translate(-15.1 169.15) rotate(-46.14)" style="fill:#ff81c9;"/><ellipse cx="132.95" cy="204.46" rx="22.06" ry="19.88" transform="translate(-106.59 158.64) rotate(-46.14)" style="fill:#ff81c9;"/><ellipse cx="100.37" cy="57.8" rx="21.83" ry="20.09" transform="translate(-2.15 111.69) rotate(-57.67)" style="fill:#ff8ad2;"/><ellipse cx="174.76" cy="155.18" rx="22.06" ry="19.88" transform="translate(-58.22 173.65) rotate(-46.14)" style="fill:#ff81c9;"/><ellipse cx="91.92" cy="112.63" rx="22.06" ry="19.88" transform="translate(-52.98 100.86) rotate(-46.14)" style="fill:#ff81c9;"/><ellipse cx="112.53" cy="83.01" rx="22.06" ry="19.88" transform="translate(-25.3 106.62) rotate(-46.14)" style="fill:#ff8ad2;"/><ellipse cx="130.43" cy="61.03" rx="22.06" ry="19.88" transform="translate(-3.95 112.78) rotate(-46.14)" style="fill:#ff81c9;"/><ellipse cx="46.79" cy="79.9" rx="22.06" ry="19.88" transform="translate(-43.24 58.27) rotate(-46.14)" style="fill:#ff81c9;"/><ellipse cx="121.82" cy="135.58" rx="22.06" ry="19.88" transform="translate(-60.35 129.46) rotate(-46.14)" style="fill:#ff81c9;"/><ellipse cx="62.1" cy="104.72" rx="22.31" ry="19.65" transform="translate(-.92 .55) rotate(-.5)" style="fill:#ff8ad2;"/><ellipse cx="82.67" cy="134.49" rx="22.06" ry="19.88" transform="translate(-71.58 100.9) rotate(-46.14)" style="fill:#ff8ad2;"/><ellipse cx="71.02" cy="61.37" rx="22.09" ry="19.85" transform="translate(-22.6 68.02) rotate(-44.89)" style="fill:#ff8ad2;"/><ellipse cx="116.96" cy="172.39" rx="22.06" ry="19.88" transform="translate(-88.38 137.27) rotate(-46.14)" style="fill:#ff8ad2;"/></g><g><ellipse cx="146.57" cy="51.93" rx="6.6" ry="31.17" transform="translate(49.73 173.59) rotate(-70.99)" style="fill:#c8ff8a;"/><ellipse cx="149.36" cy="41.38" rx="31.7" ry="6.49" style="fill:#c8ff8a;"/><ellipse cx="94.35" cy="51.93" rx="31.18" ry="6.6" transform="translate(-11.71 33.25) rotate(-18.84)" style="fill:#c8ff8a;"/><ellipse cx="91.31" cy="41.61" rx="31.69" ry="6.49" transform="translate(-1.72 4) rotate(-2.48)" style="fill:#c8ff8a;"/><rect x="119.53" y="11.36" width="5.59" height="30.02" rx="2.31" ry="2.31" style="fill:#c8ff8a;"/></g></svg>