<?xml version="1.0" encoding="UTF-8"?>
<svg id="Layer_2" data-name="Layer 2" xmlns="http://www.w3.org/2000/svg" viewBox="0 0 230 230">
  <defs>
    <style>
      .cls-1 {
        fill: #ebebeb;
      }

      .cls-2 {
        fill: #fff;
      }

      .cls-3 {
        fill: #a67c52;
      }

      .cls-4 {
        fill: #754c24;
      }
    </style>
  </defs>
  <ellipse class="cls-3" cx="113.83" cy="127.47" rx="114.12" ry="102.62" transform="translate(-9.16 8.81) rotate(-4.26)"/>
  <path class="cls-2" d="M15.39,66.57s45.2-2.66,112.54,47.05c67.34,49.71,85.6,99.22,85.6,99.22,34.1-65.73,17.39-151.75-37.32-192.15C121.49-19.7,49.49,.84,15.39,66.57Z"/>
  <path class="cls-4" d="M23.35,65.03c8.49-17.93,64.45-4.25,105.48,23.26,43.99,29.5,83.95,83.71,75.06,102.07-9.01,18.61-68.41,.89-111.21-30.3C54.54,132.27,14.83,83.04,23.35,65.03Z"/>
  <path class="cls-2" d="M29.91,67.87c1.95-5.85,10.13-7.56,12.78-8.12,2.35-.49,3.82-.41,15.17,1.63,11.59,2.08,12.78,2.48,14.15,3.04,2.99,1.22,3.61,1.92,10.25,4.85,3.36,1.49,4.06,1.69,6.53,2.86,4.73,2.23,6.17,3.37,9.29,4.99,7.44,3.86,8.12,1.95,14.98,5.44,3.61,1.83,2.93,2.11,11.08,7.26,7.72,4.87,6.91,3.73,10.19,6.12,7.18,5.24,7.02,7.76,14.62,13.06,2.28,1.59,3.56,2.25,5.51,4.26,3.08,3.18,3.14,4.91,6.29,7.94,2.36,2.27,3.03,1.97,5.51,4.26,2.62,2.42,4.35,5.03,5.39,6.8,0,0,0,0,0,0,3.84,5.49,6.93,9.83,8.92,12.61,4.66,6.52,6.96,9.61,9.76,15.01,2.51,4.85,1.77,5.96,4.25,10.75,3.38,6.55,5.87,7.94,5.21,10.61-.96,3.81-7.23,5.67-9.84,6.44-2.3,.68-4.27,1.26-6.72,.95-1.4-.18-3.33-.7-6.33-.37-.67,.07-1.17,.18-1.28,.19-5.3,.49-7.18-1.73-14.08-4.31-11.15-4.17-12.16-.59-20.74-4.63-6.12-2.88-5.24-4.53-13.84-9.39-5.56-3.14-6.04-2.51-14.92-6.71-7.93-3.75-12.3-5.82-17.48-9.75-5.92-4.49-5.05-5.47-12.89-12.43-10.34-9.18-11.76-7.4-17.43-13.93-6.43-7.4-4.02-9.01-11.83-18.53-3.09-3.77-6.61-7.33-11.89-14.71-1.05-1.46-2.79-4.29-4.78-8.13-4.8-9.27-7.2-13.9-5.8-18.1Z"/>
  <path class="cls-1" d="M41.15,72.94c1.44-4.33,8.42-4.76,10.69-4.9,2.01-.12,3.28,.11,13.15,2.94,10.08,2.89,11.13,3.33,12.33,3.92,2.63,1.28,3.2,1.89,9.04,4.9,2.97,1.53,3.57,1.76,5.76,2.94,4.17,2.25,5.47,3.3,8.22,4.9,6.58,3.82,7.08,2.41,13.15,5.88,3.19,1.82,2.62,1.96,9.87,6.86,6.87,4.64,6.12,3.66,9.04,5.88,6.41,4.86,6.38,6.8,13.15,11.75,2.03,1.49,3.17,2.14,4.93,3.92,2.79,2.81,2.91,4.16,5.76,6.86,2.13,2.02,2.69,1.87,4.93,3.92,2.36,2.16,3.97,4.38,4.93,5.87,0,0,0,0,0,0,3.54,4.69,6.39,8.4,8.22,10.77,4.3,5.58,6.4,8.23,9.04,12.73,2.37,4.05,1.78,4.82,4.11,8.82,3.19,5.46,5.4,6.82,4.93,8.82-.67,2.86-6,3.61-8.22,3.92-1.95,.27-3.64,.51-5.76,0-1.22-.29-2.91-.91-5.48-.98-.57-.02-1,0-1.1,0-4.55-.2-6.27-2.13-12.33-4.9-9.79-4.46-10.52-1.8-18.09-5.88-5.4-2.91-4.71-4.1-12.33-8.82-4.93-3.05-5.31-2.62-13.15-6.86-7-3.78-10.86-5.87-15.49-9.49-5.3-4.14-4.59-4.81-11.64-11.08-9.3-8.27-10.46-7.04-15.62-12.73-5.86-6.46-3.84-7.44-10.98-15.69-2.83-3.27-6.01-6.42-10.87-12.73-.96-1.25-2.58-3.64-4.46-6.84-4.53-7.72-6.79-11.59-5.76-14.69Z"/>
</svg>