<?xml version="1.0" encoding="UTF-8"?><svg id="Layer_2" xmlns="http://www.w3.org/2000/svg" viewBox="0 0 227 210"><path d="m17.98,66.85c2.7-9.31,8.95-30.79,26.02-38.45,16.25-7.29,33.15,2.04,43.97,8.24,33.53,19.19,32.23,42.76,63.18,70.48,34.75,31.13,61.74,24.1,63.74,40.17,2.76,22.1-45.54,57.2-93.75,57.7-15.39.16-59.09-2.91-86.79-42.97-18.7-27.03-25.4-64.11-16.37-95.17Z" style="fill:#ffb53c;"/><path d="m84.71,180.89c8.2,10.64,7.41,12.94,7.03,13.59-1.97,3.36-13.81-1.71-17.19-3.15-4.73-2.03-17.14-7.94-29.42-21.8-1.5-1.7-6.9-7.91-12.29-17.44-4.38-7.75-9.85-17.44-7.87-19.67,1.76-1.97,13.64,7.22,37.33,25.69,2.39,1.86,12.32,9.71,22.41,22.79Z" style="fill:#ffaa3c;"/><path d="m48.35,49.56h0c-2.44.82-4.87-.19-5.44-2.25l-9.98-36.43c-.56-2.06.96-4.39,3.4-5.21h0c2.44-.82,4.87.19,5.44,2.25l9.98,36.43c.56,2.06-.96,4.39-3.4,5.21Z" style="fill:#8c6239;"/><ellipse cx="69.71" cy="19.01" rx="29.48" ry="9.88" transform="translate(-1.04 33.7) rotate(-26.98)" style="fill:#c8ff8a;"/></svg>