<?xml version="1.0" encoding="UTF-8"?>
<svg id="Layer_2" data-name="Layer 2" xmlns="http://www.w3.org/2000/svg" viewBox="0 0 1921 258.8">
  <defs>
    <style>
      .cls-1 {
        fill: none;
        stroke: #fff;
        stroke-miterlimit: 10;
        stroke-width: 2px;
      }
    </style>
  </defs>
  <g id="Layer_1-2" data-name="Layer 1">
    <path class="cls-1" d="m.73,64.19c19.16-3.95,46.6-9,79.83-13,45.2-5.44,130.15-15.09,236.51,1,95.77,14.49,74.94,31.2,149.69,38,120.81,10.99,230.52-27,230.52-27,28.44-9.85,39.65-16.64,69.85-23,20.59-4.34,59.88-10.55,136.72-2,79.93,8.9,75.35,19.84,133.72,24,52.21,3.72,91.67-2.49,145.7-11,65.2-10.26,78.69-20.76,141.7-33,42.1-8.17,89.31-21.19,147.69-16,30.56,2.72,47.36,8.42,61.87,17,29.23,17.29,42.02,42.65,46.9,50,19.8,29.77,95.49,43.41,339.29-26"/>
    <path class="cls-1" d="m.23,178.69c51.11-12.14,124.16-23.82,208-18,72.23,5.01,125.63,21.15,138,25,26.8,8.33,45.52,16.35,52,19,105.76,43.24,287.36,21.25,427,0,171.43-26.09,151.12-31.5,217-37,145.26-12.12,280.84,22.05,362,40,80.29,17.76,80.67,23.4,147,35,159.21,27.84,239.73,9.79,263,4,46.87-11.66,83.12-28.71,106-41"/>
  </g>
</svg>