<?xml version="1.0" encoding="UTF-8"?>
<svg id="Layer_2" data-name="Layer 2" xmlns="http://www.w3.org/2000/svg" viewBox="0 0 230 230">
  <defs>
    <style>
      .cls-1 {
        fill: #ffedaa;
      }

      .cls-2 {
        fill: #662d91;
      }

      .cls-3 {
        fill: #9d00df;
        opacity: .14;
      }

      .cls-4 {
        fill: #f4dc00;
        opacity: .33;
      }

      .cls-5 {
        opacity: .57;
      }

      .cls-6 {
        opacity: .83;
      }
    </style>
  </defs>
  <g class="cls-5">
    <circle class="cls-2" cx="115" cy="115" r="115"/>
  </g>
  <g class="cls-6">
    <ellipse class="cls-1" cx="115.46" cy="115.51" rx="107.12" ry="105.33"/>
  </g>
  <ellipse class="cls-4" cx="75.58" cy="53.94" rx="6.96" ry="17.3"/>
  <ellipse class="cls-3" cx="77.44" cy="56.99" rx="3.25" ry="10.18"/>
  <ellipse class="cls-4" cx="83.93" cy="46.81" rx="6.96" ry="17.3"/>
  <ellipse class="cls-3" cx="85.79" cy="49.87" rx="3.25" ry="10.18"/>
  <ellipse class="cls-4" cx="73.73" cy="73.27" rx="16.37" ry="7.35" transform="translate(-30.03 67.01) rotate(-41.37)"/>
  <ellipse class="cls-3" cx="75.58" cy="73.27" rx="9.81" ry="3.37" transform="translate(-28.49 89.1) rotate(-52.76)"/>
  <ellipse class="cls-4" cx="63.53" cy="72.26" rx="6.96" ry="17.3"/>
  <ellipse class="cls-3" cx="63.53" cy="75.31" rx="3.25" ry="10.18"/>
  <ellipse class="cls-4" cx="56.11" cy="67.17" rx="17.01" ry="7.08" transform="translate(-28.05 91.18) rotate(-66.05)"/>
  <ellipse class="cls-3" cx="56.11" cy="67.17" rx="10" ry="3.3" transform="translate(-28.21 90.62) rotate(-65.67)"/>
  <ellipse class="cls-4" cx="68.17" cy="49.87" rx="7.18" ry="16.76" transform="translate(-16.22 46.31) rotate(-33.77)"/>
  <ellipse class="cls-3" cx="69.06" cy="54.4" rx="3.43" ry="11.51" transform="translate(-16.51 34.21) rotate(-24.95)"/>
  <ellipse class="cls-4" cx="90.97" cy="74.3" rx="6.96" ry="17.3"/>
  <ellipse class="cls-3" cx="92.82" cy="77.36" rx="3.25" ry="10.18"/>
  <ellipse class="cls-4" cx="107.09" cy="66.07" rx="17.3" ry="6.96" transform="translate(37.86 171.14) rotate(-88.29)"/>
  <ellipse class="cls-3" cx="107.88" cy="65.54" rx="3.25" ry="10.18" transform="translate(-1.44 2.43) rotate(-1.28)"/>
  <ellipse class="cls-4" cx="110.96" cy="94.48" rx="17.12" ry="7.03" transform="translate(-14.04 169.41) rotate(-71.35)"/>
  <ellipse class="cls-3" cx="85.41" cy="112.98" rx="3.45" ry="9.56" transform="translate(-56.21 114.13) rotate(-53.38)"/>
  <ellipse class="cls-4" cx="78.91" cy="92.62" rx="6.96" ry="17.3"/>
  <ellipse class="cls-3" cx="78.91" cy="95.67" rx="3.25" ry="10.18"/>
  <ellipse class="cls-4" cx="71.49" cy="87.53" rx="7.14" ry="16.86" transform="translate(-34.36 47.93) rotate(-30.25)"/>
  <ellipse class="cls-3" cx="71.49" cy="87.53" rx="3.33" ry="9.91" transform="translate(-34.67 48.76) rotate(-30.7)"/>
  <ellipse class="cls-4" cx="83.55" cy="70.23" rx="7.18" ry="16.76" transform="translate(-24.94 58.29) rotate(-33.77)"/>
  <ellipse class="cls-3" cx="84.44" cy="74.77" rx="3.43" ry="11.51" transform="translate(-23.66 42.6) rotate(-24.95)"/>
  <ellipse class="cls-4" cx="107.5" cy="41.88" rx="7.12" ry="16.91" transform="translate(-7.06 55.57) rotate(-28.1)"/>
  <ellipse class="cls-3" cx="110.53" cy="43.43" rx="3.32" ry="9.94" transform="translate(-7.32 58.06) rotate(-28.52)"/>
  <ellipse class="cls-4" cx="111.24" cy="31.03" rx="7.12" ry="16.91" transform="translate(-1.5 56.05) rotate(-28.1)"/>
  <ellipse class="cls-3" cx="114.27" cy="32.57" rx="3.32" ry="9.94" transform="translate(-1.68 58.52) rotate(-28.52)"/>
  <ellipse class="cls-4" cx="115.11" cy="59.44" rx="17.12" ry="7.03" transform="translate(21.98 149.51) rotate(-71.35)"/>
  <ellipse class="cls-3" cx="116.69" cy="58.38" rx="10.16" ry="3.25" transform="translate(42.4 165.65) rotate(-81.87)"/>
  <ellipse class="cls-4" cx="105.92" cy="64.41" rx="7.12" ry="16.91" transform="translate(-17.85 57.48) rotate(-28.1)"/>
  <ellipse class="cls-3" cx="107.37" cy="67.02" rx="3.32" ry="9.94" transform="translate(-18.97 59.41) rotate(-28.52)"/>
  <ellipse class="cls-4" cx="91.68" cy="60.01" rx="17.01" ry="7.08" transform="translate(-.38 119.44) rotate(-66.05)"/>
  <ellipse class="cls-3" cx="91.68" cy="60.01" rx="10" ry="3.3" transform="translate(-.77 118.83) rotate(-65.67)"/>
  <ellipse class="cls-4" cx="99.24" cy="42.66" rx="7.53" ry="15.98" transform="translate(19.94 116) rotate(-66.03)"/>
  <ellipse class="cls-3" cx="102.16" cy="46.01" rx="3.59" ry="10.97" transform="translate(6.85 104.92) rotate(-55.97)"/>
  <ellipse class="cls-4" cx="130.31" cy="50.45" rx="7.12" ry="16.91" transform="translate(-8.4 67.32) rotate(-28.1)"/>
  <ellipse class="cls-3" cx="133.34" cy="52" rx="3.32" ry="9.94" transform="translate(-8.64 69.99) rotate(-28.52)"/>
  <ellipse class="cls-4" cx="134.04" cy="39.6" rx="17.3" ry="6.96" transform="translate(90.47 172.4) rotate(-88.29)"/>
  <ellipse class="cls-3" cx="134.83" cy="39.07" rx="3.25" ry="10.18" transform="translate(-.84 3.02) rotate(-1.28)"/>
  <ellipse class="cls-4" cx="137.91" cy="68.01" rx="17.12" ry="7.03" transform="translate(29.38 176.94) rotate(-71.35)"/>
  <ellipse class="cls-3" cx="139.5" cy="66.95" rx="10.16" ry="3.25" transform="translate(53.5 195.58) rotate(-81.87)"/>
  <ellipse class="cls-4" cx="128.73" cy="72.98" rx="7.12" ry="16.91" transform="translate(-19.2 69.23) rotate(-28.1)"/>
  <ellipse class="cls-3" cx="130.18" cy="75.59" rx="3.32" ry="9.94" transform="translate(-20.29 71.34) rotate(-28.52)"/>
  <ellipse class="cls-4" cx="119.98" cy="72.89" rx="7.49" ry="16.06" transform="translate(-.76 144.5) rotate(-61.95)"/>
  <ellipse class="cls-3" cx="119.98" cy="72.89" rx="3.5" ry="9.44" transform="translate(-.15 145.52) rotate(-62.44)"/>
  <ellipse class="cls-4" cx="122.04" cy="51.23" rx="7.53" ry="15.98" transform="translate(25.65 141.93) rotate(-66.03)"/>
  <ellipse class="cls-3" cx="124.96" cy="54.58" rx="3.59" ry="10.97" transform="translate(9.79 127.59) rotate(-55.97)"/>
  <ellipse class="cls-4" cx="120.27" cy="31.4" rx="7.48" ry="16.09" transform="translate(33.82 120.72) rotate(-60.57)"/>
  <ellipse class="cls-3" cx="120.08" cy="31.84" rx="3.39" ry="9.75" transform="translate(8.62 86.69) rotate(-41.05)"/>
  <ellipse class="cls-4" cx="90.6" cy="29.37" rx="16.38" ry="7.35" transform="translate(3.45 67.78) rotate(-41.75)"/>
  <ellipse class="cls-3" cx="90.86" cy="29.75" rx="9.37" ry="3.53" transform="translate(-4.66 33.81) rotate(-20.56)"/>
  <ellipse class="cls-4" cx="41.17" cy="141.49" rx="7.6" ry="15.84" transform="translate(-106.09 146.91) rotate(-75.89)"/>
  <ellipse class="cls-3" cx="44.28" cy="140.15" rx="3.55" ry="9.32" transform="translate(-102.4 149.66) rotate(-76.17)"/>
  <ellipse class="cls-4" cx="36.6" cy="131.03" rx="7.6" ry="15.84" transform="translate(-99.4 134.57) rotate(-75.89)"/>
  <ellipse class="cls-3" cx="39.71" cy="129.69" rx="3.55" ry="9.32" transform="translate(-95.71 137.26) rotate(-76.17)"/>
  <ellipse class="cls-4" cx="57.99" cy="147.6" rx="7.06" ry="17.04" transform="translate(-51.73 33.1) rotate(-22.33)"/>
  <ellipse class="cls-3" cx="58.38" cy="145.61" rx="3.35" ry="9.86" transform="translate(-71.37 57.44) rotate(-33.95)"/>
  <ellipse class="cls-4" cx="54.91" cy="158.32" rx="7.6" ry="15.84" transform="translate(-112.02 172.97) rotate(-75.89)"/>
  <ellipse class="cls-3" cx="57.63" cy="158.97" rx="3.55" ry="9.32" transform="translate(-110.51 176.94) rotate(-76.17)"/>
  <ellipse class="cls-4" cx="48.8" cy="165.19" rx="7.33" ry="16.41" transform="translate(-105.06 87.75) rotate(-46.82)"/>
  <ellipse class="cls-3" cx="48.8" cy="165.19" rx="3.42" ry="9.65" transform="translate(-105.8 89.24) rotate(-47.38)"/>
  <ellipse class="cls-4" cx="35.96" cy="148.58" rx="16.07" ry="7.49" transform="translate(-66.38 35.02) rotate(-28.42)"/>
  <ellipse class="cls-3" cx="40.19" cy="148.59" rx="10.76" ry="3.67" transform="translate(-41.59 18.18) rotate(-16.96)"/>
  <ellipse class="cls-4" cx="62.58" cy="129.33" rx="7.6" ry="15.84" transform="translate(-78.11 158.48) rotate(-75.89)"/>
  <ellipse class="cls-3" cx="65.69" cy="128" rx="3.55" ry="9.32" transform="translate(-74.3 161.19) rotate(-76.17)"/>
  <ellipse class="cls-4" cx="58.68" cy="110.3" rx="7.58" ry="15.87" transform="translate(-63.67 135.61) rotate(-73.68)"/>
  <ellipse class="cls-3" cx="58.37" cy="109.34" rx="3.55" ry="9.31" transform="translate(-60.84 143.24) rotate(-77.78)"/>
  <ellipse class="cls-4" cx="74.6" cy="112.2" rx="7.4" ry="16.26" transform="translate(-59.88 103.86) rotate(-52.83)"/>
  <ellipse class="cls-4" cx="76.32" cy="146.16" rx="7.6" ry="15.84" transform="translate(-84.04 184.53) rotate(-75.89)"/>
  <ellipse class="cls-4" cx="70.21" cy="153.03" rx="15.99" ry="7.53" transform="translate(-56.84 42.55) rotate(-24.35)"/>
  <ellipse class="cls-3" cx="70.21" cy="153.03" rx="9.4" ry="3.51" transform="translate(-55.98 41.57) rotate(-23.9)"/>
  <ellipse class="cls-4" cx="57.37" cy="136.42" rx="16.07" ry="7.49" transform="translate(-58.01 43.74) rotate(-28.42)"/>
  <ellipse class="cls-3" cx="61.6" cy="136.43" rx="10.76" ry="3.67" transform="translate(-37.11 23.9) rotate(-16.96)"/>
  <ellipse class="cls-4" cx="37.23" cy="104.71" rx="15.95" ry="7.55" transform="translate(-36.23 21.32) rotate(-21.8)"/>
  <ellipse class="cls-3" cx="39.25" cy="101.78" rx="9.38" ry="3.52" transform="translate(-34.42 21.33) rotate(-21.39)"/>
  <ellipse class="cls-4" cx="54.49" cy="100.29" rx="7.4" ry="16.26" transform="translate(-58.35 83.12) rotate(-52.83)"/>
  <ellipse class="cls-3" cx="53.88" cy="98.37" rx="3.51" ry="9.4" transform="translate(-57.88 107.83) rotate(-66.13)"/>
  <ellipse class="cls-4" cx="56.95" cy="111.2" rx="15.95" ry="7.55" transform="translate(-37.23 29.11) rotate(-21.8)"/>
  <ellipse class="cls-3" cx="59.58" cy="110.2" rx="9.38" ry="3.52" transform="translate(-36.09 29.33) rotate(-21.39)"/>
  <ellipse class="cls-4" cx="50" cy="125.52" rx="7.33" ry="16.41" transform="translate(-75.75 76.1) rotate(-46.82)"/>
  <ellipse class="cls-3" cx="50" cy="125.52" rx="3.42" ry="9.65" transform="translate(-76.22 77.32) rotate(-47.38)"/>
  <ellipse class="cls-4" cx="36.16" cy="113.73" rx="16.86" ry="7.14" transform="translate(-80.45 88.33) rotate(-60.07)"/>
  <ellipse class="cls-3" cx="39.77" cy="111.32" rx="11.25" ry="3.51" transform="translate(-70.97 69.96) rotate(-49.86)"/>
  <ellipse class="cls-4" cx="49.72" cy="82.08" rx="15.95" ry="7.55" transform="translate(-26.93 24.34) rotate(-21.8)"/>
  <ellipse class="cls-3" cx="51.74" cy="79.16" rx="9.38" ry="3.52" transform="translate(-25.31 24.33) rotate(-21.39)"/>
  <ellipse class="cls-4" cx="40.85" cy="75.76" rx="7.58" ry="15.87" transform="translate(-43.34 93.67) rotate(-73.68)"/>
  <ellipse class="cls-4" cx="66.97" cy="77.66" rx="7.4" ry="16.26" transform="translate(-35.38 84.12) rotate(-52.83)"/>
  <ellipse class="cls-3" cx="66.36" cy="75.74" rx="3.51" ry="9.4" transform="translate(-29.75 105.78) rotate(-66.13)"/>
  <ellipse class="cls-4" cx="69.44" cy="88.57" rx="15.95" ry="7.55" transform="translate(-27.93 32.13) rotate(-21.8)"/>
  <ellipse class="cls-3" cx="72.07" cy="87.57" rx="9.38" ry="3.52" transform="translate(-26.98 32.32) rotate(-21.39)"/>
  <ellipse class="cls-4" cx="67.49" cy="97.93" rx="16.77" ry="7.17" transform="translate(-51.42 100.27) rotate(-56.55)"/>
  <ellipse class="cls-3" cx="67.49" cy="97.93" rx="9.86" ry="3.35" transform="translate(-51.44 99.27) rotate(-56.07)"/>
  <ellipse class="cls-4" cx="48.65" cy="91.11" rx="16.86" ry="7.14" transform="translate(-54.58 87.82) rotate(-60.07)"/>
  <ellipse class="cls-3" cx="52.26" cy="88.69" rx="11.25" ry="3.51" transform="translate(-49.23 71.46) rotate(-49.86)"/>
  <ellipse class="cls-4" cx="133.31" cy="187.66" rx="17.27" ry="6.97" transform="translate(-71.06 293.59) rotate(-82.01)"/>
  <ellipse class="cls-3" cx="131.92" cy="184.33" rx="10.16" ry="3.25" transform="translate(-69.2 288.87) rotate(-81.87)"/>
  <ellipse class="cls-4" cx="124.05" cy="193.25" rx="17.27" ry="6.97" transform="translate(-84.57 289.21) rotate(-82.01)"/>
  <ellipse class="cls-3" cx="122.65" cy="189.91" rx="10.16" ry="3.25" transform="translate(-82.69 284.48) rotate(-81.87)"/>
  <ellipse class="cls-4" cx="137.94" cy="168.89" rx="16.14" ry="7.46" transform="translate(-68.34 98.18) rotate(-31.84)"/>
  <ellipse class="cls-3" cx="136.11" cy="168.57" rx="9.67" ry="3.42" transform="translate(-78.77 140.83) rotate(-43.73)"/>
  <ellipse class="cls-4" cx="147.86" cy="171.67" rx="17.27" ry="6.97" transform="translate(-42.7 294.23) rotate(-82.01)"/>
  <ellipse class="cls-3" cx="148.3" cy="168.66" rx="10.16" ry="3.25" transform="translate(-39.63 291.63) rotate(-81.87)"/>
  <ellipse class="cls-4" cx="154.45" cy="177.99" rx="16.8" ry="7.16" transform="translate(-78.61 212.88) rotate(-57.56)"/>
  <ellipse class="cls-3" cx="154.45" cy="177.99" rx="9.88" ry="3.34" transform="translate(-78.89 210.95) rotate(-57.09)"/>
  <ellipse class="cls-4" cx="140.05" cy="192.97" rx="7.09" ry="16.98" transform="translate(-68.92 78.15) rotate(-25.24)"/>
  <ellipse class="cls-3" cx="139.82" cy="188.34" rx="3.39" ry="11.62" transform="translate(-47.86 47.64) rotate(-16.55)"/>
  <ellipse class="cls-4" cx="121.06" cy="164.88" rx="17.27" ry="6.97" transform="translate(-59.05 261.84) rotate(-82.01)"/>
  <ellipse class="cls-3" cx="119.67" cy="161.55" rx="10.16" ry="3.25" transform="translate(-57.17 257.18) rotate(-81.87)"/>
  <ellipse class="cls-4" cx="103.96" cy="170.21" rx="17.25" ry="6.98" transform="translate(-81.35 243.97) rotate(-80.29)"/>
  <ellipse class="cls-3" cx="103.1" cy="170.6" rx="10.16" ry="3.25" transform="translate(-78.57 252.64) rotate(-83.16)"/>
  <ellipse class="cls-4" cx="104.24" cy="141.48" rx="16.94" ry="7.1" transform="translate(-69.13 170.24) rotate(-63.04)"/>
  <ellipse class="cls-4" cx="135.61" cy="148.89" rx="17.27" ry="6.97" transform="translate(-30.69 262.48) rotate(-82.01)"/>
  <ellipse class="cls-4" cx="142.2" cy="155.21" rx="7.06" ry="17.05" transform="translate(-47.52 64.01) rotate(-21.83)"/>
  <ellipse class="cls-3" cx="142.2" cy="155.21" rx="3.29" ry="10.03" transform="translate(-48.07 65.16) rotate(-22.18)"/>
  <ellipse class="cls-4" cx="127.8" cy="170.19" rx="7.09" ry="16.98" transform="translate(-60.37 70.75) rotate(-25.24)"/>
  <ellipse class="cls-3" cx="127.57" cy="165.56" rx="3.39" ry="11.62" transform="translate(-41.88 43.2) rotate(-16.55)"/>
  <ellipse class="cls-4" cx="100.06" cy="194.02" rx="7.04" ry="17.1" transform="translate(-59.67 45.22) rotate(-19.75)"/>
  <ellipse class="cls-3" cx="97.29" cy="191.97" rx="3.29" ry="10.05" transform="translate(-59.96 45.03) rotate(-20.07)"/>
  <ellipse class="cls-4" cx="95.08" cy="175.36" rx="16.94" ry="7.1" transform="translate(-104.33 180.6) rotate(-63.04)"/>
  <ellipse class="cls-3" cx="93.37" cy="176.13" rx="10.09" ry="3.27" transform="translate(-101.91 216.2) rotate(-73.67)"/>
  <ellipse class="cls-4" cx="104.87" cy="172.05" rx="7.04" ry="17.1" transform="translate(-51.97 45.56) rotate(-19.75)"/>
  <ellipse class="cls-3" cx="103.82" cy="169.22" rx="3.29" ry="10.05" transform="translate(-51.76 45.89) rotate(-20.07)"/>
  <ellipse class="cls-4" cx="118.29" cy="178.87" rx="16.8" ry="7.16" transform="translate(-96.12 182.77) rotate(-57.56)"/>
  <ellipse class="cls-3" cx="118.29" cy="178.87" rx="9.88" ry="3.34" transform="translate(-96.14 181) rotate(-57.09)"/>
  <ellipse class="cls-4" cx="108.33" cy="194.69" rx="7.44" ry="16.18" transform="translate(-113.71 176.32) rotate(-56.18)"/>
  <ellipse class="cls-3" cx="105.94" cy="190.87" rx="3.54" ry="11.13" transform="translate(-105.52 136.65) rotate(-46.59)"/>
  <ellipse class="cls-4" cx="78.78" cy="181.59" rx="7.04" ry="17.1" transform="translate(-56.73 37.3) rotate(-19.75)"/>
  <ellipse class="cls-3" cx="76.01" cy="179.54" rx="3.29" ry="10.05" transform="translate(-56.99 36.98) rotate(-20.07)"/>
  <ellipse class="cls-4" cx="73.53" cy="191.66" rx="17.25" ry="6.98" transform="translate(-127.79 231.8) rotate(-80.29)"/>
  <ellipse class="cls-4" cx="73.8" cy="162.93" rx="16.94" ry="7.1" transform="translate(-104.88 154.84) rotate(-63.04)"/>
  <ellipse class="cls-3" cx="72.09" cy="163.71" rx="10.09" ry="3.27" transform="translate(-105.28 186.84) rotate(-73.67)"/>
  <ellipse class="cls-4" cx="83.59" cy="159.62" rx="7.04" ry="17.1" transform="translate(-49.02 37.63) rotate(-19.75)"/>
  <ellipse class="cls-3" cx="82.54" cy="156.8" rx="3.29" ry="10.05" transform="translate(-48.79 37.84) rotate(-20.07)"/>
  <ellipse class="cls-4" cx="92.22" cy="161.24" rx="7.39" ry="16.28" transform="translate(-91.74 135.49) rotate(-52.27)"/>
  <ellipse class="cls-3" cx="92.22" cy="161.24" rx="3.45" ry="9.57" transform="translate(-91.97 137.25) rotate(-52.81)"/>
  <ellipse class="cls-4" cx="87.05" cy="182.27" rx="7.44" ry="16.18" transform="translate(-112.82 153.13) rotate(-56.18)"/>
  <ellipse class="cls-3" cx="84.66" cy="178.44" rx="3.54" ry="11.13" transform="translate(-103.15 117.3) rotate(-46.59)"/>
  <ellipse class="cls-4" cx="46.66" cy="62.51" rx="17.12" ry="7.03" transform="translate(-27.48 86.74) rotate(-71.35)"/>
  <ellipse class="cls-3" cx="47.07" cy="62.68" rx="9.81" ry="3.37" transform="translate(-31.32 62.22) rotate(-52.76)"/>
  <ellipse class="cls-3" cx="37.39" cy="74.72" rx="3.51" ry="9.4" transform="translate(-46.05 79.17) rotate(-66.47)"/>
  <ellipse class="cls-3" cx="102.28" cy="145.52" rx="9.81" ry="3.37" transform="translate(-75.47 138.88) rotate(-52.76)"/>
  <ellipse class="cls-3" cx="110.89" cy="98.37" rx="10.51" ry="3.28" transform="translate(-18.2 171.22) rotate(-71.01)"/>
  <ellipse class="cls-4" cx="95.57" cy="75.34" rx="17.12" ry="7.03" transform="translate(-6.37 141.8) rotate(-71.35)"/>
  <ellipse class="cls-3" cx="95.49" cy="79.22" rx="10.51" ry="3.28" transform="translate(-10.49 143.75) rotate(-71.01)"/>
  <ellipse class="cls-4" cx="33.43" cy="86.53" rx="17.12" ry="7.03" transform="translate(-59.25 90.54) rotate(-71.35)"/>
  <ellipse class="cls-3" cx="33.35" cy="90.42" rx="10.51" ry="3.28" transform="translate(-63 92.54) rotate(-71.01)"/>
  <ellipse class="cls-4" cx="63.11" cy="178.13" rx="17.12" ry="7.03" transform="translate(-125.85 180.97) rotate(-71.35)"/>
  <ellipse class="cls-3" cx="63.03" cy="182.01" rx="10.51" ry="3.28" transform="translate(-129.59 182.4) rotate(-71.01)"/>
  <ellipse class="cls-4" cx="90" cy="91.62" rx="17.12" ry="7.03" transform="translate(-25.59 147.61) rotate(-71.35)"/>
  <ellipse class="cls-3" cx="89.93" cy="95.51" rx="10.51" ry="3.28" transform="translate(-29.64 149.47) rotate(-71.01)"/>
  <ellipse class="cls-4" cx="72.38" cy="119.1" rx="7.63" ry="15.77" transform="translate(-49.47 186.75) rotate(-87.75)"/>
  <ellipse class="cls-3" cx="69.01" cy="120.3" rx="3.56" ry="9.68" transform="translate(-53.84 184.65) rotate(-87.8)"/>
  <ellipse class="cls-4" cx="128.68" cy="163.36" rx="16.66" ry="7.22" transform="translate(-79.27 165.14) rotate(-52.26)"/>
  <ellipse class="cls-4" cx="131.15" cy="172.57" rx="17.27" ry="6.97" transform="translate(-55.9 282.09) rotate(-83.12)"/>
  <ellipse class="cls-4" cx="188.63" cy="138.28" rx="7.34" ry="16.39" transform="translate(-40.62 184.62) rotate(-47.67)"/>
  <ellipse class="cls-3" cx="185.29" cy="137.98" rx="3.43" ry="9.64" transform="translate(-41.05 184.24) rotate(-48.22)"/>
  <ellipse class="cls-4" cx="188.53" cy="149.88" rx="7.34" ry="16.39" transform="translate(-49.23 188.33) rotate(-47.67)"/>
  <ellipse class="cls-3" cx="185.2" cy="149.58" rx="3.43" ry="9.64" transform="translate(-49.74 188.04) rotate(-48.22)"/>
  <ellipse class="cls-4" cx="175.97" cy="124.67" rx="17.3" ry="6.96" transform="translate(48.77 298.83) rotate(-89.17)"/>
  <ellipse class="cls-3" cx="174.82" cy="126.27" rx="3.26" ry="10.15" transform="translate(-19.03 31.77) rotate(-9.85)"/>
  <ellipse class="cls-4" cx="183.04" cy="116.53" rx="7.34" ry="16.39" transform="translate(-26.37 173.38) rotate(-47.67)"/>
  <ellipse class="cls-3" cx="180.86" cy="114.64" rx="3.43" ry="9.64" transform="translate(-25.12 173.14) rotate(-48.22)"/>
  <ellipse class="cls-4" cx="191.28" cy="113.31" rx="7.06" ry="17.05" transform="translate(-28.43 79.35) rotate(-21.85)"/>
  <ellipse class="cls-3" cx="191.28" cy="113.31" rx="3.29" ry="10.03" transform="translate(-28.64 80.68) rotate(-22.2)"/>
  <ellipse class="cls-4" cx="196.14" cy="134.43" rx="7.63" ry="15.77" transform="translate(58.01 327.98) rotate(-88.91)"/>
  <ellipse class="cls-3" cx="192.35" cy="132.38" rx="3.68" ry="10.72" transform="translate(22.29 292.39) rotate(-77.79)"/>
  <ellipse class="cls-4" cx="164.53" cy="138.86" rx="7.34" ry="16.39" transform="translate(-48.92 166.99) rotate(-47.67)"/>
  <ellipse class="cls-3" cx="162.12" cy="129.4" rx="3.43" ry="9.64" transform="translate(-42.39 164.09) rotate(-48.22)"/>
  <ellipse class="cls-4" cx="161.32" cy="148.68" rx="7.32" ry="16.44" transform="translate(-57.76 160.28) rotate(-45.7)"/>
  <ellipse class="cls-3" cx="161.21" cy="149.69" rx="3.44" ry="9.62" transform="translate(-57.23 175.79) rotate(-49.69)"/>
  <ellipse class="cls-4" cx="138.62" cy="134.35" rx="7.11" ry="16.93" transform="translate(-46.1 78.29) rotate(-27.22)"/>
  <ellipse class="cls-4" cx="159.86" cy="107.95" rx="7.34" ry="16.39" transform="translate(-27.59 153.44) rotate(-47.67)"/>
  <ellipse class="cls-4" cx="167.18" cy="113.89" rx="7.63" ry="15.78" transform="translate(38.09 269.63) rotate(-84.61)"/>
  <ellipse class="cls-3" cx="167.18" cy="113.89" rx="3.56" ry="9.28" transform="translate(38.4 269.89) rotate(-84.73)"/>
  <ellipse class="cls-4" cx="172.04" cy="135.01" rx="7.63" ry="15.77" transform="translate(33.79 304.45) rotate(-88.91)"/>
  <ellipse class="cls-3" cx="168.25" cy="132.96" rx="3.68" ry="10.72" transform="translate(2.72 269.29) rotate(-77.79)"/>
  <ellipse class="cls-4" cx="177.41" cy="173.21" rx="7.62" ry="15.79" transform="translate(-18.89 324.68) rotate(-81.97)"/>
  <ellipse class="cls-3" cx="174.42" cy="174.86" rx="3.56" ry="9.29" transform="translate(-22.66 323.72) rotate(-82.14)"/>
  <ellipse class="cls-4" cx="161.07" cy="159.69" rx="7.11" ry="16.93" transform="translate(-55.21 91.36) rotate(-27.22)"/>
  <ellipse class="cls-3" cx="160.84" cy="161.71" rx="3.38" ry="9.78" transform="translate(-65.97 137.74) rotate(-39.12)"/>
  <ellipse class="cls-4" cx="162.3" cy="157.86" rx="7.62" ry="15.79" transform="translate(-16.69 296.51) rotate(-81.97)"/>
  <ellipse class="cls-3" cx="160.47" cy="148.33" rx="3.56" ry="9.29" transform="translate(-8.42 286.99) rotate(-82.14)"/>
  <ellipse class="cls-4" cx="174.29" cy="148.35" rx="7.06" ry="17.05" transform="translate(-42.7 75.54) rotate(-21.85)"/>
  <ellipse class="cls-3" cx="174.29" cy="148.35" rx="3.29" ry="10.03" transform="translate(-43.14 76.85) rotate(-22.2)"/>
  <ellipse class="cls-4" cx="181.99" cy="165.63" rx="16.19" ry="7.43" transform="translate(-61.58 130.59) rotate(-34.12)"/>
  <ellipse class="cls-3" cx="177.78" cy="166.05" rx="10.82" ry="3.64" transform="translate(-50.43 81.81) rotate(-22.78)"/>
  <ellipse class="cls-4" cx="158.05" cy="178.34" rx="7.62" ry="15.79" transform="translate(-40.63 309.92) rotate(-81.97)"/>
  <ellipse class="cls-4" cx="142.94" cy="162.98" rx="7.62" ry="15.79" transform="translate(-38.42 281.75) rotate(-81.97)"/>
  <ellipse class="cls-3" cx="140.18" cy="162.61" rx="3.56" ry="9.29" transform="translate(-40.08 279.23) rotate(-82.14)"/>
  <ellipse class="cls-4" cx="148.44" cy="155.52" rx="16.1" ry="7.47" transform="translate(-58.02 95.57) rotate(-30.14)"/>
  <ellipse class="cls-3" cx="148.44" cy="155.52" rx="9.47" ry="3.49" transform="translate(-57.49 93.75) rotate(-29.64)"/>
  <ellipse class="cls-4" cx="162.63" cy="170.75" rx="16.19" ry="7.43" transform="translate(-67.78 120.61) rotate(-34.12)"/>
  <ellipse class="cls-3" cx="158.42" cy="171.18" rx="10.82" ry="3.64" transform="translate(-53.93 74.71) rotate(-22.78)"/>
  <ellipse class="cls-3" cx="140.87" cy="138.2" rx="3.28" ry="10.08" transform="translate(-35.94 50.56) rotate(-18.08)"/>
  <ellipse class="cls-4" cx="179.18" cy="118.98" rx="7.32" ry="16.44" transform="translate(-30.97 164.77) rotate(-45.88)"/>
  <ellipse class="cls-4" cx="187.51" cy="116.04" rx="7.04" ry="17.09" transform="translate(-28.57 72.07) rotate(-20.25)"/>
  <ellipse class="cls-3" cx="187.51" cy="116.04" rx="3.29" ry="10.05" transform="translate(-28.82 73.29) rotate(-20.57)"/>
  <ellipse class="cls-4" cx="174.15" cy="63.43" rx="15.97" ry="7.53" transform="translate(-10.88 74.19) rotate(-23.34)"/>
  <ellipse class="cls-3" cx="172.2" cy="66.41" rx="9.39" ry="3.52" transform="translate(-12.27 72.26) rotate(-22.91)"/>
  <ellipse class="cls-4" cx="183.16" cy="69.51" rx="15.97" ry="7.53" transform="translate(-12.55 78.25) rotate(-23.34)"/>
  <ellipse class="cls-3" cx="181.2" cy="72.49" rx="9.39" ry="3.52" transform="translate(-13.92 76.25) rotate(-22.91)"/>
  <ellipse class="cls-4" cx="157" cy="68.3" rx="7.42" ry="16.23" transform="translate(9.89 155.9) rotate(-54.28)"/>
  <ellipse class="cls-3" cx="157.65" cy="70.21" rx="3.52" ry="9.39" transform="translate(32.74 189.3) rotate(-67.64)"/>
  <ellipse class="cls-4" cx="154.29" cy="57.46" rx="15.97" ry="7.53" transform="translate(-10.14 65.83) rotate(-23.34)"/>
  <ellipse class="cls-3" cx="151.68" cy="58.53" rx="9.39" ry="3.52" transform="translate(-10.82 63.66) rotate(-22.91)"/>
  <ellipse class="cls-4" cx="156.03" cy="48.05" rx="7.62" ry="15.79" transform="translate(88.29 196.6) rotate(-82.6)"/>
  <ellipse class="cls-3" cx="156.03" cy="48.05" rx="3.56" ry="9.29" transform="translate(88.69 196.78) rotate(-82.76)"/>
  <ellipse class="cls-4" cx="175.02" cy="54.38" rx="16.9" ry="7.12" transform="translate(43.43 181.95) rotate(-61.37)"/>
  <ellipse class="cls-3" cx="171.47" cy="56.89" rx="11.27" ry="3.5" transform="translate(19.72 154.92) rotate(-51.22)"/>
  <ellipse class="cls-4" cx="162.17" cy="86.38" rx="15.97" ry="7.53" transform="translate(-20.95 71.32) rotate(-23.34)"/>
  <ellipse class="cls-3" cx="153.54" cy="83.76" rx="9.39" ry="3.52" transform="translate(-20.49 66.37) rotate(-22.91)"/>
  <ellipse class="cls-4" cx="168.18" cy="94.46" rx="15.94" ry="7.55" transform="translate(-22.77 67.14) rotate(-21.18)"/>
  <ellipse class="cls-3" cx="168.91" cy="95.09" rx="9.41" ry="3.51" transform="translate(-24.22 78.51) rotate(-24.47)"/>
  <ellipse class="cls-4" cx="135.63" cy="74.82" rx="15.97" ry="7.53" transform="translate(-18.54 59.86) rotate(-23.34)"/>
  <ellipse class="cls-4" cx="144.05" cy="71.01" rx="16.81" ry="7.16" transform="translate(7.3 155.22) rotate(-57.87)"/>
  <ellipse class="cls-3" cx="144.05" cy="71.01" rx="9.88" ry="3.34" transform="translate(6.62 154.1) rotate(-57.4)"/>
  <ellipse class="cls-4" cx="163.04" cy="77.33" rx="16.9" ry="7.12" transform="translate(17.04 183.38) rotate(-61.37)"/>
  <ellipse class="cls-3" cx="159.48" cy="79.84" rx="11.27" ry="3.5" transform="translate(-2.65 154.16) rotate(-51.22)"/>
  <ellipse class="cls-4" cx="195.63" cy="92" rx="16.75" ry="7.18" transform="translate(9.35 201.71) rotate(-55.68)"/>
  <ellipse class="cls-4" cx="176.64" cy="100.38" rx="7.63" ry="15.77" transform="translate(74.23 275.85) rotate(-89.34)"/>
  <ellipse class="cls-3" cx="178.1" cy="101.63" rx="9.31" ry="3.55" transform="translate(-18.13 42.12) rotate(-12.84)"/>
  <ellipse class="cls-4" cx="175.85" cy="98.28" rx="16.75" ry="7.18" transform="translate(-4.46 188.11) rotate(-55.68)"/>
  <ellipse class="cls-3" cx="167.46" cy="95.09" rx="9.85" ry="3.35" transform="translate(-6.2 178.32) rotate(-55.19)"/>
  <ellipse class="cls-4" cx="174.61" cy="82.1" rx="7.62" ry="15.79" transform="translate(70.71 244.69) rotate(-82.6)"/>
  <ellipse class="cls-3" cx="174.61" cy="82.1" rx="3.56" ry="9.29" transform="translate(71.15 244.98) rotate(-82.76)"/>
  <ellipse class="cls-4" cx="192.07" cy="83.78" rx="17.3" ry="6.96" transform="translate(106.62 275.11) rotate(-89.5)"/>
  <ellipse class="cls-3" cx="190.23" cy="87.96" rx="11.69" ry="3.37" transform="translate(72.24 261.17) rotate(-80.55)"/>
  <ellipse class="cls-4" cx="169.86" cy="119.12" rx="16.75" ry="7.18" transform="translate(-24.29 192.26) rotate(-55.68)"/>
  <ellipse class="cls-4" cx="166.87" cy="110.1" rx="17.29" ry="6.96" transform="translate(46.05 269.38) rotate(-86.23)"/>
  <ellipse class="cls-3" cx="166.87" cy="110.1" rx="10.17" ry="3.25" transform="translate(45.88 269.25) rotate(-86.17)"/>
  <ellipse class="cls-4" cx="186.08" cy="104.62" rx="17.3" ry="6.96" transform="translate(79.84 289.79) rotate(-89.5)"/>
  <ellipse class="cls-3" cx="184.24" cy="108.8" rx="11.69" ry="3.37" transform="translate(46.68 272.69) rotate(-80.55)"/>
  <ellipse class="cls-4" cx="139.02" cy="139.64" rx="17.3" ry="6.96" transform="translate(-2.62 276.64) rotate(-89.17)"/>
  <ellipse class="cls-4" cx="146.09" cy="131.5" rx="7.34" ry="16.39" transform="translate(-49.51 150.95) rotate(-47.67)"/>
  <ellipse class="cls-3" cx="143.9" cy="129.61" rx="3.43" ry="9.64" transform="translate(-48.62 150.58) rotate(-48.22)"/>
  <ellipse class="cls-4" cx="154.33" cy="128.29" rx="7.06" ry="17.05" transform="translate(-36.66 66.67) rotate(-21.85)"/>
  <ellipse class="cls-3" cx="154.33" cy="128.29" rx="3.29" ry="10.03" transform="translate(-37.03 67.83) rotate(-22.2)"/>
  <ellipse class="cls-4" cx="122.91" cy="122.92" rx="7.34" ry="16.39" transform="translate(-50.73 131.02) rotate(-47.67)"/>
  <ellipse class="cls-4" cx="130.23" cy="128.86" rx="7.63" ry="15.78" transform="translate(-10.3 246.41) rotate(-84.61)"/>
  <ellipse class="cls-3" cx="130.23" cy="128.86" rx="3.56" ry="9.28" transform="translate(-10.06 246.69) rotate(-84.73)"/>
  <ellipse class="cls-4" cx="142.23" cy="133.95" rx="7.32" ry="16.44" transform="translate(-52.94 142.8) rotate(-45.88)"/>
  <ellipse class="cls-4" cx="150.56" cy="131.01" rx="7.04" ry="17.09" transform="translate(-36.04 60.2) rotate(-20.25)"/>
  <ellipse class="cls-3" cx="97.7" cy="104.55" rx="3.29" ry="10.05" transform="translate(-30.51 41) rotate(-20.57)"/>
  <ellipse class="cls-4" cx="137.2" cy="78.4" rx="15.97" ry="7.53" transform="translate(-19.83 60.77) rotate(-23.34)"/>
  <ellipse class="cls-3" cx="135.25" cy="81.38" rx="9.39" ry="3.52" transform="translate(-21.01 59.06) rotate(-22.91)"/>
  <ellipse class="cls-4" cx="146.21" cy="84.48" rx="15.97" ry="7.53" transform="translate(-21.51 64.84) rotate(-23.34)"/>
  <ellipse class="cls-3" cx="144.25" cy="87.46" rx="9.39" ry="3.52" transform="translate(-22.67 63.05) rotate(-22.91)"/>
  <ellipse class="cls-4" cx="120.05" cy="83.28" rx="7.42" ry="16.23" transform="translate(-17.65 132.13) rotate(-54.28)"/>
  <ellipse class="cls-3" cx="120.7" cy="85.18" rx="3.52" ry="9.39" transform="translate(-4 164.4) rotate(-67.64)"/>
  <ellipse class="cls-4" cx="117.34" cy="72.44" rx="15.97" ry="7.53" transform="translate(-19.1 52.42) rotate(-23.34)"/>
  <ellipse class="cls-3" cx="114.73" cy="73.51" rx="9.39" ry="3.52" transform="translate(-19.56 50.46) rotate(-22.91)"/>
  <ellipse class="cls-4" cx="138.07" cy="69.35" rx="16.9" ry="7.12" transform="translate(11.04 157.31) rotate(-61.37)"/>
  <ellipse class="cls-3" cx="134.52" cy="71.86" rx="11.27" ry="3.5" transform="translate(-5.76 131.71) rotate(-51.22)"/>
  <ellipse class="cls-4" cx="125.22" cy="101.35" rx="15.97" ry="7.53" transform="translate(-29.91 57.9) rotate(-23.34)"/>
  <ellipse class="cls-3" cx="116.59" cy="98.73" rx="9.39" ry="3.52" transform="translate(-29.24 53.17) rotate(-22.91)"/>
  <ellipse class="cls-4" cx="131.23" cy="109.43" rx="15.94" ry="7.55" transform="translate(-30.67 54.8) rotate(-21.18)"/>
  <ellipse class="cls-3" cx="131.96" cy="110.06" rx="9.41" ry="3.51" transform="translate(-33.74 64.55) rotate(-24.47)"/>
  <ellipse class="cls-4" cx="98.68" cy="89.79" rx="15.97" ry="7.53" transform="translate(-27.5 46.44) rotate(-23.34)"/>
  <ellipse class="cls-4" cx="107.1" cy="85.98" rx="16.81" ry="7.16" transform="translate(-22.67 130.94) rotate(-57.87)"/>
  <ellipse class="cls-3" cx="107.1" cy="85.98" rx="9.88" ry="3.34" transform="translate(-23.04 129.88) rotate(-57.4)"/>
  <ellipse class="cls-4" cx="126.09" cy="92.3" rx="16.9" ry="7.12" transform="translate(-15.34 158.75) rotate(-61.37)"/>
  <ellipse class="cls-3" cx="122.53" cy="94.81" rx="11.27" ry="3.5" transform="translate(-28.13 130.95) rotate(-51.22)"/>
  <ellipse class="cls-4" cx="158.68" cy="106.97" rx="16.75" ry="7.18" transform="translate(-19.13 177.73) rotate(-55.68)"/>
  <ellipse class="cls-4" cx="139.69" cy="115.35" rx="7.63" ry="15.77" transform="translate(22.74 253.71) rotate(-89.34)"/>
  <ellipse class="cls-3" cx="141.15" cy="116.61" rx="9.31" ry="3.55" transform="translate(-22.39 34.29) rotate(-12.84)"/>
  <ellipse class="cls-4" cx="138.9" cy="113.25" rx="16.75" ry="7.18" transform="translate(-32.94 164.13) rotate(-55.68)"/>
  <ellipse class="cls-3" cx="130.51" cy="110.06" rx="9.85" ry="3.35" transform="translate(-34.35 154.4) rotate(-55.19)"/>
  <ellipse class="cls-4" cx="137.66" cy="97.08" rx="7.62" ry="15.79" transform="translate(23.67 221.1) rotate(-82.6)"/>
  <ellipse class="cls-3" cx="137.66" cy="97.08" rx="3.56" ry="9.29" transform="translate(24.01 221.41) rotate(-82.76)"/>
  <ellipse class="cls-4" cx="155.12" cy="98.75" rx="17.3" ry="6.96" transform="translate(55.02 253.01) rotate(-89.5)"/>
  <ellipse class="cls-3" cx="153.28" cy="102.93" rx="11.69" ry="3.37" transform="translate(26.59 237.24) rotate(-80.55)"/>
  <ellipse class="cls-4" cx="107.87" cy="116.79" rx="16.75" ry="7.18" transform="translate(-49.41 140.05) rotate(-55.68)"/>
  <ellipse class="cls-4" cx="113.23" cy="118.96" rx="17.29" ry="6.96" transform="translate(-12.91 224.14) rotate(-86.23)"/>
  <ellipse class="cls-3" cx="111.38" cy="115.91" rx="10.17" ry="3.25" transform="translate(-11.71 219.3) rotate(-86.17)"/>
  <ellipse class="cls-4" cx="149.13" cy="119.6" rx="17.3" ry="6.96" transform="translate(28.24 267.68) rotate(-89.5)"/>
  <ellipse class="cls-3" cx="147.29" cy="123.77" rx="11.69" ry="3.37" transform="translate(1.02 248.75) rotate(-80.55)"/>
  <ellipse class="cls-4" cx="120.77" cy="135.73" rx="7.34" ry="16.39" transform="translate(-60.9 133.61) rotate(-47.67)"/>
  <ellipse class="cls-4" cx="128.08" cy="141.67" rx="7.63" ry="15.78" transform="translate(-24.99 255.88) rotate(-84.61)"/>
  <ellipse class="cls-3" cx="128.08" cy="141.67" rx="3.56" ry="9.28" transform="translate(-24.76 256.19) rotate(-84.73)"/>
  <ellipse class="cls-4" cx="127.78" cy="137.87" rx="17.29" ry="6.96" transform="translate(-18.19 256.32) rotate(-86.23)"/>
  <ellipse class="cls-4" cx="115.23" cy="156.06" rx="7.06" ry="17.05" transform="translate(-49.81 54.11) rotate(-21.85)"/>
  <ellipse class="cls-4" cx="83.82" cy="150.7" rx="7.34" ry="16.39" transform="translate(-84.04 111.19) rotate(-47.67)"/>
  <ellipse class="cls-4" cx="92.13" cy="137.21" rx="15.94" ry="7.55" transform="translate(-43.35 42.55) rotate(-21.18)"/>
  <ellipse class="cls-3" cx="92.86" cy="137.84" rx="9.41" ry="3.51" transform="translate(-48.76 50.85) rotate(-24.47)"/>
  <ellipse class="cls-4" cx="93.62" cy="43.16" rx="16.75" ry="7.18" transform="translate(5.19 96.15) rotate(-55.68)"/>
  <ellipse class="cls-4" cx="100.6" cy="143.13" rx="7.63" ry="15.77" transform="translate(-43.68 242.07) rotate(-89.34)"/>
  <ellipse class="cls-3" cx="102.06" cy="144.38" rx="9.31" ry="3.55" transform="translate(-29.54 26.29) rotate(-12.84)"/>
  <ellipse class="cls-4" cx="99.8" cy="141.03" rx="16.75" ry="7.18" transform="translate(-72.94 143.95) rotate(-55.68)"/>
  <ellipse class="cls-3" cx="91.42" cy="137.83" rx="9.85" ry="3.35" transform="translate(-73.94 134.22) rotate(-55.19)"/>
  <ellipse class="cls-4" cx="113.65" cy="100.74" rx="17.3" ry="6.96" transform="translate(11.92 213.51) rotate(-89.5)"/>
  <ellipse class="cls-3" cx="114.18" cy="130.71" rx="11.69" ry="3.37" transform="translate(-33.49 221.89) rotate(-80.55)"/>
  <ellipse class="cls-4" cx="97.32" cy="109.09" rx="17.29" ry="6.96" transform="translate(-17.92 199.03) rotate(-86.23)"/>
  <ellipse class="cls-4" cx="110.04" cy="147.37" rx="17.3" ry="6.96" transform="translate(-38.29 256.12) rotate(-89.5)"/>
  <ellipse class="cls-3" cx="108.2" cy="151.55" rx="11.69" ry="3.37" transform="translate(-59.06 233.4) rotate(-80.55)"/>
  <ellipse class="cls-4" cx="98.39" cy="129.72" rx="6.99" ry="17.23" transform="translate(-24.04 22.4) rotate(-11.58)"/>
  <ellipse class="cls-4" cx="100.75" cy="139.36" rx="7.29" ry="16.52" transform="translate(-67.96 106.07) rotate(-42.97)"/>
  <ellipse class="cls-3" cx="100.75" cy="139.36" rx="3.4" ry="9.71" transform="translate(-68.27 107.67) rotate(-43.51)"/>
  <ellipse class="cls-4" cx="91.53" cy="105.65" rx="16.63" ry="7.24" transform="translate(-48.16 110.73) rotate(-51.18)"/>
  <ellipse class="cls-4" cx="82.54" cy="141.88" rx="17.22" ry="6.99" transform="translate(-73.49 192.85) rotate(-77.9)"/>
  <ellipse class="cls-4" cx="60.95" cy="116.26" rx="6.99" ry="17.23" transform="translate(-22.1 14.61) rotate(-11.58)"/>
  <ellipse class="cls-4" cx="75.11" cy="111.36" rx="7.54" ry="15.96" transform="translate(-56.55 137.97) rotate(-67.43)"/>
  <ellipse class="cls-3" cx="75.32" cy="112.35" rx="3.53" ry="9.35" transform="translate(-55.07 148.29) rotate(-71.57)"/>
  <ellipse class="cls-4" cx="139.75" cy="37.57" rx="15.86" ry="7.59" transform="translate(-4.96 38.82) rotate(-15.54)"/>
  <ellipse class="cls-4" cx="78.39" cy="121.77" rx="7.33" ry="16.41" transform="translate(-64.17 96.28) rotate(-47.09)"/>
  <ellipse class="cls-3" cx="78.82" cy="123.74" rx="3.49" ry="9.47" transform="translate(-67.74 130.43) rotate(-60.12)"/>
  <ellipse class="cls-4" cx="78.96" cy="119.58" rx="15.86" ry="7.59" transform="translate(-29.15 25.53) rotate(-15.54)"/>
  <ellipse class="cls-3" cx="74.19" cy="111.36" rx="9.33" ry="3.54" transform="translate(-26.65 23.4) rotate(-15.23)"/>
  <ellipse class="cls-4" cx="99.88" cy="119.28" rx="16.73" ry="7.19" transform="translate(-55.17 132.08) rotate(-54.78)"/>
  <ellipse class="cls-3" cx="96.07" cy="121.3" rx="11.15" ry="3.54" transform="translate(-57.4 101.57) rotate(-44.29)"/>
  <ellipse class="cls-4" cx="65.23" cy="122.72" rx="16.63" ry="7.24" transform="translate(-71.27 96.6) rotate(-51.18)"/>
  <ellipse class="cls-4" cx="83.39" cy="131.53" rx="16.73" ry="7.19" transform="translate(-72.16 123.8) rotate(-54.78)"/>
  <ellipse class="cls-3" cx="79.58" cy="133.55" rx="11.15" ry="3.54" transform="translate(-70.64 93.53) rotate(-44.29)"/>
  <ellipse class="cls-4" cx="147.38" cy="44.43" rx="15.97" ry="7.53" transform="translate(-5.54 62.03) rotate(-23.34)"/>
  <ellipse class="cls-4" cx="149.13" cy="35.02" rx="7.62" ry="15.79" transform="translate(95.19 178.4) rotate(-82.6)"/>
  <ellipse class="cls-3" cx="149.13" cy="35.02" rx="3.56" ry="9.29" transform="translate(95.58 178.55) rotate(-82.76)"/>
  <ellipse class="cls-4" cx="201.34" cy="111.43" rx="7.08" ry="17" transform="translate(-28.04 93.02) rotate(-24.37)"/>
  <ellipse class="cls-3" cx="201.19" cy="106.79" rx="3.39" ry="11.63" transform="translate(-21.39 58.39) rotate(-15.69)"/>
  <ellipse class="cls-4" cx="87.71" cy="199.8" rx="16" ry="7.52" transform="translate(-76.03 55.57) rotate(-24.92)"/>
  <ellipse class="cls-4" cx="88.37" cy="190.73" rx="16.93" ry="7.11" transform="translate(-121.65 181.8) rotate(-62.71)"/>
  <ellipse class="cls-3" cx="84.87" cy="193.34" rx="11.3" ry="3.49" transform="translate(-120.29 143.42) rotate(-52.62)"/>
  <ellipse class="cls-4" cx="165.44" cy="47.56" rx="17.12" ry="7.03" transform="translate(67.48 189.11) rotate(-71.35)"/>
  <ellipse class="cls-3" cx="165.36" cy="51.45" rx="10.51" ry="3.28" transform="translate(62.92 191.08) rotate(-71.01)"/>
</svg>