<?xml version="1.0" encoding="UTF-8"?>
<svg id="Layer_1" data-name="Layer 1" xmlns="http://www.w3.org/2000/svg" viewBox="0 0 477.5 894">
  <defs>
    <style>
      .cls-1 {
        fill: #aef68a;
      }

      .cls-2 {
        fill: #c8ff8a;
      }

      .cls-3 {
        fill: #99ff8a;
      }
    </style>
  </defs>
  <path class="cls-2" d="M370.41,619.3c-.5-5.2-67-25.5-100.7,1.2-9.8,7.7-17.1,19.7-19.9,24.2-3.3,5.4-10.8,18.6-14.5,35.9-7.1,33.5,2.4,73,11.2,74.5,4.2,.7,5.6-7.6,26.3-51.6,9.4-20.1,13.1-26.8,16.1-31.9,11.8-20.4,17.7-30.6,28.2-38.2,24-17.6,53.6-10.7,53.3-14.1Z"/>
  <path class="cls-3" d="M291.01,566.6c-3-4.4-71.4,8.7-87.9,47.9-4.8,11.3-5.4,25.3-5.6,30.5-.3,6.2-.4,21.4,4.9,38.3,10.2,32.7,38,63,46.4,60.2,4-1.4,1.2-9.3-2.2-57.6-1.6-22-1.6-29.6-1.5-35.5,.4-23.4,.6-35.1,6-46.7,12.4-26.5,41.9-34.2,39.9-37.1Z"/>
  <path class="cls-3" d="M354.91,697.4c-.3-4-53.1-26.8-80.4-10.1-7.9,4.8-14,13.1-16.3,16.3-2.7,3.7-8.9,13-12.1,25.8-6.1,24.8,.8,56,7.8,58,3.3,1,4.6-5.2,21.8-36.5,7.9-14.3,10.9-19,13.3-22.5,9.8-14.2,14.6-21.4,23.1-26.1,19.4-10.7,43-2.2,42.8-4.9Z"/>
  <path class="cls-2" d="M217.01,785.8c6.8,1,26-36.7,14.6-66.6-3.8-10-10.8-18.6-11.7-19.6-7.2-8.7-14.8-13.6-22.3-18.3-4.2-2.7-12.9-8.2-23.5-12-26.5-9.5-55.4-5.1-55.8-1.2-.3,2.5,11.9,2.8,31.7,12.3,10.8,5.2,25.2,12.1,36.8,25.9,9.7,11.6,13.3,23.2,19.8,44.2,8,25.6,6.8,34.7,10.4,35.3Z"/>
  <path class="cls-1" d="M222.21,783.9c10.1,.3,45.5-56.1,33.5-96.5-4-13.5-13.1-24.5-14.3-25.8-9.4-11.1-20-16.8-30.4-22.2-5.9-3.1-18-9.5-33.5-13.1-38.3-9.1-82.8,1.9-84.1,7.4-.8,3.6,17.5,2.1,45.7,12.3,15.4,5.6,36,13,51.1,30.6,12.6,14.8,16.1,30.6,22.3,59.2,7.7,34.8,4.2,47.9,9.7,48.1Z"/>
</svg>