<?xml version="1.0" encoding="UTF-8"?>
<svg id="Layer_2" data-name="Layer 2" xmlns="http://www.w3.org/2000/svg" viewBox="0 0 612.23 86.29">
  <defs>
    <style>
      .cls-1 {
        fill: #fff;
      }

      .cls-2 {
        isolation: isolate;
      }

      .cls-3 {
        fill: #fbc8c7;
      }
    </style>
  </defs>
  <g id="Layer_1-2" data-name="Layer 1">
    <g>
      <g id="Frugtskålen" class="cls-2">
        <g class="cls-2">
          <path class="cls-3" d="m30.73,25.8v51.06c0,1.13.22,1.94.65,2.43.23.29.45.47.65.54.2.07.87.25,2,.54,1.39.32,2.09,1.12,2.09,2.39,0,.75-.38,1.36-1.13,1.83-.55.35-1.46.52-2.74.52H10.26c-1.04,0-1.85-.2-2.41-.59-.57-.39-.85-.95-.85-1.67,0-1.19.58-1.97,1.74-2.35.96-.32,1.51-.51,1.67-.59.16-.07.33-.24.5-.5.35-.46.52-1.2.52-2.22v-43.5c0-1.01-.17-1.75-.52-2.22-.17-.26-.34-.43-.5-.5-.16-.07-.72-.27-1.67-.59-1.16-.38-1.74-1.16-1.74-2.35,0-.72.28-1.28.85-1.67.56-.39,1.37-.59,2.41-.59h20.47Zm3.61,31.64v-5.04c1.71-.81,2.96-1.69,3.76-2.63.8-.94,1.38-2.22,1.76-3.85.23-1.1.54-1.86.91-2.28.38-.42.91-.63,1.61-.63.93,0,1.56.36,1.91,1.09.2.38.3,1.23.3,2.56v16.56c0,1.36-.15,2.3-.46,2.82-.3.52-.86.78-1.67.78-.67,0-1.19-.2-1.56-.61-.38-.41-.68-1.09-.91-2.04-.52-2-1.23-3.53-2.13-4.61-.9-1.07-2.07-1.78-3.52-2.13Zm.22-31.64h17.51v15.17c0,.99-.17,1.7-.52,2.13-.35.44-.91.65-1.69.65-.58,0-1.04-.15-1.37-.46-.33-.3-.62-.82-.85-1.54-.43-1.42-1-2.72-1.69-3.91-.7-1.19-1.48-2.2-2.35-3.04-1.19-1.16-2.49-2.04-3.91-2.65-1.42-.61-3.13-1.03-5.13-1.26v-5.08Z"/>
          <path class="cls-3" d="m81.14,25.8v51.06c0,1.13.22,1.94.65,2.43.23.29.45.47.65.54.2.07.87.25,2,.54,1.39.32,2.09,1.12,2.09,2.39,0,.75-.38,1.36-1.13,1.83-.55.35-1.46.52-2.74.52h-21.99c-1.04,0-1.85-.2-2.41-.59-.57-.39-.85-.95-.85-1.67,0-1.19.58-1.97,1.74-2.35.96-.32,1.51-.51,1.67-.59.16-.07.33-.24.5-.5.35-.46.52-1.2.52-2.22v-43.5c0-1.01-.17-1.75-.52-2.22-.17-.26-.34-.43-.5-.5-.16-.07-.72-.27-1.67-.59-1.16-.38-1.74-1.16-1.74-2.35,0-.72.28-1.28.85-1.67.56-.39,1.37-.59,2.41-.59h20.47Zm13.34,30.25c2.67.41,4.72.85,6.15,1.35,1.43.49,2.73,1.16,3.89,2,1.22.9,2.15,1.97,2.8,3.22.65,1.25.98,2.56.98,3.95v9c0,.93.3,1.39.91,1.39.23,0,.43-.07.59-.2.16-.13.38-.38.67-.76.72-.98,1.46-1.48,2.22-1.48.49,0,.98.26,1.48.78.49.52.74,1.04.74,1.56,0,.9-.43,1.99-1.28,3.28-.85,1.29-1.92,2.44-3.19,3.45-1.19.96-2.48,1.64-3.87,2.06s-3.03.63-4.91.63c-3.82,0-6.81-1.09-8.95-3.28-2.14-2.19-3.22-5.24-3.22-9.15v-7.3c0-1.62-.02-2.56-.04-2.82-.15-1.16-.55-2.16-1.22-3-.84-1.01-2.04-1.61-3.61-1.78v-4.65c1.56-.23,2.68-.64,3.35-1.22.58-.52.98-1.12,1.19-1.78.22-.67.33-1.65.33-2.96v-11.52c0-1.82-.35-3.19-1.06-4.08-.71-.9-1.99-1.61-3.85-2.13v-4.82h1.13c3.22,0,5.95.12,8.21.35,3.36.32,6.36,1.42,9,3.3,3.79,2.69,5.69,6.53,5.69,11.52,0,4.08-1.28,7.43-3.82,10.04-1.07,1.1-2.33,2-3.76,2.69-1.43.7-3.61,1.48-6.54,2.35Z"/>
          <path class="cls-3" d="m123.33,67.78v-34.07c0-1.01-.17-1.75-.52-2.22-.17-.26-.34-.43-.5-.5-.16-.07-.72-.27-1.67-.59-1.16-.38-1.74-1.14-1.74-2.3,0-.75.28-1.33.85-1.72.57-.39,1.37-.59,2.41-.59h21.64l1.56.17c.49.14.9.41,1.22.78.32.38.48.83.48,1.35,0,1.16-.58,1.93-1.74,2.3-.96.32-1.51.52-1.67.59-.16.07-.33.24-.5.5-.35.46-.52,1.2-.52,2.22v36.46c0,2.46.06,4.18.2,5.15.13.97.4,1.85.8,2.63.38.72.8,1.25,1.26,1.56.46.32,1.35.68,2.65,1.09v5.69h-.96c-3.77,0-6.9-.33-9.39-1-2.93-.78-5.49-1.94-7.69-3.48-2.2-1.54-3.77-3.26-4.69-5.17-.99-2.03-1.48-4.98-1.48-8.87Zm28.2,18.51v-5.69c2.9-.38,5.32-1.56,7.26-3.56,2.2-2.29,3.3-5.58,3.3-9.86v-28.33c0-3.97-1.52-6.74-4.56-8.3-.9-.46-1.48-.86-1.76-1.2-.28-.33-.41-.82-.41-1.46,0-.75.27-1.29.83-1.61.55-.32,1.45-.48,2.69-.48h10.65c.9,0,1.5.02,1.8.06.3.04.6.15.89.33.75.43,1.13,1.03,1.13,1.78,0,.64-.23,1.17-.7,1.61-.15.15-.77.54-1.87,1.17-1.28.7-2.27,1.76-3,3.19-.72,1.43-1.09,3.06-1.09,4.89v28.38c0,4.87-1.07,8.87-3.22,11.99-1.56,2.32-3.81,4.17-6.74,5.56-1.45.7-3.19,1.2-5.21,1.52Z"/>
          <path class="cls-3" d="m202.51,24.62v4.82c-2.55.61-3.82,2.64-3.82,6.08v40.46c0,1.56.22,2.77.65,3.61.38.7,1.17,1.29,2.39,1.78v4.91c-.93,0-1.77-.07-2.54-.22-.77-.15-1.79-.43-3.06-.87-3.04-1.04-5.79-2.64-8.26-4.78-2.46-2.14-4.49-4.71-6.08-7.69-2.46-4.67-3.69-10.18-3.69-16.56s1.1-11.65,3.3-16.43c2.2-4.78,5.36-8.53,9.47-11.26,2.38-1.59,4.92-2.74,7.65-3.43,1.13-.29,2.46-.43,4-.43Zm23.21,53.23c-1.16,1.16-2.7,2.34-4.63,3.54-1.93,1.2-3.74,2.15-5.45,2.85-1.56.61-3.3,1.1-5.19,1.48-1.9.38-3.57.57-5.02.57v-4.91c.84-.2,1.47-.45,1.89-.74.42-.29.77-.7,1.06-1.22.49-.9.74-2.04.74-3.43v-12.69c0-1.13-.22-1.94-.65-2.43-.2-.29-.41-.47-.61-.54-.2-.07-.87-.24-2-.5-1.39-.35-2.09-1.16-2.09-2.43,0-.75.33-1.33.98-1.74.65-.41,1.61-.61,2.89-.61h17.34c1.3,0,2.22.18,2.76.54.54.36.8.99.8,1.89,0,.55-.11,1.01-.33,1.37-.22.36-.62.75-1.19,1.15-.58.41-.94.78-1.09,1.13-.15.35-.22.99-.22,1.91v14.82Zm-19.64-48.5v-4.69c4.72.44,8.6,1.3,11.65,2.61.9.41,1.59.61,2.09.61.46,0,.82-.11,1.06-.33.25-.22.75-.83,1.5-1.85.52-.72,1.17-1.09,1.96-1.09s1.38.22,1.72.67.5,1.2.5,2.24v16.9c0,2.2-.81,3.3-2.43,3.3-.81,0-1.41-.22-1.8-.65-.39-.43-.76-1.29-1.11-2.56-.43-1.62-1.22-3.51-2.35-5.67s-2.22-3.86-3.26-5.11c-1.19-1.45-2.52-2.51-4-3.19-1.48-.68-3.32-1.08-5.52-1.2Z"/>
          <path class="cls-3" d="m233.28,25.8h11.43v5.26c-1.36.78-2.42,1.78-3.17,3-1.25,1.97-2.09,4.3-2.52,7l-.43,2.65c-.15.84-.46,1.5-.93,1.98s-1.08.72-1.8.72-1.37-.26-1.85-.78c-.48-.52-.72-1.2-.72-2.04v-17.77Zm34.24,0v51.06c0,1.13.22,1.94.65,2.43.23.29.45.47.65.54.2.07.87.25,2,.54,1.39.32,2.09,1.12,2.09,2.39,0,.75-.38,1.36-1.13,1.83-.55.35-1.48.52-2.78.52h-22.25c-1.28,0-2.24-.2-2.89-.59-.65-.39-.98-.98-.98-1.76,0-1.27.7-2.07,2.09-2.39,1.13-.29,1.8-.47,2-.54.2-.07.41-.25.61-.54.43-.49.65-1.3.65-2.43V25.8h19.29Zm15.04,0v17.77c0,.84-.24,1.52-.72,2.04-.48.52-1.09.78-1.85.78s-1.33-.24-1.8-.72-.79-1.14-.93-1.98l-.43-2.65c-.43-2.69-1.28-5.03-2.52-7-.78-1.22-1.84-2.22-3.17-3v-5.26h11.43Z"/>
          <path class="cls-3" d="m307.94,24.62v5c-1.8.49-3.17,1.25-4.11,2.28s-1.41,2.3-1.41,3.8.39,2.72,1.17,3.8c.78,1.09,2.06,2.12,3.82,3.11,1.22.67,3.97,1.94,8.26,3.82,2.61,1.13,4.63,2.15,6.06,3.06,1.43.91,2.79,2.05,4.06,3.41,3.42,3.59,5.13,7.87,5.13,12.82,0,3.74-.93,7.16-2.78,10.26-1.85,3.1-4.4,5.53-7.65,7.3-1.74.93-3.64,1.66-5.71,2.19-2.07.54-4.01.8-5.8.8v-4.96c2.52-.61,4.34-1.46,5.45-2.54,1.12-1.09,1.67-2.56,1.67-4.41s-.87-3.65-2.61-5.13c-1.16-.96-3.36-2.14-6.61-3.56-3.56-1.56-6-2.68-7.32-3.35-1.32-.67-2.59-1.45-3.8-2.35-5.45-3.88-8.17-9.05-8.17-15.51,0-3.3.68-6.35,2.04-9.15,1.36-2.79,3.26-5.05,5.69-6.76,3.39-2.38,7.59-3.69,12.6-3.96Zm-2.26,56.71v4.96c-2.38,0-5-.68-7.87-2.04-1.07-.49-1.81-.81-2.22-.96-.41-.14-.8-.22-1.17-.22-.58,0-1.01.09-1.3.28-.29.19-.75.66-1.39,1.41-.52.64-1.09.96-1.69.96-1.62,0-2.43-1.25-2.43-3.74v-15.82c0-.81.23-1.5.7-2.06.46-.56,1.04-.86,1.74-.89.64-.03,1.14.15,1.5.54.36.39.67,1.08.93,2.06.67,2.49,1.63,4.82,2.89,7,1.26,2.17,2.73,4.01,4.41,5.52,1.71,1.56,3.68,2.56,5.91,3Zm5.69-51.71v-4.78c1.74.12,3.24.34,4.52.67,1.27.33,3.09.99,5.43,1.98.58.23,1.06.35,1.43.35.55,0,.96-.19,1.22-.57l.96-1.26c.46-.64,1.03-.96,1.69-.96.78,0,1.35.28,1.72.85.36.56.54,1.46.54,2.67v14.34c0,.84-.24,1.53-.72,2.06-.48.54-1.09.8-1.85.8-.58,0-1.12-.19-1.61-.57-.26-.23-.47-.51-.63-.85-.16-.33-.31-.89-.46-1.67-.32-1.42-.87-2.88-1.65-4.39-.78-1.51-1.69-2.85-2.74-4.04-2.09-2.35-4.71-3.9-7.87-4.65Z"/>
          <path class="cls-3" d="m362.44,85.12h-20.51c-1.04,0-1.85-.2-2.41-.59-.56-.39-.85-.95-.85-1.67,0-1.19.58-1.97,1.74-2.35.96-.32,1.51-.51,1.67-.59.16-.07.33-.24.5-.5.35-.46.52-1.2.52-2.22v-43.5c0-1.01-.17-1.75-.52-2.22-.17-.26-.34-.43-.5-.5-.16-.07-.72-.27-1.67-.59-1.16-.38-1.74-1.16-1.74-2.35,0-.72.28-1.28.85-1.67.57-.39,1.37-.59,2.41-.59h21.64c1.04,0,1.85.2,2.41.59.56.39.85.95.85,1.67,0,1.19-.58,1.97-1.74,2.35-.96.32-1.51.52-1.67.59-.16.07-.33.24-.5.5-.35.46-.52,1.2-.52,2.22v43.5c0,1.62.42,2.58,1.26,2.87l1.35.43c1.1.35,1.65,1.13,1.65,2.35,0,1.51-1.03,2.26-3.09,2.26h-1.13Zm17.21-42.11l13.12,34.33c.35.93.71,1.63,1.09,2.11.38.48.87.85,1.48,1.11.61.29,1,.51,1.17.65.41.41.61.94.61,1.61,0,1.54-1.09,2.3-3.26,2.3h-21.86c-1.04,0-1.85-.22-2.41-.65-.56-.43-.85-1.06-.85-1.87,0-.93.54-1.65,1.61-2.17.67-.32,1.11-.59,1.35-.8.23-.22.36-.51.39-.89,0-.2-.12-.67-.35-1.39l-5.56-16.6c-.52-1.54-.78-2.84-.78-3.91,0-1.01.42-2.11,1.26-3.3l10.39-14.64c.98-1.36,1.48-2.78,1.48-4.26,0-.81-.22-1.56-.65-2.26s-1.01-1.19-1.74-1.48l-1.56-.65c-.99-.41-1.48-1.09-1.48-2.04,0-.78.3-1.42.91-1.91.41-.32,1.07-.48,2-.48h15.47c1.01,0,1.8.22,2.37.67.57.45.85,1.08.85,1.89,0,1.22-.67,2.09-2,2.61l-2.3.91c-.96.35-2.17,1.13-3.65,2.35-1.1.93-2.46,2.48-4.08,4.65l-3,4.13Z"/>
          <path class="cls-3" d="m417.5,36.84l2.22,9-7.69,28.07c-.23.81-.35,1.56-.35,2.26,0,1.83.85,3.13,2.56,3.91l1.52.7c.96.43,1.43,1.16,1.43,2.17,0,1.45-1.06,2.17-3.17,2.17h-11.04c-1.07,0-1.92-.22-2.54-.67-.62-.45-.93-1.06-.93-1.85,0-.84.64-1.54,1.91-2.09,1.19-.52,2.06-.99,2.63-1.41.57-.42,1.11-.99,1.63-1.72.81-1.19,1.48-2.77,2-4.74l9.82-35.81Zm3-11.04h17.51l12.08,51.06c.23.9.49,1.69.78,2.39.26.55.84,1,1.74,1.35.75.32,1.27.64,1.56.96.29.32.43.75.43,1.3,0,1.51-1.13,2.26-3.39,2.26h-21.69c-.87,0-1.56-.21-2.09-.63s-.78-.98-.78-1.67c0-.58.12-1.01.35-1.3.23-.29.75-.65,1.56-1.09.58-.29.98-.61,1.22-.96.23-.35.35-.78.35-1.3,0-.49-.04-.93-.13-1.3l-1.39-6.3h-12.12l1.17-5.17h9.73l-8-35.33,1.09-4.26Zm6.78-2.7c-1.45-.32-2.59-.71-3.43-1.17-.84-.46-1.65-1.14-2.43-2.04-1.56-1.8-2.35-3.87-2.35-6.21s.78-4.42,2.35-6.21c.78-.9,1.59-1.58,2.43-2.04.84-.46,1.98-.85,3.43-1.17v5.69c-.99.46-1.71.99-2.17,1.59-.46.59-.7,1.31-.7,2.15s.23,1.56.7,2.15c.46.59,1.19,1.14,2.17,1.63v5.65Zm3.13-18.86c1.45.32,2.59.71,3.43,1.17.84.46,1.65,1.14,2.43,2.04,1.56,1.8,2.35,3.87,2.35,6.21s-.78,4.42-2.35,6.21c-.78.9-1.59,1.58-2.43,2.04-.84.46-1.98.85-3.43,1.17v-5.65c1.01-.49,1.75-1.04,2.19-1.63.45-.59.67-1.31.67-2.15s-.22-1.56-.67-2.15c-.45-.59-1.18-1.12-2.19-1.59v-5.69Z"/>
          <path class="cls-3" d="m481.9,85.12h-20.47c-1.04,0-1.85-.2-2.41-.59-.57-.39-.85-.95-.85-1.67,0-1.19.58-1.97,1.74-2.35.96-.32,1.51-.51,1.67-.59.16-.07.33-.24.5-.5.35-.46.52-1.2.52-2.22v-43.5c0-1.01-.17-1.75-.52-2.22-.17-.26-.34-.43-.5-.5-.16-.07-.72-.27-1.67-.59-1.16-.38-1.74-1.16-1.74-2.35,0-.72.28-1.28.85-1.67.56-.39,1.37-.59,2.41-.59h21.99c1.27,0,2.19.17,2.74.52.75.46,1.13,1.07,1.13,1.82,0,1.28-.7,2.07-2.09,2.39-1.13.26-1.8.43-2,.52-.2.09-.42.26-.65.52-.43.52-.65,1.33-.65,2.43v51.11Zm3.52,0v-4.87c1.42-.26,2.54-.55,3.37-.87.83-.32,1.61-.78,2.37-1.39,1.22-.96,2.33-2.27,3.35-3.96,1.01-1.68,1.84-3.55,2.48-5.61.46-1.59.89-2.64,1.28-3.15.39-.51.96-.76,1.72-.76.81,0,1.4.33,1.78,1,.17.32.26.96.26,1.91v17.69h-16.6Z"/>
          <path class="cls-3" d="m529.31,25.8v59.32h-20.47c-1.04,0-1.85-.2-2.41-.59-.57-.39-.85-.95-.85-1.67,0-1.19.58-1.97,1.74-2.35.96-.32,1.51-.51,1.67-.59.16-.07.33-.24.5-.5.35-.46.52-1.2.52-2.22v-43.5c0-1.01-.17-1.75-.52-2.22-.17-.26-.34-.43-.5-.5-.16-.07-.72-.27-1.67-.59-1.16-.38-1.74-1.16-1.74-2.35,0-.72.28-1.28.85-1.67.56-.39,1.37-.59,2.41-.59h20.47Zm3.65,31.64v-5.04c1.68-.81,2.93-1.7,3.74-2.65.81-.96,1.41-2.23,1.78-3.82.23-1.1.54-1.86.91-2.28.38-.42.91-.63,1.61-.63.93,0,1.56.36,1.91,1.09.2.38.3,1.23.3,2.56v16.56c0,1.36-.15,2.3-.46,2.82-.3.52-.86.78-1.67.78-.67,0-1.19-.2-1.56-.61-.38-.41-.68-1.09-.91-2.04-.49-2-1.2-3.53-2.11-4.61-.91-1.07-2.09-1.78-3.54-2.13Zm.22-31.64h17.51v15.38c0,.9-.17,1.55-.52,1.96-.35.41-.9.61-1.65.61-.64,0-1.1-.13-1.39-.39-.29-.26-.56-.8-.83-1.61-1.1-3.36-2.72-5.92-4.85-7.69-2.13-1.77-4.89-2.82-8.28-3.17v-5.08Zm.04,59.32v-4.69c1.88-.29,3.44-.7,4.67-1.22s2.47-1.32,3.72-2.39c1.25-1.07,2.24-2.18,2.98-3.32.74-1.14,1.44-2.66,2.11-4.54.32-.93.65-1.56,1-1.89.35-.33.83-.5,1.43-.5.81,0,1.38.24,1.7.72.32.48.48,1.31.48,2.5v15.34h-18.08Z"/>
          <path class="cls-3" d="m564.21,41.05l4.61,7.65v23.29c0,2.03.34,3.69,1.02,5,.68,1.3,1.76,2.38,3.24,3.22l1.3.74c.75.43,1.13,1.09,1.13,1.96,0,.67-.28,1.22-.83,1.65-.46.38-1.42.56-2.87.56h-10.04c-2.64,0-3.96-.75-3.96-2.26,0-.52.14-.93.41-1.24.28-.3.88-.72,1.8-1.24,2.78-1.54,4.17-4.33,4.17-8.39v-30.94Zm18.21-15.25l23.12,40.15v19.16h-11.86l-29.51-50.84c-.64-1.1-1.16-1.87-1.56-2.3-.41-.43-.93-.75-1.56-.96l-1.65-.61c-.43-.14-.78-.41-1.04-.78-.26-.38-.39-.8-.39-1.26,0-.49.13-.95.39-1.37.26-.42.61-.72,1.04-.89.49-.2,1.83-.3,4-.3h19.03Zm23.12,33.2l-4.61-7.78v-12.04c0-2.43-.35-4.29-1.06-5.58-.71-1.29-1.96-2.4-3.76-3.32-.61-.29-1.03-.6-1.26-.93-.23-.33-.35-.76-.35-1.28,0-.78.25-1.35.76-1.72s1.33-.54,2.46-.54h10.86c1.48,0,2.45.23,2.91.7.49.46.74,1.01.74,1.65s-.14,1.07-.41,1.37c-.28.3-.93.72-1.98,1.24-1.54.78-2.69,1.99-3.48,3.61-.55,1.19-.83,2.8-.83,4.82v19.82Z"/>
        </g>
      </g>
      <g id="Frugtskålen-2" class="cls-2">
        <g class="cls-2">
          <path class="cls-1" d="m26.25,83.12H4.26c-1.26,0-2.24-.25-2.98-.77-.84-.58-1.28-1.44-1.28-2.49,0-1.62.86-2.79,2.43-3.3,1.13-.38,1.45-.5,1.54-.53,0,0,.04-.06.11-.15.15-.21.35-.63.35-1.66V30.71c0-1.03-.2-1.46-.32-1.62-.11-.16-.16-.21-.17-.22,0,0-.28-.11-1.52-.52-1.56-.51-2.42-1.68-2.42-3.29,0-1.05.44-1.92,1.28-2.5.74-.51,1.72-.76,2.98-.76h21.47v52.06c0,1.15.25,1.6.4,1.77.18.23.26.27.26.27.07.02.44.14,1.89.51,1.82.42,2.84,1.61,2.84,3.36,0,.77-.28,1.86-1.61,2.68-.71.45-1.78.67-3.26.67ZM4.26,23.8c-.82,0-1.46.14-1.84.41-.3.21-.42.45-.42.85,0,.75.3,1.15,1.05,1.39,1.31.44,1.64.56,1.77.63.34.16.64.44.92.86.45.6.69,1.52.69,2.77v43.5c0,1.25-.24,2.17-.72,2.82-.25.38-.55.66-.89.81-.13.06-.45.19-1.77.62-.75.24-1.05.65-1.05,1.4,0,.39.12.65.42.85.39.27,1.02.41,1.84.41h21.99c1.41,0,1.99-.23,2.2-.37.59-.36.66-.7.66-.98,0-.67-.22-1.17-1.31-1.42-1.57-.4-1.95-.52-2.12-.58-.38-.13-.74-.42-1.09-.86-.58-.65-.87-1.66-.87-3.06V23.8H4.26Zm32.2,41.02c-1.19,0-1.91-.51-2.3-.93-.5-.54-.88-1.35-1.15-2.49-.48-1.83-1.13-3.25-1.92-4.2-.76-.91-1.74-1.5-2.99-1.8l-.77-.18v-6.46l.57-.27c1.57-.75,2.72-1.54,3.43-2.37.69-.81,1.21-1.97,1.55-3.43.27-1.27.64-2.17,1.14-2.72.39-.44,1.12-.96,2.35-.96,1.3,0,2.3.59,2.81,1.65.18.33.4,1,.4,3v16.56c0,1.58-.19,2.64-.59,3.33-.34.58-1.06,1.28-2.54,1.28Zm-7.13-11.14c1.31.45,2.42,1.2,3.29,2.24.99,1.18,1.77,2.86,2.33,5,.25,1.04.53,1.46.68,1.61.12.13.33.29.83.29.64,0,.77-.22.81-.29.1-.17.32-.72.32-2.32v-16.56c0-1.67-.17-2.06-.19-2.09-.15-.31-.36-.56-1.03-.56-.54,0-.75.17-.86.3-.12.13-.42.57-.68,1.82-.42,1.79-1.08,3.23-1.98,4.29-.8.95-1.96,1.8-3.52,2.61v3.67Zm14.51-11.94c-.83,0-1.52-.24-2.04-.72-.47-.43-.84-1.08-1.13-1.98-.41-1.35-.95-2.59-1.61-3.71-.65-1.1-1.38-2.05-2.18-2.83-1.1-1.07-2.31-1.89-3.61-2.45-1.32-.57-2.96-.97-4.85-1.19l-.88-.1v-6.97h19.51v16.17c0,1.23-.24,2.13-.74,2.75-.54.68-1.38,1.03-2.48,1.03Zm-14.3-14.74c1.72.26,3.24.67,4.52,1.22,1.53.66,2.94,1.62,4.22,2.85.93.9,1.77,1.99,2.51,3.25.73,1.25,1.33,2.64,1.79,4.12.23.71.45.99.57,1.1.14.13.38.19.69.19.46,0,.77-.09.91-.28.09-.11.3-.49.3-1.5v-14.17h-15.51v3.21Z"/>
          <path class="cls-1" d="m95.65,84.29c-4.08,0-7.34-1.21-9.67-3.58-2.32-2.37-3.5-5.68-3.5-9.85v-7.3c0-2.2-.03-2.63-.04-2.72-.12-.97-.45-1.79-1.01-2.48-.66-.8-1.63-1.26-2.93-1.41l-.89-.1v-6.41l.85-.13c1.7-.25,2.48-.67,2.84-.98.44-.4.74-.84.9-1.34.13-.39.28-1.16.28-2.65v-11.52c0-1.59-.29-2.75-.85-3.46-.57-.73-1.69-1.33-3.33-1.79l-.73-.21v-6.58h2.13c3.24,0,6.04.12,8.32.35,3.51.33,6.71,1.51,9.47,3.48,4.05,2.88,6.11,7.03,6.11,12.33,0,4.34-1.38,7.95-4.11,10.74-1.15,1.18-2.51,2.15-4.04,2.89-.77.37-1.74.77-2.91,1.18.93.21,1.73.43,2.4.66,1.52.52,2.92,1.24,4.15,2.14,1.34.99,2.38,2.19,3.1,3.56.72,1.38,1.09,2.87,1.09,4.42v9c0,.11,0,.2.01.27.08-.09.2-.23.37-.45,1.55-2.12,3.56-2.52,5.21-.77.67.71,1.01,1.47,1.01,2.25,0,1.11-.47,2.36-1.45,3.83-.91,1.37-2.05,2.61-3.41,3.68-1.28,1.03-2.69,1.78-4.2,2.24-1.48.45-3.23.67-5.2.67Zm-16.04-29.18c1.41.31,2.54.98,3.38,1.99.79,1,1.27,2.17,1.44,3.51.02.14.05.47.05,2.95v7.3c0,3.62.99,6.47,2.93,8.45,1.94,1.98,4.71,2.98,8.24,2.98,1.77,0,3.33-.2,4.62-.59,1.26-.38,2.45-1.02,3.53-1.89,1.19-.95,2.19-2.03,2.99-3.23.92-1.39,1.12-2.25,1.12-2.73,0-.25-.16-.55-.47-.88-.29-.3-.55-.47-.75-.47-.52,0-1.05.58-1.41,1.07-.36.46-.62.76-.84.94-.34.28-.76.42-1.22.42s-1.91-.17-1.91-2.39v-9c0-1.22-.29-2.4-.86-3.49-.58-1.1-1.42-2.07-2.51-2.88-1.07-.77-2.29-1.4-3.62-1.86-1.37-.47-3.38-.91-5.97-1.3l-.13-1.95c2.86-.85,5.01-1.62,6.39-2.29,1.32-.64,2.49-1.48,3.48-2.49,2.38-2.44,3.54-5.49,3.54-9.34,0-4.68-1.72-8.18-5.27-10.7-2.48-1.77-5.34-2.82-8.51-3.12-2.22-.23-4.95-.34-8.12-.34h-.13v3.08c1.69.56,2.88,1.3,3.63,2.25.86,1.09,1.28,2.63,1.28,4.7v11.52c0,1.42-.12,2.49-.38,3.27-.27.83-.77,1.58-1.48,2.21-.69.6-1.68,1.03-3.02,1.31v2.96Zm-2.96,28.01h-21.99c-1.26,0-2.24-.25-2.98-.77-.84-.58-1.28-1.44-1.28-2.49,0-1.62.86-2.79,2.43-3.3,1.13-.38,1.45-.5,1.54-.53,0,0,.04-.06.11-.15.15-.21.35-.63.35-1.66V30.71c0-1.03-.2-1.46-.32-1.62-.11-.16-.16-.21-.17-.22,0,0-.28-.11-1.52-.52-1.56-.51-2.42-1.68-2.42-3.29,0-1.05.44-1.92,1.28-2.5.74-.51,1.72-.76,2.98-.76h21.47v52.06c0,1.15.25,1.6.4,1.77.18.23.26.27.26.27.07.02.44.14,1.89.51,1.82.42,2.84,1.61,2.84,3.36,0,.77-.28,1.86-1.61,2.68-.71.45-1.78.67-3.26.67Zm-21.99-59.32c-.82,0-1.46.14-1.84.41-.3.21-.42.45-.42.85,0,.75.3,1.15,1.05,1.39,1.31.44,1.64.56,1.77.63.34.16.64.44.92.86.45.6.69,1.52.69,2.77v43.5c0,1.25-.24,2.17-.72,2.82-.25.38-.55.66-.89.81-.13.06-.45.19-1.77.62-.75.24-1.05.65-1.05,1.4,0,.39.12.65.42.85.39.27,1.02.41,1.84.41h21.99c1.41,0,1.99-.23,2.2-.37.59-.36.66-.7.66-.98,0-.67-.22-1.17-1.31-1.42-1.57-.4-1.95-.52-2.12-.58-.38-.13-.74-.42-1.09-.86-.58-.65-.87-1.66-.87-3.06V23.8h-19.47Z"/>
          <path class="cls-1" d="m144.54,84.46v-7.74l.87-.11c2.69-.35,4.87-1.42,6.67-3.27,2-2.08,3.02-5.17,3.02-9.17v-28.33c0-3.6-1.31-6.02-4.02-7.41-1.04-.54-1.7-1-2.07-1.45-.42-.51-.64-1.22-.64-2.09,0-1.41.72-2.12,1.32-2.47.71-.41,1.76-.61,3.2-.61h10.65c1.27,0,1.72.04,1.94.07.44.06.86.22,1.27.46,1.33.77,1.62,1.86,1.62,2.64,0,.91-.35,1.72-1.01,2.34-.13.14-.42.37-2.05,1.31-1.12.61-1.97,1.52-2.61,2.78-.65,1.29-.98,2.78-.98,4.44v28.38c0,5.05-1.14,9.27-3.39,12.56-1.65,2.45-4.05,4.44-7.13,5.9-1.53.73-3.37,1.27-5.49,1.61l-1.16.18Zm2-6.01v3.64c1.44-.3,2.71-.71,3.78-1.22,2.75-1.31,4.88-3.06,6.34-5.22,2.02-2.95,3.04-6.8,3.04-11.43v-28.38c0-1.98.4-3.77,1.19-5.34.81-1.61,1.96-2.83,3.41-3.62,1.36-.79,1.62-.99,1.66-1.02.26-.25.38-.52.38-.88,0-.27-.07-.59-.63-.92-.19-.11-.36-.18-.53-.2-.14-.02-.55-.05-1.66-.05h-10.65c-1.39,0-1.97.21-2.19.34-.11.07-.33.19-.33.74,0,.52.11.73.18.82.07.08.37.39,1.45.95,3.39,1.74,5.1,4.83,5.1,9.19v28.33c0,4.53-1.21,8.09-3.58,10.56-1.9,1.96-4.24,3.2-6.98,3.72Zm-4,5.84h-1.96c-3.83,0-7.08-.35-9.65-1.03-3.03-.81-5.72-2.03-8.01-3.62-2.33-1.63-4.02-3.5-5.02-5.56-1.06-2.18-1.58-5.23-1.58-9.3V30.71c0-1.03-.2-1.46-.32-1.62-.11-.16-.16-.21-.17-.22,0,.01-.25-.09-1.52-.52-1.56-.51-2.42-1.66-2.42-3.25,0-1.08.44-1.96,1.28-2.54.74-.51,1.72-.76,2.98-.76h21.75s1.74.21,1.74.21c.68.2,1.25.57,1.7,1.09.48.56.72,1.23.72,2,0,1.59-.86,2.75-2.43,3.25-1.12.37-1.45.5-1.54.54,0,0-.04.05-.1.15-.15.21-.35.63-.35,1.66v36.46c0,2.41.06,4.1.19,5.02.11.85.35,1.63.7,2.3.3.57.61.98.94,1.2.21.15.81.46,2.38.95l.7.22v7.43Zm-26.38-60.49c-.83,0-1.45.14-1.84.41-.2.14-.42.36-.42.89,0,.72.3,1.11,1.05,1.35,1.48.49,1.69.59,1.77.62.35.16.64.44.92.86.45.6.69,1.52.69,2.77v34.07c0,3.71.46,6.55,1.38,8.43.85,1.75,2.32,3.36,4.37,4.79,2.09,1.46,4.58,2.58,7.38,3.33,2.39.64,5.44.96,9.08.97v-3.97c-1.04-.35-1.76-.67-2.22-.99-.6-.41-1.13-1.06-1.58-1.93-.46-.88-.76-1.88-.91-2.96-.14-1.02-.2-2.75-.2-5.28V30.71c0-1.25.24-2.17.72-2.82.25-.38.55-.66.88-.81.14-.06.47-.19,1.77-.63.75-.24,1.06-.64,1.06-1.35,0-.28-.08-.51-.24-.7-.17-.21-.39-.35-.66-.44l-1.41-.16h-21.59Z"/>
          <path class="cls-1" d="m199.42,84.29h-1v-6.7l.77-.18c.89-.21,1.34-.44,1.56-.59.29-.2.54-.5.76-.88.41-.74.61-1.73.61-2.95v-12.69c0-1.15-.25-1.6-.4-1.77l-.07-.09c-.11-.15-.17-.2-.17-.2-.02,0-.33-.1-1.84-.45-1.85-.46-2.86-1.67-2.86-3.41,0-1.1.5-2,1.45-2.59.82-.51,1.94-.76,3.42-.76h17.34c1.52,0,2.61.23,3.32.71.57.39,1.25,1.17,1.25,2.72,0,.73-.16,1.37-.47,1.88-.29.49-.77.96-1.48,1.46-.61.43-.73.67-.74.69-.02.06-.14.39-.14,1.53v15.23l-.29.29c-1.21,1.21-2.83,2.45-4.81,3.68-1.96,1.23-3.85,2.21-5.61,2.92-1.62.63-3.43,1.15-5.38,1.53-1.96.39-3.71.58-5.21.58Zm1-5.15v3.12c1.14-.07,2.42-.24,3.83-.52,1.83-.36,3.52-.84,5.02-1.43,1.64-.67,3.42-1.6,5.29-2.76,1.69-1.05,3.09-2.1,4.16-3.12v-14.4c0-1.09.09-1.82.29-2.3.22-.53.69-1.04,1.44-1.56.61-.42.83-.71.91-.85.12-.2.18-.49.18-.86,0-.82-.27-1-.37-1.06-.2-.14-.76-.37-2.2-.37h-17.34c-1.34,0-2.03.25-2.36.46-.36.22-.51.48-.51.89,0,.59.16,1.17,1.33,1.46,1.53.35,1.92.47,2.09.53.39.14.74.42,1.06.87.58.69.86,1.69.86,3.05v12.69c0,1.55-.29,2.87-.86,3.91-.37.66-.83,1.18-1.37,1.56-.38.26-.86.48-1.46.68Zm-3.69,5.15h-1c-.98,0-1.9-.08-2.73-.23-.82-.15-1.89-.46-3.2-.91-3.15-1.08-6.04-2.75-8.59-4.97-2.54-2.21-4.67-4.9-6.31-7.97-2.53-4.79-3.81-10.52-3.81-17.03s1.14-11.96,3.39-16.85c2.27-4.93,5.58-8.86,9.83-11.67,2.45-1.65,5.13-2.85,7.95-3.57,1.21-.31,2.64-.47,4.25-.47h1v6.61l-.77.18c-1.31.31-3.06,1.18-3.06,5.11v40.46c0,1.4.18,2.45.54,3.15.25.46.9.92,1.88,1.31l.62.25v6.59Zm-1.22-61.64c-1.03.05-1.95.18-2.75.38-2.6.66-5.07,1.77-7.34,3.29-3.94,2.61-7.01,6.26-9.12,10.84-2.13,4.62-3.21,10.01-3.21,16.01s1.2,11.59,3.58,16.09c1.53,2.86,3.5,5.35,5.86,7.4,2.35,2.05,5.02,3.59,7.92,4.59,1.22.42,2.2.7,2.93.83.42.08.88.14,1.36.17v-3.23c-1.1-.54-1.85-1.18-2.27-1.96-.52-1.01-.77-2.34-.77-4.08v-40.46c0-4.34,1.93-6.12,3.82-6.82v-3.06Zm22.6,23.1c-1.1,0-1.96-.33-2.55-.98-.51-.56-.93-1.51-1.33-2.97-.42-1.55-1.18-3.39-2.27-5.47-1.09-2.08-2.15-3.74-3.14-4.93-1.09-1.33-2.32-2.31-3.65-2.93-1.36-.62-3.09-1-5.15-1.1l-.95-.05v-6.74l1.09.1c4.8.44,8.82,1.35,11.95,2.68,1.02.46,1.5.53,1.69.53.25,0,.37-.05.4-.08.07-.06.37-.36,1.36-1.69.7-.97,1.66-1.49,2.76-1.49s1.99.36,2.52,1.08c.47.63.7,1.56.7,2.83v16.9c0,3.74-2.15,4.3-3.43,4.3Zm-17.03-20.31c1.91.18,3.57.59,4.94,1.22,1.61.74,3.07,1.91,4.35,3.47,1.08,1.29,2.21,3.07,3.37,5.28,1.16,2.21,1.98,4.19,2.43,5.88.41,1.51.76,2.01.89,2.15.19.21.55.32,1.06.32s1.43,0,1.43-2.3v-16.9c0-1.11-.21-1.52-.3-1.64-.17-.22-.59-.27-.91-.27-.31,0-.72.08-1.14.67-1.06,1.43-1.44,1.83-1.65,2.01-.83.73-2.04.87-4.23-.12-2.68-1.15-6.12-1.96-10.23-2.41v2.66Z"/>
          <path class="cls-1" d="m263,83.12h-22.25c-1.47,0-2.59-.24-3.4-.73-.96-.57-1.46-1.48-1.46-2.62,0-1.75,1.02-2.94,2.86-3.36,1.36-.35,1.76-.47,1.87-.51,0,0,.05-.05.14-.18l.07-.09c.15-.17.4-.63.4-1.77V21.8h21.29v52.06c0,1.15.25,1.6.4,1.77.18.23.26.27.26.27.07.02.44.14,1.89.51,1.82.42,2.84,1.61,2.84,3.36,0,.77-.28,1.86-1.61,2.68-.71.45-1.79.67-3.31.67Zm-20.64-6.21c-.32.44-.67.73-1.06.87-.16.06-.54.17-2.08.57-1.11.25-1.33.75-1.33,1.42,0,.43.14.69.49.9.34.2,1.02.44,2.38.44h22.25c1.45,0,2.03-.23,2.25-.37.59-.36.66-.7.66-.98,0-.67-.22-1.17-1.31-1.42-1.57-.4-1.95-.52-2.12-.58-.38-.13-.74-.42-1.09-.86-.58-.65-.87-1.66-.87-3.06V23.8h-17.29v50.06c0,1.37-.28,2.36-.86,3.05Zm31.63-32.52c-1,0-1.84-.34-2.51-1.01-.62-.62-1.03-1.47-1.21-2.51l-.44-2.66c-.41-2.55-1.21-4.78-2.38-6.62-.69-1.07-1.64-1.97-2.83-2.67l-.49-.29v-6.83h13.43v18.77c0,1.1-.33,2.01-.98,2.72-.66.72-1.56,1.1-2.58,1.1Zm-7.87-16.9c1.24.81,2.25,1.82,3.01,3.01,1.32,2.08,2.21,4.56,2.67,7.38l.43,2.65c.11.62.33,1.1.65,1.43.29.29.64.42,1.1.42s.82-.15,1.11-.46c.31-.33.45-.78.45-1.37v-16.77h-9.43v3.7Zm-36.29,16.9c-1.03,0-1.92-.38-2.58-1.11-.65-.71-.98-1.62-.98-2.72v-18.77h13.43v6.84l-.5.29c-1.21.69-2.16,1.59-2.82,2.66-1.17,1.85-1.97,4.08-2.38,6.63l-.44,2.65c-.18,1.05-.59,1.9-1.21,2.52-.67.67-1.51,1.01-2.51,1.01Zm-1.56-20.6v16.77c0,.59.15,1.03.45,1.37.29.31.64.46,1.11.46s.81-.13,1.1-.42c.33-.33.55-.81.66-1.44l.43-2.64c.45-2.81,1.35-5.29,2.66-7.37.74-1.19,1.75-2.21,3.02-3.02v-3.7h-9.43Z"/>
          <path class="cls-1" d="m302.98,84.29h-1v-6.74l.77-.18c2.33-.56,4.01-1.33,4.99-2.29.92-.9,1.37-2.11,1.37-3.69s-.74-3.08-2.25-4.36c-1.07-.88-3.21-2.03-6.36-3.41-3.63-1.59-6.04-2.7-7.37-3.37-1.36-.69-2.69-1.51-3.94-2.43-5.69-4.05-8.58-9.55-8.58-16.32,0-3.44.72-6.67,2.14-9.59,1.43-2.94,3.45-5.34,6.02-7.14,3.53-2.47,7.95-3.87,13.13-4.14l1.05-.05v6.81l-.74.2c-1.6.44-2.83,1.11-3.63,1.99-.77.85-1.15,1.87-1.15,3.13s.32,2.3.98,3.22c.69.96,1.87,1.91,3.5,2.82,1.18.65,3.93,1.92,8.17,3.78,2.64,1.14,4.73,2.2,6.2,3.14,1.5.95,2.93,2.16,4.26,3.57,3.58,3.76,5.4,8.31,5.4,13.5,0,3.9-.98,7.53-2.92,10.77-1.94,3.24-4.64,5.82-8.03,7.67-1.81.96-3.8,1.73-5.94,2.28-2.14.56-4.18.84-6.05.84Zm1-5.18v3.15c1.42-.08,2.95-.33,4.55-.74,1.99-.51,3.83-1.22,5.49-2.11,3.06-1.67,5.51-4,7.26-6.93,1.75-2.93,2.64-6.21,2.64-9.74,0-4.67-1.63-8.75-4.85-12.13-1.22-1.3-2.52-2.39-3.88-3.26-1.38-.88-3.38-1.89-5.92-2.99-4.36-1.91-7.09-3.18-8.34-3.86-1.89-1.05-3.29-2.2-4.16-3.4-.9-1.25-1.36-2.73-1.36-4.39,0-1.76.56-3.26,1.67-4.48.93-1.02,2.22-1.8,3.84-2.35v-3.19c-4.34.37-8.05,1.61-11.03,3.7-2.28,1.6-4.09,3.75-5.37,6.38-1.29,2.65-1.94,5.58-1.94,8.71,0,6.18,2.54,10.98,7.75,14.7,1.18.87,2.41,1.63,3.67,2.27,1.28.65,3.73,1.77,7.27,3.32,3.36,1.47,5.6,2.68,6.84,3.71,1.97,1.68,2.97,3.66,2.97,5.9s-.66,3.85-1.98,5.13c-1.14,1.11-2.83,1.96-5.15,2.6Zm-3.3,5.18h-1c-2.51,0-5.3-.72-8.29-2.14-1.28-.59-1.86-.82-2.13-.92-.3-.11-.58-.16-.84-.16-.56,0-.74.11-.76.12-.07.05-.38.28-1.17,1.22-.71.87-1.54,1.31-2.46,1.31-1.28,0-3.43-.62-3.43-4.74v-15.82c0-1.04.31-1.95.92-2.7.64-.78,1.49-1.21,2.47-1.26,1.17-.05,1.88.44,2.27.86.48.52.86,1.33,1.17,2.49.64,2.39,1.58,4.66,2.79,6.75,1.2,2.07,2.62,3.85,4.21,5.28,1.57,1.44,3.4,2.37,5.43,2.76l.81.16v6.78Zm-12.26-5.22c.49,0,.99.09,1.51.28.44.16,1.19.48,2.3.99,2.33,1.1,4.49,1.74,6.45,1.91v-3.11c-2.08-.54-3.95-1.57-5.59-3.06-1.74-1.56-3.29-3.5-4.6-5.76-1.3-2.24-2.31-4.67-2.99-7.24-.29-1.08-.56-1.49-.7-1.64-.1-.11-.29-.24-.72-.22-.42.02-.73.18-1.01.53-.32.38-.47.85-.47,1.43v15.82c0,2.74,1,2.74,1.43,2.74.11,0,.44,0,.92-.59.94-1.11,1.36-1.45,1.62-1.62.46-.3,1.06-.44,1.85-.44Zm31.9-35.29c-.8,0-1.55-.26-2.22-.77-.42-.37-.71-.76-.93-1.21-.2-.41-.37-1.04-.54-1.92-.29-1.29-.82-2.69-1.56-4.11-.74-1.43-1.62-2.72-2.6-3.84-1.93-2.17-4.41-3.64-7.35-4.34l-.77-.18v-6.64l1.07.07c1.79.12,3.37.36,4.7.7,1.33.35,3.16,1.01,5.57,2.02.58.23.91.27,1.05.27.3,0,.36-.09.39-.13l.98-1.3c.81-1.11,1.8-1.35,2.49-1.35,1.42,0,2.18.71,2.56,1.31.47.74.7,1.79.7,3.21v14.34c0,1.09-.33,2.01-.97,2.73-.66.74-1.56,1.14-2.59,1.14Zm-13.95-17.94c3.01.86,5.57,2.46,7.61,4.76,1.1,1.25,2.06,2.68,2.88,4.25.82,1.57,1.4,3.13,1.74,4.63.18.95.31,1.32.38,1.46.1.21.23.39.39.53.26.2.59.31.94.31.47,0,.81-.15,1.1-.47.31-.35.46-.81.46-1.4v-14.34c0-1.33-.24-1.91-.39-2.13-.12-.19-.32-.39-.87-.39-.23,0-.54.06-.89.54l-.97,1.28c-.42.61-1.58,1.44-3.82.54-2.31-.97-4.09-1.62-5.31-1.94-.95-.25-2.04-.43-3.27-.55v2.92Z"/>
          <path class="cls-1" d="m387.85,83.12h-21.86c-1.26,0-2.28-.29-3.02-.86-.81-.62-1.24-1.54-1.24-2.66,0-.92.38-2.2,2.17-3.07.8-.38,1.05-.58,1.1-.64.01-.01.05-.05.07-.17-.02-.09-.07-.37-.3-1.07l-5.56-16.59c-.56-1.65-.83-3.04-.83-4.23s.49-2.53,1.44-3.88l10.39-14.65c.87-1.21,1.29-2.41,1.29-3.68,0-.63-.16-1.19-.5-1.73-.32-.51-.73-.87-1.26-1.08l-1.58-.66c-1.35-.55-2.09-1.61-2.09-2.96,0-1.08.44-2.01,1.28-2.69.6-.47,1.46-.7,2.63-.7h15.47c1.24,0,2.25.3,2.99.89.8.64,1.23,1.56,1.23,2.67s-.46,2.69-2.63,3.54l-2.3.91c-.87.32-2,1.05-3.38,2.19-1.03.87-2.35,2.38-3.92,4.48l-2.67,3.68,12.93,33.82c.31.83.63,1.45.94,1.85.27.35.63.61,1.09.81.94.45,1.25.66,1.42.8.67.66.97,1.44.97,2.38,0,1.23-.55,3.3-4.26,3.3Zm-17.86-59.32c-.94,0-1.28.18-1.38.26-.36.29-.53.64-.53,1.13,0,.4.1.81.86,1.12l1.57.65c.91.36,1.65,1,2.2,1.87.53.85.8,1.79.8,2.79,0,1.69-.56,3.31-1.67,4.84l-10.38,14.64c-.71,1.01-1.08,1.93-1.08,2.72,0,.96.25,2.17.73,3.59l5.56,16.6c.35,1.1.4,1.47.4,1.71-.05.7-.29,1.23-.71,1.62-.32.3-.83.61-1.6.98-.92.45-1.04.91-1.04,1.27,0,.64.24.91.46,1.08.38.3.99.45,1.8.45h21.86c2.26,0,2.26-.85,2.26-1.3,0-.52-.17-.76-.31-.9,0,0,0,0,0,0-.01,0-.23-.15-.9-.46-.73-.31-1.36-.79-1.83-1.39-.44-.56-.85-1.34-1.24-2.38l-13.31-34.83,3.32-4.57c1.69-2.27,3.08-3.84,4.25-4.83,1.59-1.31,2.88-2.13,3.95-2.52l2.28-.9c1.21-.47,1.37-1.15,1.37-1.68,0-.65-.25-.93-.47-1.11-.38-.3-.97-.46-1.75-.46h-15.47Zm-12.43,59.32h-21.64c-1.26,0-2.24-.25-2.98-.76-.84-.58-1.28-1.44-1.28-2.5,0-1.62.86-2.79,2.43-3.3,1.13-.38,1.45-.5,1.54-.53,0,0,.04-.06.11-.15.15-.21.35-.63.35-1.66V30.71c0-1.03-.2-1.46-.32-1.62-.11-.16-.16-.21-.17-.22,0,0-.25-.09-1.52-.52-1.56-.51-2.42-1.68-2.42-3.29,0-1.05.44-1.92,1.28-2.5.74-.51,1.72-.76,2.98-.76h21.64c1.26,0,2.24.25,2.98.76.84.58,1.28,1.44,1.28,2.5,0,1.62-.86,2.79-2.43,3.3-1.12.37-1.45.5-1.54.54,0,0-.04.05-.1.15-.15.21-.35.63-.35,1.66v43.5c0,.52.06,1.74.59,1.92l1.33.43c1.51.48,2.34,1.65,2.34,3.3,0,.98-.4,3.26-4.09,3.26Zm-21.64-59.32c-.83,0-1.45.14-1.84.41-.29.2-.42.46-.42.85,0,.75.3,1.15,1.05,1.39,1.48.49,1.69.59,1.77.62.35.16.64.44.92.86.45.6.69,1.52.69,2.77v43.5c0,1.25-.24,2.17-.72,2.82-.25.38-.55.66-.89.81-.13.06-.46.19-1.77.62-.75.24-1.05.65-1.05,1.4,0,.39.12.65.42.85.39.27,1.01.41,1.84.41h21.64c2.09,0,2.09-.82,2.09-1.26,0-.91-.38-1.21-.95-1.39l-1.35-.44c-1.3-.45-1.95-1.73-1.95-3.82V30.71c0-1.25.24-2.17.72-2.82.25-.38.55-.65.88-.81.14-.06.47-.19,1.77-.63.75-.24,1.06-.65,1.06-1.4,0-.39-.12-.65-.42-.85-.39-.27-1.01-.41-1.84-.41h-21.64Z"/>
          <path class="cls-1" d="m445.22,83.12h-21.69c-1.1,0-2.01-.29-2.71-.85-.76-.61-1.16-1.46-1.16-2.45,0-.82.19-1.45.57-1.93.32-.4.92-.83,1.87-1.34.57-.29.78-.52.86-.63.12-.18.18-.43.18-.75,0-.41-.04-.78-.1-1.08l-1.22-5.53h-12.57l1.63-7.17h9.28l-7.77-34.35,1.34-5.24h19.08l12.26,51.83c.21.83.46,1.59.73,2.24.12.26.54.55,1.18.8.93.39,1.55.79,1.94,1.22.46.51.7,1.17.7,1.98,0,1.22-.57,3.26-4.39,3.26Zm-33.47-16.56h11.68l1.56,7.09c.1.44.15.95.15,1.52,0,.72-.17,1.34-.52,1.86-.34.5-.86.93-1.6,1.3-.96.52-1.19.77-1.23.82-.02.03-.13.19-.13.68,0,.4.12.66.41.89.34.27.83.41,1.46.41h21.69c2.39,0,2.39-.85,2.39-1.26,0-.29-.06-.5-.18-.63-.08-.09-.38-.35-1.21-.71-1.11-.43-1.88-1.05-2.25-1.84-.33-.78-.6-1.63-.85-2.57l-11.9-50.31h-15.95l-.83,3.27,8.22,36.32h-10.19l-.72,3.17Zm-3.73,16.56h-11.04c-1.28,0-2.34-.29-3.13-.86-.88-.63-1.35-1.55-1.35-2.66,0-1.27.85-2.28,2.52-3,1.11-.49,1.93-.92,2.43-1.3.48-.36.96-.86,1.42-1.5.73-1.07,1.35-2.56,1.84-4.41l10.84-39.52,3.2,12.98-7.76,28.32c-.21.73-.31,1.39-.31,2,0,1.43.63,2.38,1.98,3l1.52.69c1.32.6,2.02,1.67,2.02,3.08,0,1.19-.54,3.17-4.17,3.17Zm3.42-45.31l-8.81,32.1c-.55,2.06-1.27,3.76-2.14,5.04-.59.83-1.21,1.48-1.86,1.96-.63.47-1.55.97-2.82,1.52-.6.26-1.31.67-1.31,1.17,0,.46.15.77.52,1.03.45.32,1.1.49,1.96.49h11.04c2.17,0,2.17-.79,2.17-1.17,0-.62-.25-.99-.85-1.26l-1.52-.7c-2.06-.94-3.15-2.61-3.15-4.82,0-.79.13-1.64.39-2.54l7.62-27.81-1.23-5.01Zm11.96-16.46v-7.52l.56-.27c.87-.42,1.48-.87,1.83-1.33.32-.42.47-.92.47-1.55s-.15-1.13-.47-1.55c-.35-.46-.96-.89-1.81-1.28l-.58-.27V0l1.21.27c1.55.34,2.76.76,3.7,1.27.94.52,1.85,1.28,2.71,2.26,1.72,1.98,2.59,4.29,2.59,6.87s-.87,4.9-2.59,6.87c-.86.98-1.77,1.74-2.71,2.26-.93.51-2.14.93-3.7,1.27l-1.21.27Zm2-6.29v3.76c.79-.23,1.44-.48,1.95-.77.73-.4,1.46-1.02,2.16-1.82,1.41-1.62,2.1-3.44,2.1-5.56s-.69-3.93-2.1-5.56c-.7-.8-1.43-1.42-2.16-1.82-.51-.28-1.16-.54-1.95-.77v3.79c.88.47,1.53,1,1.99,1.6.58.77.88,1.7.88,2.76s-.29,1.99-.88,2.75c-.46.61-1.11,1.14-1.99,1.63Zm-3.13,6.29l-1.21-.27c-1.56-.34-2.77-.76-3.7-1.27-.94-.52-1.85-1.28-2.7-2.26-1.72-1.98-2.59-4.29-2.59-6.87s.87-4.9,2.59-6.87c.86-.98,1.77-1.74,2.71-2.26.94-.52,2.15-.93,3.7-1.27l1.21-.27v7.57l-.57.27c-.84.39-1.45.83-1.81,1.3-.33.42-.48.92-.48,1.54s.16,1.12.48,1.54c.37.47.98.93,1.83,1.35l.55.28v7.51Zm-2-18.82c-.79.23-1.44.48-1.95.77-.73.4-1.46,1.02-2.16,1.82-1.41,1.62-2.1,3.44-2.1,5.56s.69,3.93,2.1,5.56c.7.81,1.43,1.42,2.16,1.82.51.28,1.16.54,1.95.77v-3.77c-.85-.49-1.5-1.02-1.96-1.61-.6-.77-.91-1.7-.91-2.77s.31-2,.91-2.77c.46-.59,1.12-1.12,1.96-1.58v-3.8Z"/>
          <path class="cls-1" d="m497.02,83.12h-18.6v-6.7l.82-.15c1.36-.25,2.43-.52,3.19-.82.72-.28,1.43-.69,2.1-1.24,1.12-.88,2.17-2.12,3.12-3.69.97-1.6,1.77-3.41,2.38-5.38.5-1.74.96-2.84,1.44-3.46.41-.53,1.17-1.15,2.51-1.15,1.18,0,2.09.52,2.65,1.51.27.5.39,1.24.39,2.4v18.69Zm-16.6-2h14.6v-16.69c0-1.14-.13-1.42-.14-1.44-.19-.33-.45-.47-.9-.47-.57,0-.79.2-.93.37-.18.23-.56.9-1.11,2.82-.66,2.14-1.53,4.1-2.58,5.84-1.07,1.78-2.28,3.2-3.58,4.22-.82.66-1.71,1.18-2.63,1.54-.72.28-1.62.53-2.73.76v3.04Zm-3.52,2h-21.47c-1.26,0-2.24-.25-2.98-.77-.84-.58-1.28-1.44-1.28-2.49,0-1.62.86-2.79,2.43-3.3,1.13-.38,1.45-.5,1.54-.53,0,0,.04-.06.11-.15.15-.21.35-.63.35-1.66V30.71c0-1.03-.2-1.46-.32-1.62-.11-.16-.16-.21-.17-.22,0,0-.28-.11-1.52-.52-1.56-.51-2.42-1.68-2.42-3.29,0-1.05.44-1.92,1.28-2.5.74-.51,1.72-.76,2.98-.76h21.99c1.48,0,2.55.22,3.27.68,1.32.81,1.6,1.9,1.6,2.67,0,1.75-1.02,2.94-2.86,3.37-1.46.34-1.77.44-1.83.47h0s-.1.05-.29.27c-.17.21-.4.7-.4,1.77v52.11Zm-21.47-59.32c-.82,0-1.46.14-1.84.41-.3.21-.42.45-.42.85,0,.75.3,1.15,1.05,1.39,1.31.44,1.64.56,1.77.63.34.16.64.44.92.86.45.6.69,1.52.69,2.77v43.5c0,1.25-.24,2.17-.72,2.82-.25.38-.55.66-.89.81-.13.06-.45.19-1.77.62-.75.24-1.05.65-1.05,1.4,0,.39.12.65.42.85.39.27,1.02.41,1.84.41h19.47V31.01c0-1.35.29-2.36.88-3.07.35-.4.68-.65,1.03-.8.2-.08.6-.21,2.17-.58,1.09-.25,1.31-.75,1.31-1.42,0-.28-.08-.62-.65-.97-.23-.14-.8-.37-2.21-.37h-21.99Z"/>
          <path class="cls-1" d="m546.3,83.12h-20.08v-6.55l.85-.13c1.79-.27,3.28-.66,4.43-1.15,1.13-.48,2.29-1.23,3.45-2.23,1.17-1,2.11-2.05,2.79-3.11.69-1.07,1.37-2.53,2-4.33.37-1.08.78-1.83,1.25-2.28.54-.52,1.26-.78,2.13-.78,1.45,0,2.17.63,2.53,1.16.44.66.65,1.63.65,3.05v16.34Zm-18.08-2h16.08v-14.34c0-1.34-.22-1.8-.31-1.94-.12-.18-.41-.27-.86-.27-.51,0-.69.17-.74.22-.1.1-.38.45-.75,1.49-.69,1.96-1.44,3.56-2.21,4.76-.79,1.22-1.85,2.41-3.16,3.54-1.32,1.14-2.66,1.99-3.98,2.55-1.11.47-2.47.85-4.06,1.14v2.85Zm-3.91,2h-21.47c-1.26,0-2.24-.25-2.98-.77-.84-.58-1.28-1.44-1.28-2.49,0-1.62.86-2.79,2.43-3.3,1.13-.38,1.45-.5,1.54-.53,0,0,.04-.06.11-.15.15-.21.35-.63.35-1.66V30.71c0-1.03-.2-1.46-.32-1.62-.11-.16-.16-.21-.17-.22,0,0-.28-.11-1.52-.52-1.56-.51-2.42-1.68-2.42-3.29,0-1.05.44-1.92,1.28-2.5.74-.51,1.72-.76,2.98-.76h21.47v61.32Zm-21.47-59.32c-.82,0-1.46.14-1.84.41-.3.21-.42.45-.42.85,0,.75.3,1.15,1.05,1.39,1.31.44,1.64.56,1.77.63.34.16.64.44.92.86.45.6.69,1.52.69,2.77v43.5c0,1.25-.24,2.17-.72,2.82-.25.38-.55.66-.89.81-.13.06-.45.19-1.77.62-.75.24-1.05.65-1.05,1.4,0,.39.12.65.42.85.39.27,1.02.41,1.84.41h19.47V23.8h-19.47Zm32.25,41.02c-1.19,0-1.91-.51-2.3-.93-.5-.54-.88-1.35-1.15-2.49-.45-1.83-1.09-3.25-1.9-4.19-.78-.91-1.77-1.5-3.01-1.8l-.77-.18v-6.46l.57-.27c1.55-.75,2.69-1.55,3.41-2.4.71-.83,1.23-1.98,1.57-3.41.27-1.26.64-2.16,1.14-2.72.39-.44,1.12-.96,2.35-.96,1.3,0,2.3.59,2.81,1.65.18.33.4,1,.4,3v16.56c0,1.58-.19,2.63-.59,3.33-.34.58-1.06,1.28-2.54,1.28Zm-7.13-11.14c1.31.45,2.42,1.2,3.3,2.23,1.01,1.19,1.79,2.87,2.32,5.02.25,1.03.53,1.44.67,1.6.12.13.33.29.83.29.64,0,.76-.21.81-.29.1-.16.32-.72.32-2.32v-16.56c0-1.67-.17-2.06-.19-2.09-.15-.31-.36-.56-1.03-.56-.54,0-.75.17-.86.3-.12.13-.42.57-.68,1.82-.42,1.76-1.09,3.19-2,4.27-.8.95-1.98,1.83-3.5,2.62v3.67Zm14.56-11.94c-.89,0-1.58-.22-2.06-.65-.43-.39-.79-1.04-1.11-2.05-1.04-3.16-2.56-5.59-4.53-7.23-1.96-1.63-4.57-2.62-7.74-2.95l-.9-.09v-6.99h19.51v16.38c0,1.16-.25,2.01-.76,2.61-.54.64-1.35.96-2.41.96Zm-14.34-14.75c3.17.46,5.83,1.56,7.92,3.29,2.27,1.88,4,4.62,5.16,8.15.3.94.52,1.16.54,1.18,0,0,.15.13.72.13.31,0,.71-.04.89-.26.08-.1.28-.42.28-1.31v-14.38h-15.51v3.2Z"/>
          <path class="cls-1" d="m600.53,83.12h-13.44l-29.8-51.34c-.74-1.28-1.19-1.86-1.43-2.12-.29-.31-.66-.53-1.13-.68l-1.7-.62c-.61-.2-1.13-.59-1.52-1.15-.38-.55-.57-1.16-.57-1.83s.18-1.32.54-1.9c.38-.6.89-1.04,1.52-1.29.42-.17,1.31-.38,4.37-.38h19.61l23.54,40.89v20.43Zm-12.29-2h10.29v-17.9l-22.7-39.42h-18.46c-2.91,0-3.53.19-3.62.23-.25.1-.42.25-.57.49-.16.26-.24.54-.24.84,0,.26.07.48.21.69.14.2.31.33.54.4l1.68.62c.75.24,1.42.65,1.95,1.21.46.5,1.02,1.31,1.7,2.49l29.22,50.35Zm-22.44,2h-10.04c-4.1,0-4.96-1.77-4.96-3.26,0-.78.23-1.42.67-1.91.36-.39,1.01-.85,2.05-1.44,2.47-1.36,3.66-3.82,3.66-7.52v-34.54l6.61,10.97v23.57c0,1.86.3,3.38.91,4.53.59,1.12,1.54,2.07,2.85,2.81l1.3.74c1.07.62,1.64,1.6,1.64,2.83,0,.97-.42,1.81-1.21,2.44-.65.53-1.77.78-3.49.78Zm-6.6-41.47v27.34c0,4.43-1.58,7.54-4.69,9.26-1.12.63-1.45.93-1.54,1.03-.1.11-.16.3-.16.57,0,.31,0,1.26,2.96,1.26h10.04c1.73,0,2.17-.28,2.24-.34.32-.26.46-.52.46-.88,0-.51-.19-.83-.63-1.09l-1.3-.73c-1.64-.94-2.87-2.15-3.63-3.62-.75-1.44-1.13-3.28-1.13-5.46v-23.02l-2.61-4.33Zm41.33,18l-6.61-11.16v-12.31c0-2.25-.32-3.97-.94-5.1-.61-1.1-1.73-2.09-3.34-2.92-.75-.35-1.29-.77-1.62-1.25-.35-.5-.53-1.12-.53-1.85,0-1.39.64-2.15,1.18-2.53.69-.49,1.68-.73,3.04-.73h10.86c1.79,0,2.95.31,3.62.99.67.63,1.03,1.45,1.03,2.36s-.23,1.55-.67,2.04c-.37.41-1.07.86-2.27,1.46-1.34.68-2.33,1.71-3.02,3.15-.48,1.04-.73,2.52-.73,4.39v23.47Zm-4.61-11.7l2.61,4.4v-16.17c0-2.19.3-3.91.92-5.24.88-1.83,2.2-3.2,3.93-4.08,1.34-.67,1.64-.96,1.69-1.02.1-.11.16-.37.16-.7,0-.36-.13-.65-.42-.92-.09-.09-.51-.42-2.23-.42h-10.86c-1.2,0-1.69.22-1.87.36-.09.07-.34.24-.34.9,0,.31.06.55.17.71.06.09.26.32.87.6,2,1.03,3.4,2.29,4.21,3.74.8,1.45,1.19,3.44,1.19,6.07v11.76Z"/>
        </g>
      </g>
    </g>
  </g>
</svg>