<?xml version="1.0" encoding="UTF-8"?>
<svg id="Layer_2" data-name="Layer 2" xmlns="http://www.w3.org/2000/svg" viewBox="0 0 230 230">
  <defs>
    <style>
      .cls-1 {
        fill: #001300;
      }

      .cls-2 {
        fill: #eee9cc;
      }

      .cls-3 {
        fill: #fff;
      }

      .cls-4 {
        fill: #ff6961;
      }

      .cls-5 {
        fill: #ff836a;
      }

      .cls-6 {
        fill: #5dc35a;
      }

      .cls-7 {
        fill: #4d4d4d;
      }
    </style>
  </defs>
  <g>
    <ellipse class="cls-6" cx="113.8" cy="118.28" rx="113.95" ry="111.06"/>
    <ellipse class="cls-2" cx="113.8" cy="117.78" rx="106.59" ry="103.69"/>
    <ellipse class="cls-4" cx="113.34" cy="117.29" rx="100.62" ry="99.27"/>
    <ellipse class="cls-5" cx="113.34" cy="116.8" rx="95.11" ry="95.83"/>
    <path class="cls-1" d="M105.55,62.37c1.15-.11,2.22,1.39,2.39,3.34s-.36,6.91-1.51,7.02-2.5-4.66-2.66-6.62,.64-3.64,1.79-3.75Z"/>
    <path class="cls-1" d="M60.51,46.74c1-.63,2.56,.23,3.5,1.93s2.45,6.41,1.45,7.04-4.13-3.07-5.06-4.76-.88-3.58,.11-4.21Z"/>
    <path class="cls-7" d="M39.79,66.69c.71-.98,2.47-.79,3.91,.43s4.47,5.01,3.75,5.99-4.89-1.24-6.34-2.45-2.04-2.98-1.33-3.96Z"/>
    <path class="cls-7" d="M26.81,93.29c.44-1.15,2.17-1.47,3.87-.73s5.57,3.52,5.13,4.67-5.02,.23-6.72-.52-2.72-2.28-2.29-3.42Z"/>
    <path class="cls-7" d="M24.61,119.84c0-1.24,1.49-2.24,3.33-2.24s6.4,1,6.4,2.24-4.57,2.24-6.4,2.24-3.33-1-3.33-2.24Z"/>
    <path class="cls-7" d="M31.56,145.59c-.52-1.11,.39-2.72,2.04-3.6s6.15-2.17,6.66-1.06-3.14,4.19-4.79,5.07-3.4,.7-3.91-.41Z"/>
    <path class="cls-7" d="M45.81,170.88c-.7-.99-.07-2.75,1.39-3.94s5.68-3.33,6.37-2.34-2.38,4.73-3.85,5.92-3.22,1.34-3.92,.36Z"/>
    <path class="cls-1" d="M92.53,31.58c1.14-.23,2.34,1.15,2.67,3.09s.25,6.92-.88,7.14-2.9-4.39-3.24-6.32,.31-3.68,1.45-3.91Z"/>
    <path class="cls-1" d="M116.68,28.55c1.16,0,2.1,1.59,2.1,3.56s-.94,6.85-2.1,6.85-2.1-4.88-2.1-6.85,.94-3.56,2.1-3.56Z"/>
    <path class="cls-1" d="M142.2,31.91c1.07,.49,1.34,2.35,.62,4.15s-3.38,5.91-4.44,5.42-.14-5.37,.58-7.18,2.17-2.88,3.23-2.39Z"/>
    <path class="cls-1" d="M162.87,43.16c.9,.79,.68,2.65-.49,4.18s-4.78,4.66-5.68,3.88,1.27-5.2,2.44-6.72,2.84-2.12,3.73-1.33Z"/>
    <path class="cls-7" d="M158.15,188.57c-1.01,.61-2.56-.29-3.46-2.01s-2.31-6.47-1.3-7.07,4.06,3.16,4.96,4.88,.81,3.6-.2,4.2Z"/>
    <path class="cls-1" d="M180.12,172.88c-.76,.94-2.5,.66-3.89-.62s-4.24-5.23-3.48-6.17,4.83,1.49,6.22,2.77,1.91,3.08,1.15,4.02Z"/>
    <path class="cls-1" d="M191.71,153.29c-.41,1.16-2.14,1.52-3.86,.82s-5.64-3.39-5.23-4.54,5.01-.35,6.73,.35,2.77,2.21,2.36,3.37Z"/>
    <path class="cls-1" d="M198.98,132.65c-.41,1.16-2.14,1.52-3.86,.82s-5.64-3.39-5.23-4.54,5.01-.35,6.73,.35,2.77,2.21,2.36,3.37Z"/>
    <path class="cls-1" d="M200.61,106.06c.03,1.24-1.44,2.28-3.28,2.32s-6.42-.85-6.45-2.09,4.52-2.35,6.35-2.4,3.35,.92,3.38,2.16Z"/>
    <path class="cls-1" d="M186.68,72.62c.54,1.09-.33,2.73-1.96,3.65s-6.1,2.32-6.64,1.23,3.05-4.27,4.68-5.19,3.38-.78,3.92,.32Z"/>
    <path class="cls-1" d="M137.32,66.89c1.03,.57,1.18,2.45,.33,4.19s-3.78,5.62-4.81,5.05,.24-5.37,1.08-7.11,2.36-2.7,3.39-2.13Z"/>
    <path class="cls-7" d="M129.08,202.84c-1.13,.26-2.36-1.1-2.74-3.02s-.4-6.91,.73-7.16,2.99,4.32,3.37,6.24-.23,3.69-1.37,3.95Z"/>
    <path class="cls-7" d="M94.66,200.45c-1.13-.26-1.73-2.04-1.34-3.96s2.28-6.48,3.41-6.21,1.08,5.25,.68,7.17-1.63,3.26-2.76,3Z"/>
    <path class="cls-7" d="M66.6,188.49c-.97-.68-.93-2.57,.08-4.21s4.31-5.16,5.28-4.48-.77,5.31-1.78,6.95-2.62,2.42-3.58,1.73Z"/>
    <path class="cls-7" d="M66.3,136.06c-.49-1.12,.45-2.71,2.12-3.55s6.19-2.01,6.69-.89-3.24,4.11-4.9,4.95-3.41,.61-3.9-.51Z"/>
    <path class="cls-1" d="M150.75,144.58c-.77,.93-2.51,.62-3.88-.69s-4.16-5.3-3.39-6.23,4.81,1.57,6.18,2.88,1.86,3.12,1.09,4.04Z"/>
    <path class="cls-1" d="M164.82,114.06c-.1,1.23-1.67,2.1-3.5,1.92s-6.3-1.6-6.2-2.83,4.73-1.81,6.56-1.64,3.23,1.31,3.13,2.55Z"/>
    <path class="cls-1" d="M155.04,90.29c.56,1.08-.29,2.73-1.89,3.69s-6.06,2.44-6.62,1.36,2.98-4.33,4.58-5.28,3.37-.85,3.93,.24Z"/>
    <path class="cls-1" d="M72.67,76.49c.8-.89,2.53-.51,3.85,.85s3.97,5.47,3.16,6.36-4.74-1.77-6.07-3.13-1.75-3.19-.95-4.08Z"/>
    <path class="cls-7" d="M61.23,106.63c.22-1.22,1.86-1.9,3.67-1.52s6.11,2.29,5.89,3.51-4.88,1.27-6.69,.9-3.09-1.66-2.87-2.88Z"/>
    <path class="cls-7" d="M90.97,159.07c-.98-.66-.97-2.55,0-4.21s4.22-5.25,5.2-4.59-.67,5.33-1.65,6.99-2.57,2.47-3.55,1.81Z"/>
    <path class="cls-7" d="M121.92,164.85c-1.14,.2-2.31-1.22-2.6-3.16s-.09-6.92,1.05-7.12,2.79,4.47,3.09,6.41-.4,3.67-1.54,3.87Z"/>
  </g>
  <path class="cls-3" d="M26.99,40.66L115.56,121.28l88.66,80.7c39.83-50.05,32.44-126.74-16.5-171.29C138.78-13.85,66.82-9.39,26.99,40.66Z"/>
</svg>