<?xml version="1.0" encoding="UTF-8"?>
<svg id="Layer_2" data-name="Layer 2" xmlns="http://www.w3.org/2000/svg" viewBox="0 0 230 230">
  <defs>
    <style>
      .cls-1 {
        fill: #8c6239;
      }

      .cls-2 {
        fill: #c8ff8a;
      }

      .cls-3 {
        fill: #c183e3;
      }

      .cls-3, .cls-4 {
        stroke: #d47ff9;
        stroke-miterlimit: 10;
        stroke-width: .25px;
      }

      .cls-4 {
        fill: #c190e3;
      }
    </style>
  </defs>
  <ellipse class="cls-4" cx="38.92" cy="103.92" rx="22.89" ry="20.24" transform="translate(-47.49 34.3) rotate(-30.61)"/>
  <ellipse class="cls-3" cx="125.39" cy="101.54" rx="22.89" ry="20.24" transform="translate(-34.23 78.01) rotate(-30.61)"/>
  <ellipse class="cls-3" cx="162.96" cy="165.92" rx="22.89" ry="20.24" transform="translate(-61.78 106.11) rotate(-30.61)"/>
  <path class="cls-1" d="M115.77,104.89h0c-2.35-.28-3.96-2.05-3.61-3.95L129.62,6.9c.35-1.9,2.54-3.2,4.89-2.92h0c2.35,.28,3.96,2.05,3.61,3.95l-17.46,94.04c-.35,1.9-2.54,3.2-4.89,2.92Z"/>
  <ellipse class="cls-3" cx="187" cy="111.25" rx="23.81" ry="19.45" transform="translate(-30.06 96.01) rotate(-26.73)"/>
  <ellipse class="cls-3" cx="102.85" cy="65.09" rx="22.89" ry="20.24" transform="translate(-18.81 61.45) rotate(-30.61)"/>
  <ellipse class="cls-3" cx="134.36" cy="122.15" rx="24.3" ry="19.06" transform="translate(-38.02 65.05) rotate(-23.95)"/>
  <ellipse class="cls-3" cx="80.67" cy="173.97" rx="22.89" ry="20.24" transform="translate(-77.35 65.33) rotate(-30.61)"/>
  <ellipse class="cls-3" cx="45.91" cy="165.68" rx="22.89" ry="20.24" transform="translate(-77.97 46.47) rotate(-30.61)"/>
  <ellipse class="cls-3" cx="125.39" cy="152.56" rx="22.89" ry="20.24" transform="translate(-60.21 85.12) rotate(-30.61)"/>
  <ellipse class="cls-3" cx="42.74" cy="74.81" rx="22.89" ry="20.24" transform="translate(-32.14 32.19) rotate(-30.61)"/>
  <ellipse class="cls-3" cx="163.32" cy="95.43" rx="22.89" ry="20.24" transform="translate(-25.83 96.47) rotate(-30.61)"/>
  <ellipse class="cls-4" cx="137.78" cy="80.47" rx="22.89" ry="20.24" transform="translate(-21.78 81.38) rotate(-30.61)"/>
  <ellipse class="cls-4" cx="51.5" cy="191.95" rx="22.89" ry="20.24" transform="translate(-90.57 52.98) rotate(-30.61)"/>
  <ellipse class="cls-3" cx="38.24" cy="133.12" rx="22.89" ry="20.24" transform="translate(-62.46 38.03) rotate(-30.61)"/>
  <ellipse class="cls-3" cx="107.77" cy="205.59" rx="22.89" ry="20.24" transform="translate(-89.67 83.54) rotate(-30.61)"/>
  <ellipse class="cls-4" cx="101.04" cy="180.49" rx="22.89" ry="20.24" transform="translate(-77.83 76.61) rotate(-30.61)"/>
  <ellipse class="cls-4" cx="151.35" cy="133.36" rx="22.89" ry="20.24" transform="translate(-46.82 95.66) rotate(-30.61)"/>
  <ellipse class="cls-4" cx="105.86" cy="104.73" rx="22.89" ry="20.24" transform="translate(-38.58 68.5) rotate(-30.61)"/>
  <ellipse class="cls-4" cx="187" cy="81.65" rx="22.89" ry="20.24" transform="translate(-15.52 106.61) rotate(-30.61)"/>
  <ellipse class="cls-4" cx="185.5" cy="133.12" rx="22.89" ry="20.24" transform="translate(-41.94 113.02) rotate(-30.61)"/>
  <ellipse class="cls-3" cx="75.63" cy="209.04" rx="22.89" ry="20.24" transform="translate(-95.91 67.65) rotate(-30.61)"/>
  <ellipse class="cls-4" cx="138.09" cy="45.61" rx="22.89" ry="20.24" transform="translate(-3.98 76.68) rotate(-30.61)"/>
  <ellipse class="cls-4" cx="138.09" cy="185.3" rx="22.89" ry="20.24" transform="translate(-75.12 96.15) rotate(-30.61)"/>
  <ellipse class="cls-3" cx="75.8" cy="108.82" rx="22.89" ry="20.24" transform="translate(-44.85 53.77) rotate(-30.61)"/>
  <ellipse class="cls-3" cx="105.61" cy="77.19" rx="22.89" ry="20.24" transform="translate(-24.59 64.54) rotate(-30.61)"/>
  <ellipse class="cls-3" cx="169.65" cy="58.97" rx="22.89" ry="20.24" transform="translate(-6.38 94.61) rotate(-30.61)"/>
  <ellipse class="cls-3" cx="68.97" cy="51.68" rx="22.89" ry="20.24" transform="translate(-16.71 42.33) rotate(-30.61)"/>
  <ellipse class="cls-3" cx="103.27" cy="140.55" rx="22.89" ry="20.24" transform="translate(-57.18 72.18) rotate(-30.61)"/>
  <ellipse class="cls-4" cx="68.7" cy="82.1" rx="20.83" ry="22.23" transform="translate(-36.63 101.23) rotate(-60.37)"/>
  <ellipse class="cls-4" cx="76.22" cy="137.15" rx="22.89" ry="20.24" transform="translate(-59.22 57.93) rotate(-30.61)"/>
  <ellipse class="cls-4" cx="101.44" cy="42.26" rx="22.89" ry="20.24" transform="translate(-7.38 57.55) rotate(-30.61)"/>
  <ellipse class="cls-2" cx="157.36" cy="20.06" rx="36.08" ry="11.45" transform="translate(9.76 78.2) rotate(-28.76)"/>
  <ellipse class="cls-2" cx="161.02" cy="28.59" rx="37.82" ry="10.93" transform="translate(-2.36 35.83) rotate(-12.61)"/>
</svg>